AimeMX-Regular.ufo
<glyph name="exclam" format="2">
  <advance width="174"/>
  <unicode hex="0021"/>
  <outline>
    <contour>
      <point x="47" y="40" type="line"/>
      <point x="47" y="61"/>
      <point x="65" y="79"/>
      <point x="87" y="79" type="curve" smooth="yes"/>
      <point x="108" y="79"/>
      <point x="126" y="61"/>
      <point x="126" y="40" type="curve" smooth="yes"/>
      <point x="126" y="18"/>
      <point x="108" y="0"/>
      <point x="87" y="0" type="curve" smooth="yes"/>
      <point x="65" y="0"/>
      <point x="47" y="18"/>
      <point x="47" y="40" type="curve"/>
    </contour>
    <contour>
      <point x="62" y="167" type="line"/>
      <point x="47" y="735" type="line"/>
      <point x="126" y="735" type="line"/>
      <point x="111" y="167" type="line"/>
      <point x="62" y="167" type="line"/>
    </contour>
  </outline>
</glyph>
<glyph name="quotedbl" format="2">
  <advance width="266"/>
  <unicode hex="0022"/>
  <outline>
    <contour>
      <point x="89" y="796" type="line"/>
      <point x="104" y="796"/>
      <point x="115" y="784"/>
      <point x="115" y="769" type="curve"/>
      <point x="112" y="732" type="line"/>
      <point x="82" y="639" type="line"/>
      <point x="80" y="631"/>
      <point x="73" y="626"/>
      <point x="65" y="626" type="curve" smooth="yes"/>
      <point x="55" y="626"/>
      <point x="47" y="637"/>
      <point x="48" y="647" type="curve"/>
      <point x="65" y="732" type="line"/>
      <point x="63" y="769" type="line"/>
      <point x="62.961" y="769.586"/>
      <point x="62.9418" y="770.167"/>
      <point x="62.9418" y="770.743" type="curve"/>
      <point x="62.9418" y="784.919"/>
      <point x="74.5858" y="796"/>
      <point x="89" y="796" type="curve"/>
    </contour>
    <contour>
      <point x="193" y="796" type="line"/>
      <point x="207.366" y="796"/>
      <point x="218.063" y="784.993"/>
      <point x="218.063" y="770.885" type="curve"/>
      <point x="218.063" y="770.263"/>
      <point x="218.042" y="769.634"/>
      <point x="218" y="769" type="curve"/>
      <point x="216" y="732" type="line"/>
      <point x="186" y="639" type="line"/>
      <point x="183" y="631"/>
      <point x="177" y="626"/>
      <point x="169" y="626" type="curve" smooth="yes"/>
      <point x="158" y="626"/>
      <point x="150" y="637"/>
      <point x="152" y="647" type="curve" smooth="yes"/>
      <point x="169" y="732" type="line"/>
      <point x="166" y="769" type="line"/>
      <point x="166" y="784"/>
      <point x="178" y="796"/>
      <point x="193" y="796" type="curve"/>
    </contour>
  </outline>
</glyph>
<glyph name="numbersign" format="2">
  <advance width="892"/>
  <unicode hex="0023"/>
  <outline>
    <contour>
      <point x="844" y="504" type="line"/>
      <point x="835" y="471" type="line"/>
      <point x="657" y="471" type="line"/>
      <point x="596" y="264" type="line"/>
      <point x="773" y="264" type="line"/>
      <point x="763" y="231" type="line"/>
      <point x="586" y="231" type="line"/>
      <point x="542" y="83" type="line"/>
      <point x="466" y="83" type="line"/>
      <point x="511" y="231" type="line"/>
      <point x="300" y="231" type="line"/>
      <point x="256" y="83" type="line"/>
      <point x="181" y="83" type="line"/>
      <point x="225" y="231" type="line"/>
      <point x="47" y="231" type="line"/>
      <point x="57" y="264" type="line"/>
      <point x="235" y="264" type="line"/>
      <point x="296" y="471" type="line"/>
      <point x="119" y="471" type="line"/>
      <point x="128" y="504" type="line"/>
      <point x="306" y="504" type="line"/>
      <point x="350" y="653" type="line"/>
      <point x="425" y="653" type="line"/>
      <point x="381" y="504" type="line"/>
      <point x="592" y="504" type="line"/>
      <point x="636" y="653" type="line"/>
      <point x="711" y="653" type="line"/>
      <point x="667" y="504" type="line"/>
      <point x="844" y="504" type="line"/>
    </contour>
    <contour>
      <point x="310" y="264" type="line"/>
      <point x="520" y="264" type="line"/>
      <point x="582" y="471" type="line"/>
      <point x="371" y="471" type="line"/>
    </contour>
  </outline>
</glyph>
<glyph name="dollar" format="2">
  <advance width="398"/>
  <unicode hex="0024"/>
  <outline>
    <contour>
      <point x="219" y="407" type="line"/>
      <point x="292" y="350" type="line" smooth="yes"/>
      <point x="330.427" y="319.37"/>
      <point x="350.245" y="275.404"/>
      <point x="350.245" y="231.228" type="curve" smooth="yes"/>
      <point x="350.245" y="196.081"/>
      <point x="337.699" y="160.801"/>
      <point x="312" y="132" type="curve" smooth="yes"/>
      <point x="287" y="104"/>
      <point x="254" y="86"/>
      <point x="219" y="80" type="curve"/>
      <point x="219" y="0" type="line"/>
      <point x="179" y="0" type="line"/>
      <point x="179" y="77" type="line"/>
      <point x="144" y="78"/>
      <point x="109" y="90"/>
      <point x="80" y="113" type="curve" smooth="yes"/>
      <point x="48" y="138" type="line"/>
      <point x="69" y="162" type="line"/>
      <point x="118" y="123" type="line" smooth="yes"/>
      <point x="136" y="109"/>
      <point x="157" y="101"/>
      <point x="179" y="99" type="curve"/>
      <point x="179" y="345" type="line"/>
      <point x="102" y="406" type="line" smooth="yes"/>
      <point x="66.2185" y="434.513"/>
      <point x="47.6288" y="475.217"/>
      <point x="47.6288" y="516.228" type="curve" smooth="yes"/>
      <point x="47.6288" y="548.571"/>
      <point x="59.1906" y="581.104"/>
      <point x="83" y="608" type="curve" smooth="yes"/>
      <point x="109" y="636"/>
      <point x="143" y="653"/>
      <point x="179" y="658" type="curve"/>
      <point x="179" y="736" type="line"/>
      <point x="219" y="736" type="line"/>
      <point x="219" y="658" type="line"/>
      <point x="247" y="655"/>
      <point x="274" y="644"/>
      <point x="298" y="625" type="curve" smooth="yes"/>
      <point x="315" y="612" type="line"/>
      <point x="294" y="588" type="line"/>
      <point x="260" y="615" type="line" smooth="yes"/>
      <point x="248" y="625"/>
      <point x="233" y="631"/>
      <point x="219" y="634" type="curve"/>
      <point x="219" y="407" type="line"/>
    </contour>
    <contour>
      <point x="273" y="136" type="line"/>
      <point x="290.239" y="155.449"/>
      <point x="298.685" y="179"/>
      <point x="298.685" y="202.423" type="curve" smooth="yes"/>
      <point x="298.685" y="231.991"/>
      <point x="285.225" y="261.354"/>
      <point x="259" y="282" type="curve" smooth="yes"/>
      <point x="219" y="314" type="line"/>
      <point x="219" y="103" type="line"/>
      <point x="239" y="109"/>
      <point x="258" y="120"/>
      <point x="273" y="136" type="curve"/>
    </contour>
    <contour>
      <point x="134" y="474" type="line"/>
      <point x="179" y="438" type="line"/>
      <point x="179" y="635" type="line"/>
      <point x="158" y="631"/>
      <point x="137" y="621"/>
      <point x="122" y="604" type="curve" smooth="yes"/>
      <point x="106.563" y="586.799"/>
      <point x="99.1016" y="565.901"/>
      <point x="99.1016" y="545.082" type="curve" smooth="yes"/>
      <point x="99.1016" y="518.7"/>
      <point x="111.084" y="492.445"/>
      <point x="134" y="474" type="curve"/>
    </contour>
  </outline>
</glyph>
<glyph name="ampersand" format="2">
  <advance width="549"/>
  <unicode hex="0026"/>
  <outline>
    <contour>
      <point x="446" y="183" type="line"/>
      <point x="446" y="269" type="line"/>
      <point x="522" y="269" type="line"/>
      <point x="522" y="180" type="line" smooth="yes"/>
      <point x="522" y="81"/>
      <point x="441" y="0"/>
      <point x="342" y="0" type="curve" smooth="yes"/>
      <point x="239" y="0" type="line" smooth="yes"/>
      <point x="133" y="0"/>
      <point x="47" y="86"/>
      <point x="47" y="192" type="curve"/>
      <point x="47" y="193" type="line"/>
      <point x="47" y="271"/>
      <point x="94" y="339"/>
      <point x="161" y="368" type="curve"/>
      <point x="94" y="398"/>
      <point x="47" y="466"/>
      <point x="47" y="544" type="curve" smooth="yes"/>
      <point x="47" y="650"/>
      <point x="133" y="736"/>
      <point x="239" y="736" type="curve" smooth="yes"/>
      <point x="441" y="736" type="line"/>
      <point x="441" y="535" type="line"/>
      <point x="328" y="192" type="line"/>
      <point x="241" y="192" type="line"/>
      <point x="295" y="352" type="line"/>
      <point x="273" y="352" type="line" smooth="yes"/>
      <point x="190" y="352"/>
      <point x="123" y="285"/>
      <point x="123" y="202" type="curve" smooth="yes"/>
      <point x="123" y="183" type="line" smooth="yes"/>
      <point x="123" y="100"/>
      <point x="190" y="33"/>
      <point x="273" y="33" type="curve" smooth="yes"/>
      <point x="296" y="33" type="line" smooth="yes"/>
      <point x="379" y="33"/>
      <point x="446" y="100"/>
      <point x="446" y="183" type="curve"/>
    </contour>
    <contour>
      <point x="123" y="553" type="line"/>
      <point x="123" y="535" type="line" smooth="yes"/>
      <point x="123" y="452"/>
      <point x="190" y="385"/>
      <point x="273" y="385" type="curve" smooth="yes"/>
      <point x="307" y="385" type="line"/>
      <point x="403" y="666" type="line"/>
      <point x="403" y="703" type="line"/>
      <point x="273" y="703" type="line" smooth="yes"/>
      <point x="190" y="703"/>
      <point x="123" y="636"/>
      <point x="123" y="553" type="curve"/>
    </contour>
  </outline>
</glyph>
<glyph name="quotesingle" format="2">
  <advance width="140"/>
  <unicode hex="0027"/>
  <outline>
    <contour>
      <point x="92" y="772" type="line"/>
      <point x="86" y="663" type="line"/>
      <point x="85" y="655"/>
      <point x="78" y="649"/>
      <point x="70" y="649" type="curve" smooth="yes"/>
      <point x="62" y="649"/>
      <point x="55" y="655"/>
      <point x="54" y="663" type="curve"/>
      <point x="48" y="772" type="line"/>
      <point x="47.9538" y="772.601"/>
      <point x="47.9311" y="773.198"/>
      <point x="47.9311" y="773.789" type="curve"/>
      <point x="47.9311" y="785.994"/>
      <point x="57.6011" y="796"/>
      <point x="70" y="796" type="curve" smooth="yes"/>
      <point x="82.399" y="796"/>
      <point x="92.069" y="785.994"/>
      <point x="92.069" y="773.789" type="curve"/>
      <point x="92.069" y="773.198"/>
      <point x="92.0463" y="772.601"/>
      <point x="92" y="772" type="curve"/>
    </contour>
  </outline>
</glyph>
<glyph name="parenleft" format="2">
  <advance width="261"/>
  <unicode hex="0028"/>
  <outline>
    <contour>
      <point x="179" y="-5" type="line"/>
      <point x="174" y="3" type="line"/>
      <point x="144" y="59"/>
      <point x="113" y="118"/>
      <point x="88" y="178" type="curve" smooth="yes"/>
      <point x="64" y="239"/>
      <point x="47" y="303"/>
      <point x="47" y="368" type="curve" smooth="yes"/>
      <point x="47" y="433"/>
      <point x="64" y="497"/>
      <point x="88" y="558" type="curve" smooth="yes"/>
      <point x="113" y="618"/>
      <point x="144" y="677"/>
      <point x="174" y="733" type="curve"/>
      <point x="179" y="741" type="line"/>
      <point x="214" y="723" type="line"/>
      <point x="209" y="715" type="line"/>
      <point x="146" y="598"/>
      <point x="111" y="500"/>
      <point x="111" y="368" type="curve" smooth="yes"/>
      <point x="111" y="236"/>
      <point x="146" y="137"/>
      <point x="209" y="21" type="curve"/>
      <point x="214" y="13" type="line"/>
    </contour>
  </outline>
</glyph>
<glyph name="parenright" format="2">
  <advance width="261"/>
  <unicode hex="0029"/>
  <outline>
    <contour>
      <point x="82" y="-5" type="line"/>
      <point x="47" y="13" type="line"/>
      <point x="51" y="21" type="line"/>
      <point x="115" y="137"/>
      <point x="149" y="236"/>
      <point x="149" y="368" type="curve" smooth="yes"/>
      <point x="149" y="500"/>
      <point x="115" y="598"/>
      <point x="51" y="715" type="curve"/>
      <point x="47" y="723" type="line"/>
      <point x="82" y="741" type="line"/>
      <point x="86" y="733" type="line"/>
      <point x="147" y="623"/>
      <point x="213" y="496"/>
      <point x="213" y="368" type="curve" smooth="yes"/>
      <point x="213" y="240"/>
      <point x="147" y="113"/>
      <point x="86" y="3" type="curve"/>
    </contour>
  </outline>
</glyph>
<glyph name="asterisk" format="2">
  <advance width="437"/>
  <unicode hex="002A"/>
  <outline>
    <contour>
      <point x="329" y="419" type="line"/>
      <point x="317" y="411" type="line"/>
      <point x="219" y="529" type="line"/>
      <point x="121" y="411" type="line"/>
      <point x="109" y="419" type="line"/>
      <point x="191" y="549" type="line"/>
      <point x="48" y="606" type="line"/>
      <point x="53" y="620" type="line"/>
      <point x="202" y="582" type="line"/>
      <point x="211" y="735" type="line"/>
      <point x="226" y="735" type="line"/>
      <point x="236" y="582" type="line"/>
      <point x="385" y="620" type="line"/>
      <point x="390" y="606" type="line"/>
      <point x="247" y="549" type="line"/>
    </contour>
  </outline>
</glyph>
<glyph name="comma" format="2">
  <advance width="162"/>
  <unicode hex="002C"/>
  <outline>
    <contour>
      <point x="89" y="64" type="line"/>
      <point x="103.414" y="64"/>
      <point x="115.058" y="52.9189"/>
      <point x="115.058" y="38.7429" type="curve"/>
      <point x="115.058" y="38.1669"/>
      <point x="115.039" y="37.5858"/>
      <point x="115" y="37" type="curve"/>
      <point x="112" y="0" type="line"/>
      <point x="83" y="-93" type="line"/>
      <point x="80" y="-101"/>
      <point x="73" y="-106"/>
      <point x="65" y="-106" type="curve" smooth="yes"/>
      <point x="55" y="-106"/>
      <point x="47" y="-96"/>
      <point x="48" y="-85" type="curve"/>
      <point x="65" y="0" type="line"/>
      <point x="63" y="37" type="line"/>
      <point x="62.9637" y="37.5449"/>
      <point x="62.9458" y="38.0858"/>
      <point x="62.9458" y="38.6224" type="curve"/>
      <point x="62.9458" y="52.856"/>
      <point x="75.5086" y="64"/>
      <point x="89" y="64" type="curve"/>
    </contour>
  </outline>
</glyph>
<glyph name="slash" format="2">
  <advance width="640"/>
  <unicode hex="002F"/>
  <outline>
    <contour>
      <point x="110" y="0" type="line"/>
      <point x="48" y="0" type="line"/>
      <point x="530" y="735" type="line"/>
      <point x="592" y="735" type="line"/>
    </contour>
  </outline>
</glyph>
<glyph name="zero" format="2">
  <advance width="619"/>
  <unicode hex="0030"/>
  <outline>
    <contour>
      <point x="310" y="736" type="line"/>
      <point x="454" y="736"/>
      <point x="572" y="628"/>
      <point x="572" y="495" type="curve"/>
      <point x="571" y="415" type="line"/>
      <point x="571" y="283"/>
      <point x="454" y="175"/>
      <point x="309" y="175" type="curve" smooth="yes"/>
      <point x="165" y="175"/>
      <point x="47" y="283"/>
      <point x="47" y="415" type="curve"/>
      <point x="48" y="495" type="line"/>
      <point x="48" y="628"/>
      <point x="165" y="736"/>
      <point x="310" y="736" type="curve"/>
    </contour>
    <contour>
      <point x="495" y="415" type="line"/>
      <point x="496" y="495" type="line"/>
      <point x="496" y="610"/>
      <point x="412" y="703"/>
      <point x="310" y="703" type="curve" smooth="yes"/>
      <point x="207" y="703"/>
      <point x="124" y="610"/>
      <point x="124" y="495" type="curve"/>
      <point x="123" y="415" type="line"/>
      <point x="123" y="301"/>
      <point x="207" y="208"/>
      <point x="309" y="208" type="curve" smooth="yes"/>
      <point x="412" y="208"/>
      <point x="495" y="301"/>
      <point x="495" y="415" type="curve"/>
    </contour>
  </outline>
</glyph>
<glyph name="one" format="2">
  <advance width="343"/>
  <unicode hex="0031"/>
  <outline>
    <contour>
      <point x="209" y="33" type="line"/>
      <point x="296" y="33" type="line"/>
      <point x="296" y="0" type="line"/>
      <point x="47" y="0" type="line"/>
      <point x="47" y="33" type="line"/>
      <point x="134" y="33" type="line"/>
      <point x="134" y="703" type="line"/>
      <point x="47" y="703" type="line"/>
      <point x="57" y="736" type="line"/>
      <point x="209" y="736" type="line"/>
      <point x="209" y="33" type="line"/>
    </contour>
  </outline>
</glyph>
<glyph name="two" format="2">
  <advance width="619"/>
  <unicode hex="0032"/>
  <outline>
    <contour>
      <point x="47" y="703" type="line"/>
      <point x="47" y="736" type="line"/>
      <point x="422" y="736" type="line" smooth="yes"/>
      <point x="504" y="736"/>
      <point x="572" y="668"/>
      <point x="572" y="586" type="curve" smooth="yes"/>
      <point x="572" y="420" type="line"/>
      <point x="165" y="275" type="line" smooth="yes"/>
      <point x="140" y="266"/>
      <point x="123" y="242"/>
      <point x="123" y="216" type="curve" smooth="yes"/>
      <point x="123" y="33" type="line"/>
      <point x="572" y="33" type="line"/>
      <point x="572" y="0" type="line"/>
      <point x="47" y="0" type="line"/>
      <point x="47" y="214" type="line" smooth="yes"/>
      <point x="47" y="275"/>
      <point x="86" y="329"/>
      <point x="144" y="350" type="curve" smooth="yes"/>
      <point x="496" y="476" type="line"/>
      <point x="496" y="603" type="line" smooth="yes"/>
      <point x="496" y="658"/>
      <point x="451" y="703"/>
      <point x="396" y="703" type="curve" smooth="yes"/>
      <point x="47" y="703" type="line"/>
    </contour>
  </outline>
</glyph>
<glyph name="three" format="2">
  <advance width="589"/>
  <unicode hex="0033"/>
  <outline>
    <contour>
      <point x="343" y="0" type="line"/>
      <point x="18" y="0" type="line"/>
      <point x="18" y="33" type="line"/>
      <point x="343" y="33" type="line" smooth="yes"/>
      <point x="411" y="33"/>
      <point x="466" y="97"/>
      <point x="466" y="177" type="curve" smooth="yes"/>
      <point x="466" y="208" type="line" smooth="yes"/>
      <point x="466" y="287"/>
      <point x="411" y="351"/>
      <point x="343" y="351" type="curve" smooth="yes"/>
      <point x="203" y="351" type="line"/>
      <point x="203" y="384" type="line"/>
      <point x="343" y="384" type="line" smooth="yes"/>
      <point x="411" y="384"/>
      <point x="466" y="449"/>
      <point x="466" y="528" type="curve" smooth="yes"/>
      <point x="466" y="559" type="line" smooth="yes"/>
      <point x="466" y="638"/>
      <point x="411" y="703"/>
      <point x="343" y="703" type="curve" smooth="yes"/>
      <point x="18" y="703" type="line"/>
      <point x="18" y="736" type="line"/>
      <point x="343" y="736" type="line" smooth="yes"/>
      <point x="453" y="736"/>
      <point x="542" y="656"/>
      <point x="542" y="559" type="curve" smooth="yes"/>
      <point x="542" y="528" type="line" smooth="yes"/>
      <point x="542" y="462"/>
      <point x="494" y="400"/>
      <point x="428" y="368" type="curve"/>
      <point x="494" y="335"/>
      <point x="542" y="273"/>
      <point x="542" y="208" type="curve" smooth="yes"/>
      <point x="542" y="177" type="line" smooth="yes"/>
      <point x="542" y="79"/>
      <point x="453" y="0"/>
      <point x="343" y="0" type="curve"/>
    </contour>
  </outline>
</glyph>
<glyph name="four" format="2">
  <advance width="619"/>
  <unicode hex="0034"/>
  <outline>
    <contour>
      <point x="461" y="736" type="line"/>
      <point x="572" y="736" type="line"/>
      <point x="572" y="0" type="line"/>
      <point x="496" y="0" type="line"/>
      <point x="496" y="176" type="line"/>
      <point x="48" y="176" type="line"/>
      <point x="48" y="240" type="line"/>
    </contour>
    <contour>
      <point x="496" y="686" type="line"/>
      <point x="123" y="241" type="line"/>
      <point x="123" y="209" type="line"/>
      <point x="496" y="209" type="line"/>
      <point x="496" y="686" type="line"/>
    </contour>
  </outline>
</glyph>
<glyph name="five" format="2">
  <advance width="619"/>
  <unicode hex="0035"/>
  <outline>
    <contour>
      <point x="310" y="0" type="line"/>
      <point x="48" y="0" type="line"/>
      <point x="48" y="33" type="line"/>
      <point x="310" y="33" type="line" smooth="yes"/>
      <point x="412" y="33"/>
      <point x="496" y="126"/>
      <point x="496" y="241" type="curve" smooth="yes"/>
      <point x="496" y="271" type="line" smooth="yes"/>
      <point x="496" y="385"/>
      <point x="412" y="479"/>
      <point x="310" y="479" type="curve" smooth="yes"/>
      <point x="48" y="479" type="line"/>
      <point x="48" y="736" type="line"/>
      <point x="552" y="736" type="line"/>
      <point x="552" y="703" type="line"/>
      <point x="123" y="703" type="line"/>
      <point x="123" y="511" type="line"/>
      <point x="310" y="511" type="line" smooth="yes"/>
      <point x="454" y="511"/>
      <point x="572" y="404"/>
      <point x="572" y="271" type="curve" smooth="yes"/>
      <point x="572" y="240" type="line" smooth="yes"/>
      <point x="572" y="108"/>
      <point x="454" y="0"/>
      <point x="310" y="0" type="curve"/>
    </contour>
  </outline>
</glyph>
<glyph name="six" format="2">
  <advance width="619"/>
  <unicode hex="0036"/>
  <outline>
    <contour>
      <point x="310" y="511" type="line"/>
      <point x="454" y="511"/>
      <point x="572" y="404"/>
      <point x="572" y="271" type="curve" smooth="yes"/>
      <point x="572" y="241" type="line" smooth="yes"/>
      <point x="572" y="108"/>
      <point x="454" y="0"/>
      <point x="310" y="0" type="curve" smooth="yes"/>
      <point x="165" y="0"/>
      <point x="47" y="108"/>
      <point x="47" y="241" type="curve" smooth="yes"/>
      <point x="47" y="495" type="line" smooth="yes"/>
      <point x="47" y="628"/>
      <point x="165" y="735"/>
      <point x="310" y="735" type="curve" smooth="yes"/>
      <point x="506" y="735" type="line"/>
      <point x="506" y="703" type="line"/>
      <point x="310" y="703" type="line" smooth="yes"/>
      <point x="207" y="703"/>
      <point x="123" y="610"/>
      <point x="123" y="495" type="curve" smooth="yes"/>
      <point x="123" y="441" type="line"/>
      <point x="171" y="484"/>
      <point x="236" y="511"/>
      <point x="310" y="511" type="curve"/>
    </contour>
    <contour>
      <point x="496" y="241" type="line"/>
      <point x="496" y="271" type="line" smooth="yes"/>
      <point x="496" y="385"/>
      <point x="412" y="479"/>
      <point x="310" y="479" type="curve" smooth="yes"/>
      <point x="207" y="479"/>
      <point x="123" y="385"/>
      <point x="123" y="271" type="curve" smooth="yes"/>
      <point x="123" y="241" type="line" smooth="yes"/>
      <point x="123" y="126"/>
      <point x="207" y="33"/>
      <point x="310" y="33" type="curve" smooth="yes"/>
      <point x="412" y="33"/>
      <point x="496" y="126"/>
      <point x="496" y="241" type="curve"/>
    </contour>
  </outline>
</glyph>
<glyph name="seven" format="2">
  <advance width="549"/>
  <unicode hex="0037"/>
  <outline>
    <contour>
      <point x="532" y="713" type="line"/>
      <point x="231" y="0" type="line"/>
      <point x="155" y="0" type="line"/>
      <point x="452" y="703" type="line"/>
      <point x="17" y="703" type="line"/>
      <point x="17" y="736" type="line"/>
      <point x="532" y="736" type="line"/>
      <point x="532" y="713" type="line"/>
    </contour>
  </outline>
</glyph>
<glyph name="eight" format="2">
  <advance width="619"/>
  <unicode hex="0038"/>
  <outline>
    <contour>
      <point x="358" y="0" type="line"/>
      <point x="261" y="0" type="line" smooth="yes"/>
      <point x="143" y="0"/>
      <point x="47" y="86"/>
      <point x="47" y="192" type="curve" smooth="yes"/>
      <point x="47" y="267"/>
      <point x="98" y="335"/>
      <point x="175" y="368" type="curve"/>
      <point x="98" y="401"/>
      <point x="47" y="468"/>
      <point x="47" y="543" type="curve" smooth="yes"/>
      <point x="47" y="649"/>
      <point x="143" y="736"/>
      <point x="261" y="736" type="curve" smooth="yes"/>
      <point x="358" y="736" type="line" smooth="yes"/>
      <point x="476" y="736"/>
      <point x="572" y="649"/>
      <point x="572" y="543" type="curve" smooth="yes"/>
      <point x="572" y="468"/>
      <point x="521" y="401"/>
      <point x="445" y="368" type="curve"/>
      <point x="521" y="335"/>
      <point x="572" y="267"/>
      <point x="572" y="192" type="curve" smooth="yes"/>
      <point x="572" y="86"/>
      <point x="476" y="0"/>
      <point x="358" y="0" type="curve"/>
    </contour>
    <contour>
      <point x="358" y="351" type="line"/>
      <point x="261" y="351" type="line" smooth="yes"/>
      <point x="185" y="351"/>
      <point x="123" y="280"/>
      <point x="123" y="192" type="curve" smooth="yes"/>
      <point x="123" y="104"/>
      <point x="185" y="33"/>
      <point x="261" y="33" type="curve" smooth="yes"/>
      <point x="358" y="33" type="line" smooth="yes"/>
      <point x="434" y="33"/>
      <point x="496" y="104"/>
      <point x="496" y="192" type="curve" smooth="yes"/>
      <point x="496" y="280"/>
      <point x="434" y="351"/>
      <point x="358" y="351" type="curve"/>
    </contour>
    <contour>
      <point x="261" y="384" type="line"/>
      <point x="358" y="384" type="line" smooth="yes"/>
      <point x="434" y="384"/>
      <point x="496" y="456"/>
      <point x="496" y="543" type="curve" smooth="yes"/>
      <point x="496" y="631"/>
      <point x="434" y="703"/>
      <point x="358" y="703" type="curve" smooth="yes"/>
      <point x="261" y="703" type="line" smooth="yes"/>
      <point x="185" y="703"/>
      <point x="123" y="631"/>
      <point x="123" y="543" type="curve" smooth="yes"/>
      <point x="123" y="456"/>
      <point x="185" y="384"/>
      <point x="261" y="384" type="curve"/>
    </contour>
  </outline>
</glyph>
<glyph name="nine" format="2">
  <advance width="619"/>
  <unicode hex="0039"/>
  <outline>
    <contour>
      <point x="310" y="224" type="line"/>
      <point x="165" y="224"/>
      <point x="47" y="332"/>
      <point x="47" y="465" type="curve" smooth="yes"/>
      <point x="47" y="495" type="line" smooth="yes"/>
      <point x="47" y="628"/>
      <point x="165" y="736"/>
      <point x="310" y="736" type="curve" smooth="yes"/>
      <point x="454" y="736"/>
      <point x="572" y="628"/>
      <point x="572" y="495" type="curve" smooth="yes"/>
      <point x="572" y="241" type="line" smooth="yes"/>
      <point x="572" y="108"/>
      <point x="454" y="0"/>
      <point x="310" y="0" type="curve" smooth="yes"/>
      <point x="113" y="0" type="line"/>
      <point x="113" y="33" type="line"/>
      <point x="310" y="33" type="line" smooth="yes"/>
      <point x="412" y="33"/>
      <point x="496" y="126"/>
      <point x="496" y="241" type="curve" smooth="yes"/>
      <point x="496" y="295" type="line"/>
      <point x="449" y="251"/>
      <point x="383" y="224"/>
      <point x="310" y="224" type="curve"/>
    </contour>
    <contour>
      <point x="123" y="495" type="line"/>
      <point x="123" y="465" type="line" smooth="yes"/>
      <point x="123" y="350"/>
      <point x="207" y="257"/>
      <point x="309" y="257" type="curve" smooth="yes"/>
      <point x="412" y="257"/>
      <point x="496" y="350"/>
      <point x="496" y="465" type="curve" smooth="yes"/>
      <point x="496" y="495" type="line" smooth="yes"/>
      <point x="496" y="610"/>
      <point x="412" y="703"/>
      <point x="309" y="703" type="curve" smooth="yes"/>
      <point x="207" y="703"/>
      <point x="123" y="610"/>
      <point x="123" y="495" type="curve"/>
    </contour>
  </outline>
</glyph>
<glyph name="colon" format="2">
  <advance width="173"/>
  <unicode hex="003A"/>
  <outline>
    <contour>
      <point x="47" y="186" type="line"/>
      <point x="47" y="208"/>
      <point x="65" y="225"/>
      <point x="87" y="225" type="curve" smooth="yes"/>
      <point x="108" y="225"/>
      <point x="126" y="208"/>
      <point x="126" y="186" type="curve" smooth="yes"/>
      <point x="126" y="164"/>
      <point x="108" y="146"/>
      <point x="87" y="146" type="curve" smooth="yes"/>
      <point x="65" y="146"/>
      <point x="47" y="164"/>
      <point x="47" y="186" type="curve"/>
    </contour>
    <contour>
      <point x="47" y="537" type="line"/>
      <point x="47" y="559"/>
      <point x="65" y="576"/>
      <point x="87" y="576" type="curve" smooth="yes"/>
      <point x="108" y="576"/>
      <point x="126" y="559"/>
      <point x="126" y="537" type="curve" smooth="yes"/>
      <point x="126" y="515"/>
      <point x="108" y="497"/>
      <point x="87" y="497" type="curve" smooth="yes"/>
      <point x="65" y="497"/>
      <point x="47" y="515"/>
      <point x="47" y="537" type="curve"/>
    </contour>
  </outline>
</glyph>
<glyph name="semicolon" format="2">
  <advance width="174"/>
  <unicode hex="003B"/>
  <outline>
    <contour>
      <point x="48" y="186" type="line"/>
      <point x="48" y="208"/>
      <point x="66" y="225"/>
      <point x="88" y="225" type="curve" smooth="yes"/>
      <point x="109" y="225"/>
      <point x="127" y="208"/>
      <point x="127" y="186" type="curve" smooth="yes"/>
      <point x="127" y="164"/>
      <point x="109" y="146"/>
      <point x="88" y="146" type="curve" smooth="yes"/>
      <point x="66" y="146"/>
      <point x="48" y="164"/>
      <point x="48" y="186" type="curve"/>
    </contour>
    <contour>
      <point x="89" y="64" type="line"/>
      <point x="103.414" y="64"/>
      <point x="115.058" y="52.9189"/>
      <point x="115.058" y="38.7429" type="curve"/>
      <point x="115.058" y="38.1669"/>
      <point x="115.039" y="37.5858"/>
      <point x="115" y="37" type="curve"/>
      <point x="112" y="0" type="line"/>
      <point x="83" y="-93" type="line"/>
      <point x="80" y="-101"/>
      <point x="73" y="-106"/>
      <point x="65" y="-106" type="curve" smooth="yes"/>
      <point x="55" y="-106"/>
      <point x="47" y="-96"/>
      <point x="48" y="-85" type="curve"/>
      <point x="65" y="0" type="line"/>
      <point x="63" y="37" type="line"/>
      <point x="62.9637" y="37.5449"/>
      <point x="62.9458" y="38.0858"/>
      <point x="62.9458" y="38.6224" type="curve"/>
      <point x="62.9458" y="52.856"/>
      <point x="75.5086" y="64"/>
      <point x="89" y="64" type="curve"/>
    </contour>
  </outline>
</glyph>
<glyph name="less" format="2">
  <advance width="246"/>
  <unicode hex="003C"/>
  <outline>
    <contour>
      <point x="48" y="385" type="line"/>
      <point x="184" y="578" type="line"/>
      <point x="198" y="569" type="line"/>
      <point x="102" y="361" type="line"/>
      <point x="198" y="153" type="line"/>
      <point x="184" y="145" type="line"/>
      <point x="48" y="337" type="line"/>
      <point x="48" y="385" type="line"/>
    </contour>
  </outline>
</glyph>
<glyph name="equal" format="2">
  <advance width="470"/>
  <unicode hex="003D"/>
  <outline>
    <contour>
      <point x="47" y="465" type="line"/>
      <point x="423" y="465" type="line"/>
      <point x="423" y="432" type="line"/>
      <point x="47" y="432" type="line"/>
      <point x="47" y="465" type="line"/>
    </contour>
    <contour>
      <point x="47" y="257" type="line"/>
      <point x="47" y="290" type="line"/>
      <point x="423" y="290" type="line"/>
      <point x="423" y="257" type="line"/>
      <point x="47" y="257" type="line"/>
    </contour>
  </outline>
</glyph>
<glyph name="greater" format="2">
  <advance width="246"/>
  <unicode hex="003E"/>
  <outline>
    <contour>
      <point x="62" y="578" type="line"/>
      <point x="198" y="385" type="line"/>
      <point x="198" y="337" type="line"/>
      <point x="62" y="145" type="line"/>
      <point x="48" y="153" type="line"/>
      <point x="144" y="361" type="line"/>
      <point x="48" y="569" type="line"/>
    </contour>
  </outline>
</glyph>
<glyph name="question" format="2">
  <advance width="540"/>
  <unicode hex="003F"/>
  <outline>
    <contour>
      <point x="204" y="40" type="line"/>
      <point x="204" y="61"/>
      <point x="221" y="79"/>
      <point x="243" y="79" type="curve" smooth="yes"/>
      <point x="265" y="79"/>
      <point x="283" y="61"/>
      <point x="283" y="40" type="curve" smooth="yes"/>
      <point x="283" y="18"/>
      <point x="265" y="0"/>
      <point x="243" y="0" type="curve" smooth="yes"/>
      <point x="221" y="0"/>
      <point x="204" y="18"/>
      <point x="204" y="40" type="curve"/>
    </contour>
    <contour>
      <point x="281" y="218" type="line"/>
      <point x="281" y="167" type="line"/>
      <point x="205" y="167" type="line"/>
      <point x="205" y="218" type="line" smooth="yes"/>
      <point x="205" y="267"/>
      <point x="231" y="318"/>
      <point x="277" y="357" type="curve" smooth="yes"/>
      <point x="371" y="438" type="line" smooth="yes"/>
      <point x="400" y="462"/>
      <point x="417" y="504"/>
      <point x="417" y="552" type="curve" smooth="yes"/>
      <point x="417" y="635"/>
      <point x="359" y="703"/>
      <point x="288" y="703" type="curve" smooth="yes"/>
      <point x="252" y="703" type="line" smooth="yes"/>
      <point x="181" y="703"/>
      <point x="123" y="635"/>
      <point x="123" y="552" type="curve" smooth="yes"/>
      <point x="123" y="505" type="line"/>
      <point x="47" y="505" type="line"/>
      <point x="47" y="552" type="line" smooth="yes"/>
      <point x="47" y="653"/>
      <point x="139" y="735"/>
      <point x="252" y="735" type="curve" smooth="yes"/>
      <point x="288" y="735" type="line" smooth="yes"/>
      <point x="401" y="735"/>
      <point x="492" y="653"/>
      <point x="492" y="552" type="curve" smooth="yes"/>
      <point x="492" y="503"/>
      <point x="466" y="452"/>
      <point x="421" y="413" type="curve" smooth="yes"/>
      <point x="326" y="332" type="line" smooth="yes"/>
      <point x="297" y="308"/>
      <point x="281" y="266"/>
      <point x="281" y="218" type="curve"/>
    </contour>
  </outline>
</glyph>
<glyph name="at" format="2">
  <advance width="873"/>
  <unicode hex="0040"/>
  <outline>
    <contour>
      <point x="415" y="736" type="line"/>
      <point x="571" y="736" type="line" smooth="yes"/>
      <point x="712" y="736"/>
      <point x="826" y="622"/>
      <point x="826" y="481" type="curve" smooth="yes"/>
      <point x="826" y="358" type="line" smooth="yes"/>
      <point x="826" y="266"/>
      <point x="751" y="191"/>
      <point x="658" y="191" type="curve" smooth="yes"/>
      <point x="652" y="191" type="line" smooth="yes"/>
      <point x="593" y="191"/>
      <point x="543" y="222"/>
      <point x="515" y="266" type="curve"/>
      <point x="481" y="220"/>
      <point x="427" y="191"/>
      <point x="368" y="191" type="curve"/>
      <point x="367" y="191" type="line"/>
      <point x="292" y="191"/>
      <point x="235" y="253"/>
      <point x="235" y="323" type="curve" smooth="yes"/>
      <point x="235" y="338"/>
      <point x="238" y="353"/>
      <point x="243" y="368" type="curve" smooth="yes"/>
      <point x="273" y="451" type="line" smooth="yes"/>
      <point x="298" y="518"/>
      <point x="362" y="563"/>
      <point x="433" y="563" type="curve" smooth="yes"/>
      <point x="554" y="563" type="line"/>
      <point x="621" y="538" type="line"/>
      <point x="554" y="355" type="line"/>
      <point x="551" y="345"/>
      <point x="549" y="334"/>
      <point x="549" y="324" type="curve" smooth="yes"/>
      <point x="549" y="270"/>
      <point x="592" y="224"/>
      <point x="650" y="224" type="curve" smooth="yes"/>
      <point x="705" y="224"/>
      <point x="750" y="269"/>
      <point x="750" y="324" type="curve" smooth="yes"/>
      <point x="750" y="519" type="line" smooth="yes"/>
      <point x="750" y="621"/>
      <point x="668" y="703"/>
      <point x="566" y="703" type="curve" smooth="yes"/>
      <point x="458" y="703" type="line" smooth="yes"/>
      <point x="273" y="703"/>
      <point x="123" y="553"/>
      <point x="123" y="368" type="curve" smooth="yes"/>
      <point x="123" y="183"/>
      <point x="273" y="33"/>
      <point x="458" y="33" type="curve" smooth="yes"/>
      <point x="593" y="33" type="line"/>
      <point x="593" y="0" type="line"/>
      <point x="415" y="0" type="line" smooth="yes"/>
      <point x="212" y="0"/>
      <point x="47" y="165"/>
      <point x="47" y="368" type="curve" smooth="yes"/>
      <point x="47" y="571"/>
      <point x="212" y="736"/>
      <point x="415" y="736" type="curve"/>
    </contour>
    <contour>
      <point x="377" y="224" type="line"/>
      <point x="409" y="224"/>
      <point x="438" y="244"/>
      <point x="450" y="275" type="curve"/>
      <point x="498" y="409" type="line"/>
      <point x="499" y="409"/>
      <point x="499" y="410"/>
      <point x="499" y="410" type="curve"/>
      <point x="541" y="526" type="line"/>
      <point x="456" y="526" type="line" smooth="yes"/>
      <point x="408" y="526"/>
      <point x="365" y="496"/>
      <point x="349" y="451" type="curve" smooth="yes"/>
      <point x="304" y="328" type="line" smooth="yes"/>
      <point x="301" y="319"/>
      <point x="299" y="310"/>
      <point x="299" y="301" type="curve" smooth="yes"/>
      <point x="299" y="260"/>
      <point x="332" y="224"/>
      <point x="377" y="224" type="curve"/>
    </contour>
  </outline>
</glyph>
<glyph name="A" format="2">
  <advance width="603"/>
  <unicode hex="0041"/>
  <outline>
    <contour>
      <point x="310" y="736" type="line"/>
      <point x="596" y="0" type="line"/>
      <point x="520" y="0" type="line"/>
      <point x="381" y="360" type="line"/>
      <point x="226" y="288"/>
      <point x="105" y="160"/>
      <point x="43" y="0" type="curve"/>
      <point x="8" y="0" type="line"/>
      <point x="289.936" y="728.225" type="line"/>
      <point x="310" y="736" type="line"/>
    </contour>
    <contour>
      <point x="282" y="615" type="line"/>
      <point x="121" y="200" type="line"/>
      <point x="187" y="282"/>
      <point x="272" y="347"/>
      <point x="369" y="391" type="curve"/>
    </contour>
  </outline>
</glyph>
<glyph name="B" format="2">
  <advance width="562"/>
  <unicode hex="0042"/>
  <outline>
    <contour>
      <point x="391" y="378" type="line"/>
      <point x="474" y="356"/>
      <point x="534" y="281"/>
      <point x="534" y="192" type="curve" smooth="yes"/>
      <point x="534" y="86"/>
      <point x="448" y="0"/>
      <point x="342" y="0" type="curve" smooth="yes"/>
      <point x="58" y="0" type="line"/>
      <point x="58" y="703" type="line"/>
      <point x="-1" y="703" type="line"/>
      <point x="-1" y="736" type="line"/>
      <point x="294" y="736" type="line" smooth="yes"/>
      <point x="400" y="736"/>
      <point x="486" y="649"/>
      <point x="486" y="543" type="curve" smooth="yes"/>
      <point x="486" y="473"/>
      <point x="448" y="411"/>
      <point x="391" y="378" type="curve"/>
    </contour>
    <contour>
      <point x="458" y="192" type="line"/>
      <point x="458" y="280"/>
      <point x="387" y="351"/>
      <point x="299" y="351" type="curve" smooth="yes"/>
      <point x="241" y="351" type="line"/>
      <point x="241" y="384" type="line"/>
      <point x="251" y="384" type="line" smooth="yes"/>
      <point x="339" y="384"/>
      <point x="410" y="455"/>
      <point x="410" y="543" type="curve" smooth="yes"/>
      <point x="410" y="631"/>
      <point x="339" y="703"/>
      <point x="251" y="703" type="curve" smooth="yes"/>
      <point x="134" y="703" type="line"/>
      <point x="134" y="33" type="line"/>
      <point x="299" y="33" type="line" smooth="yes"/>
      <point x="387" y="33"/>
      <point x="458" y="104"/>
      <point x="458" y="192" type="curve"/>
    </contour>
  </outline>
</glyph>
<glyph name="F" format="2">
  <advance width="483"/>
  <unicode hex="0046"/>
  <outline>
    <contour>
      <point x="135" y="0" type="line"/>
      <point x="59" y="0" type="line"/>
      <point x="59" y="703" type="line"/>
      <point x="0" y="703" type="line"/>
      <point x="0" y="736" type="line"/>
      <point x="483" y="736" type="line"/>
      <point x="483" y="703" type="line"/>
      <point x="135" y="703" type="line"/>
      <point x="135" y="384" type="line"/>
      <point x="427" y="384" type="line"/>
      <point x="427" y="351" type="line"/>
      <point x="135" y="351" type="line"/>
      <point x="135" y="0" type="line"/>
    </contour>
  </outline>
</glyph>
<glyph name="G" format="2">
  <advance width="709"/>
  <unicode hex="0047"/>
  <outline>
    <contour>
      <point x="507" y="351" type="line"/>
      <point x="507" y="384" type="line"/>
      <point x="662" y="384" type="line"/>
      <point x="662" y="0" type="line"/>
      <point x="363" y="0" type="line" smooth="yes"/>
      <point x="189" y="0"/>
      <point x="48" y="141"/>
      <point x="48" y="315" type="curve" smooth="yes"/>
      <point x="48" y="421" type="line" smooth="yes"/>
      <point x="48" y="594"/>
      <point x="189" y="736"/>
      <point x="363" y="736" type="curve" smooth="yes"/>
      <point x="385" y="736" type="line" smooth="yes"/>
      <point x="504" y="736"/>
      <point x="608" y="669"/>
      <point x="662" y="572" type="curve"/>
      <point x="606" y="546" type="line"/>
      <point x="569" y="638"/>
      <point x="479" y="703"/>
      <point x="374" y="703" type="curve"/>
      <point x="373" y="703" type="line"/>
      <point x="235" y="703"/>
      <point x="123" y="591"/>
      <point x="123" y="453" type="curve" smooth="yes"/>
      <point x="123" y="283" type="line" smooth="yes"/>
      <point x="123" y="145"/>
      <point x="235" y="33"/>
      <point x="373" y="33" type="curve" smooth="yes"/>
      <point x="586" y="33" type="line"/>
      <point x="586" y="351" type="line"/>
      <point x="507" y="351" type="line"/>
    </contour>
  </outline>
</glyph>
<glyph name="I" format="2">
  <advance width="343"/>
  <unicode hex="0049"/>
  <outline>
    <contour>
      <point x="209" y="703" type="line"/>
      <point x="209" y="99" type="line"/>
      <point x="180" y="33" type="line"/>
      <point x="296" y="33" type="line"/>
      <point x="296" y="0" type="line"/>
      <point x="47" y="0" type="line"/>
      <point x="47" y="33" type="line"/>
      <point x="134" y="33" type="line"/>
      <point x="134" y="703" type="line"/>
      <point x="47" y="703" type="line"/>
      <point x="47" y="736" type="line"/>
      <point x="296" y="736" type="line"/>
      <point x="296" y="703" type="line"/>
      <point x="209" y="703" type="line"/>
    </contour>
  </outline>
</glyph>
<glyph name="J" format="2">
  <advance width="196"/>
  <unicode hex="004A"/>
  <outline>
    <contour>
      <point x="73" y="703" type="line"/>
      <point x="-1" y="703" type="line"/>
      <point x="-1" y="736" type="line"/>
      <point x="149" y="736" type="line"/>
      <point x="149" y="-26" type="line" smooth="yes"/>
      <point x="149" y="-71"/>
      <point x="131" y="-115"/>
      <point x="99" y="-147" type="curve" smooth="yes"/>
      <point x="-2" y="-247" type="line"/>
      <point x="-2" y="-210" type="line"/>
      <point x="31" y="-178" type="line" smooth="yes"/>
      <point x="58" y="-151"/>
      <point x="73" y="-115"/>
      <point x="73" y="-77" type="curve" smooth="yes"/>
      <point x="73" y="703" type="line"/>
    </contour>
  </outline>
</glyph>
<glyph name="K" format="2">
  <advance width="565"/>
  <unicode hex="004B"/>
  <outline>
    <contour>
      <point x="-1" y="703" type="line"/>
      <point x="-1" y="736" type="line"/>
      <point x="134" y="736" type="line"/>
      <point x="134" y="0" type="line"/>
      <point x="58" y="0" type="line"/>
      <point x="58" y="703" type="line"/>
      <point x="-1" y="703" type="line"/>
    </contour>
    <contour>
      <point x="388" y="281" type="line"/>
      <point x="537" y="0" type="line"/>
      <point x="451" y="0" type="line"/>
      <point x="287" y="308" type="line" smooth="yes"/>
      <point x="273" y="335"/>
      <point x="245" y="351"/>
      <point x="215" y="351" type="curve" smooth="yes"/>
      <point x="163" y="351" type="line"/>
      <point x="163" y="384" type="line"/>
      <point x="215" y="384" type="line" smooth="yes"/>
      <point x="245" y="384"/>
      <point x="273" y="401"/>
      <point x="287" y="428" type="curve" smooth="yes"/>
      <point x="451" y="736" type="line"/>
      <point x="537" y="736" type="line"/>
      <point x="388" y="455" type="line" smooth="yes"/>
      <point x="367" y="415"/>
      <point x="333" y="385"/>
      <point x="294" y="368" type="curve"/>
      <point x="333" y="350"/>
      <point x="367" y="320"/>
      <point x="388" y="281" type="curve"/>
    </contour>
  </outline>
</glyph>
<glyph name="M" format="2">
  <advance width="794"/>
  <unicode hex="004D"/>
  <outline>
    <contour>
      <point x="666" y="736" type="line"/>
      <point x="747" y="735" type="line"/>
      <point x="747" y="0" type="line"/>
      <point x="671" y="0" type="line"/>
      <point x="671" y="669" type="line"/>
      <point x="421" y="133" type="line"/>
      <point x="342" y="133" type="line"/>
      <point x="92" y="669" type="line"/>
      <point x="92" y="0" type="line"/>
      <point x="59" y="0" type="line"/>
      <point x="59" y="703" type="line"/>
      <point x="0" y="703" type="line"/>
      <point x="0" y="736" type="line"/>
      <point x="140" y="736" type="line"/>
      <point x="403" y="172" type="line"/>
    </contour>
  </outline>
</glyph>
<glyph name="N" format="2">
  <advance width="628"/>
  <unicode hex="004E"/>
  <outline>
    <contour>
      <point x="580" y="736" type="line"/>
      <point x="580" y="0" type="line"/>
      <point x="530" y="0" type="line"/>
      <point x="91" y="627" type="line"/>
      <point x="91" y="0" type="line"/>
      <point x="58" y="0" type="line"/>
      <point x="58" y="703" type="line"/>
      <point x="-1" y="703" type="line"/>
      <point x="-1" y="736" type="line"/>
      <point x="108" y="736" type="line"/>
      <point x="547" y="108" type="line"/>
      <point x="547" y="736" type="line"/>
      <point x="580" y="736" type="line"/>
    </contour>
  </outline>
</glyph>
<glyph name="P" format="2">
  <advance width="562"/>
  <unicode hex="0050"/>
  <outline>
    <contour>
      <point x="305" y="263" type="line"/>
      <point x="167" y="263" type="line"/>
      <point x="167" y="296" type="line"/>
      <point x="255" y="296" type="line" smooth="yes"/>
      <point x="368" y="296"/>
      <point x="459" y="387"/>
      <point x="459" y="499" type="curve" smooth="yes"/>
      <point x="459" y="612"/>
      <point x="368" y="703"/>
      <point x="255" y="703" type="curve" smooth="yes"/>
      <point x="135" y="703" type="line"/>
      <point x="135" y="0" type="line"/>
      <point x="59" y="0" type="line"/>
      <point x="59" y="703" type="line"/>
      <point x="-1" y="703" type="line"/>
      <point x="-1" y="736" type="line"/>
      <point x="298" y="736" type="line" smooth="yes"/>
      <point x="429" y="736"/>
      <point x="535" y="630"/>
      <point x="535" y="499" type="curve" smooth="yes"/>
      <point x="535" y="371"/>
      <point x="432" y="267"/>
      <point x="305" y="263" type="curve"/>
    </contour>
  </outline>
</glyph>
<glyph name="Q" format="2">
  <advance width="754"/>
  <unicode hex="0051"/>
  <outline>
    <contour>
      <point x="591" y="-92" type="line"/>
      <point x="709" y="-9" type="line"/>
      <point x="736" y="-47" type="line"/>
      <point x="635" y="-119" type="line" smooth="yes"/>
      <point x="613" y="-135"/>
      <point x="582" y="-144"/>
      <point x="547" y="-144" type="curve" smooth="yes"/>
      <point x="471" y="-144"/>
      <point x="414" y="-103"/>
      <point x="399" y="-47" type="curve"/>
      <point x="399" y="-47"/>
      <point x="393" y="-28"/>
      <point x="385" y="0" type="curve"/>
      <point x="363" y="0" type="line" smooth="yes"/>
      <point x="189" y="0"/>
      <point x="48" y="141"/>
      <point x="48" y="315" type="curve" smooth="yes"/>
      <point x="48" y="421" type="line" smooth="yes"/>
      <point x="48" y="594"/>
      <point x="189" y="736"/>
      <point x="363" y="736" type="curve" smooth="yes"/>
      <point x="386" y="736" type="line" smooth="yes"/>
      <point x="560" y="736"/>
      <point x="701" y="594"/>
      <point x="701" y="421" type="curve" smooth="yes"/>
      <point x="701" y="315" type="line" smooth="yes"/>
      <point x="701" y="166"/>
      <point x="597" y="41"/>
      <point x="458" y="8" type="curve"/>
      <point x="472" y="-39" type="line" smooth="yes"/>
      <point x="484" y="-83"/>
      <point x="517" y="-111"/>
      <point x="547" y="-111" type="curve" smooth="yes"/>
      <point x="559" y="-111"/>
      <point x="574" y="-105"/>
      <point x="591" y="-92" type="curve"/>
    </contour>
    <contour>
      <point x="374" y="33" type="line"/>
      <point x="376" y="33" type="line"/>
      <point x="362" y="81"/>
      <point x="347" y="137"/>
      <point x="341" y="156" type="curve"/>
      <point x="329" y="199"/>
      <point x="299" y="229"/>
      <point x="267" y="229" type="curve" smooth="yes"/>
      <point x="210" y="229" type="line"/>
      <point x="210" y="261" type="line"/>
      <point x="267" y="261" type="line" smooth="yes"/>
      <point x="338" y="261"/>
      <point x="398" y="222"/>
      <point x="414" y="165" type="curve" smooth="yes"/>
      <point x="448" y="44" type="line"/>
      <point x="551" y="75"/>
      <point x="625" y="170"/>
      <point x="625" y="283" type="curve" smooth="yes"/>
      <point x="625" y="453" type="line" smooth="yes"/>
      <point x="625" y="591"/>
      <point x="513" y="703"/>
      <point x="375" y="703" type="curve"/>
      <point x="374" y="703" type="line"/>
      <point x="236" y="703"/>
      <point x="124" y="591"/>
      <point x="124" y="453" type="curve" smooth="yes"/>
      <point x="124" y="283" type="line" smooth="yes"/>
      <point x="124" y="145"/>
      <point x="236" y="33"/>
      <point x="374" y="33" type="curve"/>
    </contour>
  </outline>
</glyph>
<glyph name="T" format="2">
  <advance width="501"/>
  <unicode hex="0054"/>
  <outline>
    <contour>
      <point x="-12" y="736" type="line"/>
      <point x="513" y="736" type="line"/>
      <point x="513" y="703" type="line"/>
      <point x="288" y="703" type="line"/>
      <point x="288" y="0" type="line"/>
      <point x="213" y="0" type="line"/>
      <point x="213" y="703" type="line"/>
      <point x="-12" y="703" type="line"/>
      <point x="-12" y="736" type="line"/>
    </contour>
  </outline>
</glyph>
<glyph name="V" format="2">
  <advance width="532"/>
  <unicode hex="0056"/>
  <outline>
    <contour>
      <point x="480" y="736" type="line"/>
      <point x="514" y="736" type="line"/>
      <point x="281" y="0" type="line"/>
      <point x="250" y="0" type="line"/>
      <point x="17" y="736" type="line"/>
      <point x="96" y="736" type="line"/>
      <point x="288" y="130" type="line"/>
    </contour>
  </outline>
</glyph>
<glyph name="X" format="2">
  <advance width="583"/>
  <unicode hex="0058"/>
  <outline>
    <contour>
      <point x="566" y="0" type="line"/>
      <point x="477" y="0" type="line"/>
      <point x="278" y="318" type="line"/>
      <point x="79" y="0" type="line"/>
      <point x="39" y="0" type="line"/>
      <point x="258" y="350" type="line"/>
      <point x="17" y="736" type="line"/>
      <point x="106" y="736" type="line"/>
      <point x="303" y="421" type="line"/>
      <point x="499" y="736" type="line"/>
      <point x="538" y="736" type="line"/>
      <point x="322" y="390" type="line"/>
    </contour>
  </outline>
</glyph>
<glyph name="Y" format="2">
  <advance width="601"/>
  <unicode hex="0059"/>
  <outline>
    <contour>
      <point x="351" y="0" type="line"/>
      <point x="275" y="0" type="line"/>
      <point x="275" y="294" type="line"/>
      <point x="59" y="703" type="line"/>
      <point x="0" y="703" type="line"/>
      <point x="0" y="736" type="line"/>
      <point x="127" y="736" type="line"/>
      <point x="337" y="338" type="line"/>
      <point x="546" y="736" type="line"/>
      <point x="583" y="736" type="line"/>
      <point x="351" y="294" type="line"/>
      <point x="351" y="0" type="line"/>
    </contour>
  </outline>
</glyph>
<glyph name="Z" format="2">
  <advance width="596"/>
  <unicode hex="005A"/>
  <outline>
    <contour>
      <point x="578" y="33" type="line"/>
      <point x="578" y="0" type="line"/>
      <point x="17" y="0" type="line"/>
      <point x="17" y="33" type="line"/>
      <point x="487" y="703" type="line"/>
      <point x="17" y="703" type="line"/>
      <point x="17" y="736" type="line"/>
      <point x="578" y="736" type="line"/>
      <point x="578" y="703" type="line"/>
      <point x="109" y="33" type="line"/>
      <point x="578" y="33" type="line"/>
    </contour>
  </outline>
</glyph>
<glyph name="bracketleft" format="2">
  <advance width="258"/>
  <unicode hex="005B"/>
  <outline>
    <contour>
      <point x="48" y="0" type="line"/>
      <point x="48" y="736" type="line"/>
      <point x="210" y="736" type="line"/>
      <point x="210" y="703" type="line"/>
      <point x="124" y="703" type="line"/>
      <point x="124" y="33" type="line"/>
      <point x="210" y="33" type="line"/>
      <point x="210" y="0" type="line"/>
      <point x="48" y="0" type="line"/>
    </contour>
  </outline>
</glyph>
<glyph name="backslash" format="2">
  <advance width="640"/>
  <unicode hex="005C"/>
  <outline>
    <contour>
      <point x="592" y="0" type="line"/>
      <point x="530" y="0" type="line"/>
      <point x="48" y="735" type="line"/>
      <point x="110" y="735" type="line"/>
    </contour>
  </outline>
</glyph>
<glyph name="bracketright" format="2">
  <advance width="258"/>
  <unicode hex="005D"/>
  <outline>
    <contour>
      <point x="210" y="736" type="line"/>
      <point x="210" y="0" type="line"/>
      <point x="48" y="0" type="line"/>
      <point x="48" y="33" type="line"/>
      <point x="134" y="33" type="line"/>
      <point x="134" y="703" type="line"/>
      <point x="48" y="703" type="line"/>
      <point x="48" y="736" type="line"/>
      <point x="210" y="736" type="line"/>
    </contour>
  </outline>
</glyph>
<glyph name="asciicircum" format="2">
  <advance width="315"/>
  <unicode hex="005E"/>
  <outline>
    <contour>
      <point x="268" y="606" type="line"/>
      <point x="256" y="597" type="line"/>
      <point x="158" y="715" type="line"/>
      <point x="60" y="597" type="line"/>
      <point x="48" y="606" type="line"/>
      <point x="130" y="735" type="line"/>
      <point x="186" y="735" type="line"/>
    </contour>
  </outline>
</glyph>
<glyph name="underscore" format="2">
  <advance width="543"/>
  <unicode hex="005F"/>
  <outline>
    <contour>
      <point x="48" y="0" type="line"/>
      <point x="48" y="20" type="line"/>
      <point x="496" y="20" type="line"/>
      <point x="496" y="0" type="line"/>
      <point x="48" y="0" type="line"/>
    </contour>
  </outline>
</glyph>
<glyph name="grave" format="2">
  <advance width="120"/>
  <unicode hex="0060"/>
  <outline>
    <contour>
      <point x="0" y="841" type="line"/>
      <point x="67" y="841" type="line"/>
      <point x="119" y="758" type="line"/>
      <point x="88" y="736" type="line"/>
    </contour>
  </outline>
</glyph>
<glyph name="b" format="2">
  <advance width="604"/>
  <unicode hex="0062"/>
  <outline>
    <contour>
      <point x="307" y="561" type="line"/>
      <point x="445" y="561"/>
      <point x="556" y="449"/>
      <point x="556" y="312" type="curve" smooth="yes"/>
      <point x="556" y="249" type="line" smooth="yes"/>
      <point x="556" y="111"/>
      <point x="445" y="0"/>
      <point x="307" y="0" type="curve" smooth="yes"/>
      <point x="230" y="0"/>
      <point x="161" y="35"/>
      <point x="115" y="91" type="curve"/>
      <point x="89" y="0" type="line"/>
      <point x="58" y="18" type="line"/>
      <point x="58" y="703" type="line"/>
      <point x="-1" y="703" type="line"/>
      <point x="-1" y="735" type="line"/>
      <point x="134" y="735" type="line"/>
      <point x="134" y="491" type="line"/>
      <point x="179" y="534"/>
      <point x="240" y="561"/>
      <point x="307" y="561" type="curve"/>
    </contour>
    <contour>
      <point x="480" y="206" type="line"/>
      <point x="480" y="355" type="line" smooth="yes"/>
      <point x="480" y="450"/>
      <point x="403" y="528"/>
      <point x="307" y="528" type="curve" smooth="yes"/>
      <point x="212" y="528"/>
      <point x="134" y="450"/>
      <point x="134" y="355" type="curve" smooth="yes"/>
      <point x="134" y="206" type="line" smooth="yes"/>
      <point x="134" y="110"/>
      <point x="212" y="33"/>
      <point x="307" y="33" type="curve" smooth="yes"/>
      <point x="403" y="33"/>
      <point x="480" y="110"/>
      <point x="480" y="206" type="curve"/>
    </contour>
  </outline>
</glyph>
<glyph name="d" format="2">
  <advance width="603"/>
  <unicode hex="0064"/>
  <outline>
    <contour>
      <point x="296" y="561" type="line"/>
      <point x="363" y="561"/>
      <point x="424" y="534"/>
      <point x="469" y="491" type="curve"/>
      <point x="469" y="736" type="line"/>
      <point x="604" y="736" type="line"/>
      <point x="604" y="703" type="line"/>
      <point x="545" y="703" type="line"/>
      <point x="545" y="18" type="line"/>
      <point x="514" y="0" type="line"/>
      <point x="488" y="91" type="line"/>
      <point x="442" y="35"/>
      <point x="373" y="0"/>
      <point x="296" y="0" type="curve" smooth="yes"/>
      <point x="159" y="0"/>
      <point x="47" y="111"/>
      <point x="47" y="249" type="curve" smooth="yes"/>
      <point x="47" y="312" type="line" smooth="yes"/>
      <point x="47" y="449"/>
      <point x="159" y="561"/>
      <point x="296" y="561" type="curve"/>
    </contour>
    <contour>
      <point x="123" y="355" type="line"/>
      <point x="123" y="206" type="line" smooth="yes"/>
      <point x="123" y="110"/>
      <point x="200" y="33"/>
      <point x="296" y="33" type="curve" smooth="yes"/>
      <point x="391" y="33"/>
      <point x="469" y="110"/>
      <point x="469" y="206" type="curve" smooth="yes"/>
      <point x="469" y="355" type="line" smooth="yes"/>
      <point x="469" y="450"/>
      <point x="391" y="528"/>
      <point x="296" y="528" type="curve" smooth="yes"/>
      <point x="200" y="528"/>
      <point x="123" y="450"/>
      <point x="123" y="355" type="curve"/>
    </contour>
  </outline>
</glyph>
<glyph name="h" format="2">
  <advance width="534"/>
  <unicode hex="0068"/>
  <outline>
    <contour>
      <point x="487" y="489" type="line"/>
      <point x="487" y="0" type="line"/>
      <point x="411" y="0" type="line"/>
      <point x="411" y="501" type="line"/>
      <point x="384" y="518"/>
      <point x="353" y="528"/>
      <point x="319" y="528" type="curve" smooth="yes"/>
      <point x="302" y="528" type="line" smooth="yes"/>
      <point x="210" y="528"/>
      <point x="135" y="453"/>
      <point x="135" y="361" type="curve" smooth="yes"/>
      <point x="135" y="0" type="line"/>
      <point x="59" y="0" type="line"/>
      <point x="59" y="703" type="line"/>
      <point x="0" y="703" type="line"/>
      <point x="0" y="736" type="line"/>
      <point x="135" y="736" type="line"/>
      <point x="135" y="489" type="line"/>
      <point x="183" y="535"/>
      <point x="246" y="561"/>
      <point x="312" y="561" type="curve"/>
      <point x="377" y="560"/>
      <point x="440" y="534"/>
      <point x="487" y="489" type="curve"/>
    </contour>
  </outline>
</glyph>
<glyph name="i" format="2">
  <advance width="170"/>
  <unicode hex="0069"/>
  <outline>
    <contour>
      <point x="47" y="0" type="line"/>
      <point x="47" y="561" type="line"/>
      <point x="123" y="561" type="line"/>
      <point x="123" y="0" type="line"/>
      <point x="47" y="0" type="line"/>
    </contour>
    <contour>
      <point x="94" y="642" type="line"/>
      <point x="47" y="735" type="line"/>
      <point x="123" y="735" type="line"/>
      <point x="123" y="642" type="line"/>
      <point x="94" y="642" type="line"/>
    </contour>
  </outline>
</glyph>
<glyph name="k" format="2">
  <advance width="516"/>
  <unicode hex="006B"/>
  <outline>
    <contour>
      <point x="-1" y="703" type="line"/>
      <point x="-1" y="735" type="line"/>
      <point x="132" y="735" type="line"/>
      <point x="132" y="0" type="line"/>
      <point x="58" y="0" type="line"/>
      <point x="58" y="703" type="line"/>
      <point x="-1" y="703" type="line"/>
    </contour>
    <contour>
      <point x="386" y="193" type="line"/>
      <point x="488" y="0" type="line"/>
      <point x="402" y="0" type="line"/>
      <point x="285" y="221" type="line" smooth="yes"/>
      <point x="271" y="247"/>
      <point x="243" y="264"/>
      <point x="213" y="264" type="curve" smooth="yes"/>
      <point x="161" y="264" type="line"/>
      <point x="161" y="297" type="line"/>
      <point x="213" y="297" type="line" smooth="yes"/>
      <point x="243" y="297"/>
      <point x="271" y="314"/>
      <point x="285" y="340" type="curve" smooth="yes"/>
      <point x="402" y="561" type="line"/>
      <point x="488" y="561" type="line"/>
      <point x="386" y="368" type="line" smooth="yes"/>
      <point x="365" y="328"/>
      <point x="331" y="298"/>
      <point x="292" y="281" type="curve"/>
      <point x="331" y="263"/>
      <point x="365" y="233"/>
      <point x="386" y="193" type="curve"/>
    </contour>
  </outline>
</glyph>
<glyph name="l" format="2">
  <advance width="233"/>
  <unicode hex="006C"/>
  <outline>
    <contour>
      <point x="134" y="735" type="line"/>
      <point x="134" y="99" type="line"/>
      <point x="105" y="33" type="line"/>
      <point x="205" y="33" type="line"/>
      <point x="205" y="0" type="line"/>
      <point x="59" y="0" type="line"/>
      <point x="59" y="703" type="line"/>
      <point x="-1" y="703" type="line"/>
      <point x="-1" y="736" type="line"/>
    </contour>
  </outline>
</glyph>
<glyph name="m" format="2">
  <advance width="903"/>
  <unicode hex="006D"/>
  <outline>
    <contour>
      <point x="856" y="489" type="line"/>
      <point x="856" y="0" type="line"/>
      <point x="780" y="0" type="line"/>
      <point x="780" y="501" type="line"/>
      <point x="754" y="518"/>
      <point x="722" y="528"/>
      <point x="689" y="528" type="curve" smooth="yes"/>
      <point x="671" y="528" type="line" smooth="yes"/>
      <point x="579" y="528"/>
      <point x="504" y="453"/>
      <point x="504" y="361" type="curve" smooth="yes"/>
      <point x="504" y="0" type="line"/>
      <point x="428" y="0" type="line"/>
      <point x="428" y="501" type="line"/>
      <point x="402" y="518"/>
      <point x="370" y="528"/>
      <point x="337" y="528" type="curve" smooth="yes"/>
      <point x="319" y="528" type="line" smooth="yes"/>
      <point x="227" y="528"/>
      <point x="152" y="453"/>
      <point x="152" y="361" type="curve" smooth="yes"/>
      <point x="152" y="0" type="line"/>
      <point x="76" y="0" type="line"/>
      <point x="76" y="528" type="line"/>
      <point x="17" y="542" type="line"/>
      <point x="17" y="561" type="line"/>
      <point x="152" y="528" type="line"/>
      <point x="152" y="489" type="line"/>
      <point x="200" y="535"/>
      <point x="263" y="561"/>
      <point x="330" y="561" type="curve"/>
      <point x="395" y="560"/>
      <point x="457" y="534"/>
      <point x="504" y="489" type="curve"/>
      <point x="552" y="535"/>
      <point x="615" y="561"/>
      <point x="681" y="561" type="curve"/>
      <point x="746" y="560"/>
      <point x="809" y="534"/>
      <point x="856" y="489" type="curve"/>
    </contour>
  </outline>
</glyph>
<glyph name="p" format="2">
  <advance width="622"/>
  <unicode hex="0070"/>
  <outline>
    <contour>
      <point x="326" y="561" type="line"/>
      <point x="463" y="561"/>
      <point x="575" y="449"/>
      <point x="575" y="312" type="curve" smooth="yes"/>
      <point x="575" y="249" type="line" smooth="yes"/>
      <point x="575" y="111"/>
      <point x="463" y="0"/>
      <point x="326" y="0" type="curve" smooth="yes"/>
      <point x="259" y="0"/>
      <point x="198" y="27"/>
      <point x="153" y="70" type="curve"/>
      <point x="153" y="-247" type="line"/>
      <point x="77" y="-247" type="line"/>
      <point x="77" y="528" type="line"/>
      <point x="18" y="528" type="line"/>
      <point x="18" y="561" type="line"/>
      <point x="153" y="561" type="line"/>
      <point x="153" y="491" type="line"/>
      <point x="198" y="534"/>
      <point x="259" y="561"/>
      <point x="326" y="561" type="curve"/>
    </contour>
    <contour>
      <point x="499" y="206" type="line"/>
      <point x="499" y="355" type="line" smooth="yes"/>
      <point x="499" y="450"/>
      <point x="421" y="528"/>
      <point x="326" y="528" type="curve" smooth="yes"/>
      <point x="230" y="528"/>
      <point x="153" y="450"/>
      <point x="153" y="355" type="curve" smooth="yes"/>
      <point x="153" y="206" type="line" smooth="yes"/>
      <point x="153" y="110"/>
      <point x="230" y="33"/>
      <point x="326" y="33" type="curve" smooth="yes"/>
      <point x="421" y="33"/>
      <point x="499" y="110"/>
      <point x="499" y="206" type="curve"/>
    </contour>
  </outline>
</glyph>
<glyph name="q" format="2">
  <advance width="622"/>
  <unicode hex="0071"/>
  <outline>
    <contour>
      <point x="297" y="561" type="line"/>
      <point x="364" y="561"/>
      <point x="425" y="534"/>
      <point x="470" y="491" type="curve"/>
      <point x="470" y="561" type="line"/>
      <point x="605" y="561" type="line"/>
      <point x="605" y="528" type="line"/>
      <point x="545" y="528" type="line"/>
      <point x="545" y="360"/>
      <point x="545.444" y="183.556"/>
      <point x="545.444" y="9.92599" type="curve" smooth="yes"/>
      <point x="545.444" y="-76.8888"/>
      <point x="545.333" y="-163"/>
      <point x="545" y="-247" type="curve"/>
      <point x="470" y="-247" type="line"/>
      <point x="470" y="70" type="line"/>
      <point x="425" y="27"/>
      <point x="364" y="0"/>
      <point x="297" y="0" type="curve" smooth="yes"/>
      <point x="159" y="0"/>
      <point x="48" y="111"/>
      <point x="48" y="249" type="curve" smooth="yes"/>
      <point x="48" y="312" type="line" smooth="yes"/>
      <point x="48" y="449"/>
      <point x="159" y="561"/>
      <point x="297" y="561" type="curve"/>
    </contour>
    <contour>
      <point x="124" y="355" type="line"/>
      <point x="124" y="206" type="line" smooth="yes"/>
      <point x="124" y="110"/>
      <point x="201" y="33"/>
      <point x="297" y="33" type="curve" smooth="yes"/>
      <point x="392" y="33"/>
      <point x="470" y="110"/>
      <point x="470" y="206" type="curve" smooth="yes"/>
      <point x="470" y="355" type="line" smooth="yes"/>
      <point x="470" y="450"/>
      <point x="392" y="528"/>
      <point x="297" y="528" type="curve" smooth="yes"/>
      <point x="201" y="528"/>
      <point x="124" y="450"/>
      <point x="124" y="355" type="curve"/>
    </contour>
  </outline>
</glyph>
<glyph name="t" format="2">
  <advance width="279"/>
  <unicode hex="0074"/>
  <outline>
    <contour>
      <point x="251" y="561" type="line"/>
      <point x="251" y="528" type="line"/>
      <point x="177" y="528" type="line"/>
      <point x="177" y="99" type="line"/>
      <point x="147" y="33" type="line"/>
      <point x="248" y="33" type="line"/>
      <point x="248" y="0" type="line"/>
      <point x="101" y="0" type="line"/>
      <point x="101" y="528" type="line"/>
      <point x="27" y="528" type="line"/>
      <point x="27" y="561" type="line"/>
      <point x="101" y="561" type="line"/>
      <point x="101" y="735" type="line"/>
      <point x="177" y="768" type="line"/>
      <point x="177" y="561" type="line"/>
      <point x="251" y="561" type="line"/>
    </contour>
  </outline>
</glyph>
<glyph name="v" format="2">
  <advance width="468"/>
  <unicode hex="0076"/>
  <outline>
    <contour>
      <point x="451" y="561" type="line"/>
      <point x="276" y="0" type="line"/>
      <point x="244" y="0" type="line"/>
      <point x="77" y="528" type="line"/>
      <point x="18" y="528" type="line"/>
      <point x="18" y="561" type="line"/>
      <point x="145" y="561" type="line"/>
      <point x="282" y="128" type="line"/>
      <point x="419" y="561" type="line"/>
      <point x="451" y="561" type="line"/>
    </contour>
  </outline>
</glyph>
<glyph name="w" format="2">
  <advance width="777"/>
  <unicode hex="0077"/>
  <outline>
    <contour>
      <point x="725" y="561" type="line"/>
      <point x="760" y="561" type="line"/>
      <point x="582" y="0" type="line"/>
      <point x="550" y="0" type="line"/>
      <point x="413" y="433" type="line"/>
      <point x="276" y="0" type="line"/>
      <point x="244" y="0" type="line"/>
      <point x="77" y="528" type="line"/>
      <point x="18" y="528" type="line"/>
      <point x="18" y="561" type="line"/>
      <point x="145" y="561" type="line"/>
      <point x="282" y="128" type="line"/>
      <point x="419" y="561" type="line"/>
      <point x="451" y="561" type="line"/>
      <point x="588" y="128" type="line"/>
    </contour>
  </outline>
</glyph>
<glyph name="x" format="2">
  <advance width="474"/>
  <unicode hex="0078"/>
  <outline>
    <contour>
      <point x="223" y="231" type="line"/>
      <point x="79" y="0" type="line"/>
      <point x="40" y="0" type="line"/>
      <point x="204" y="263" type="line"/>
      <point x="17" y="561" type="line"/>
      <point x="106" y="561" type="line"/>
      <point x="248" y="334" type="line"/>
      <point x="390" y="561" type="line"/>
      <point x="429" y="561" type="line"/>
      <point x="268" y="302" type="line"/>
      <point x="456" y="0" type="line"/>
      <point x="368" y="0" type="line"/>
    </contour>
  </outline>
</glyph>
<glyph name="y" format="2">
  <advance width="607"/>
  <unicode hex="0079"/>
  <outline>
    <contour>
      <point x="145" y="561" type="line"/>
      <point x="326" y="111" type="line"/>
      <point x="508" y="561" type="line"/>
      <point x="590" y="561" type="line"/>
      <point x="590" y="561"/>
      <point x="391" y="70"/>
      <point x="325" y="-94" type="curve" smooth="yes"/>
      <point x="288" y="-186"/>
      <point x="198" y="-247"/>
      <point x="98" y="-247" type="curve" smooth="yes"/>
      <point x="17" y="-247" type="line"/>
      <point x="17" y="-214" type="line"/>
      <point x="99" y="-214" type="line" smooth="yes"/>
      <point x="157" y="-214"/>
      <point x="209" y="-179"/>
      <point x="231" y="-126" type="curve" smooth="yes"/>
      <point x="250" y="-77"/>
      <point x="309" y="68"/>
      <point x="309" y="68" type="curve"/>
      <point x="245" y="111" type="line"/>
      <point x="76" y="528" type="line"/>
      <point x="17" y="528" type="line"/>
      <point x="17" y="561" type="line"/>
      <point x="145" y="561" type="line"/>
    </contour>
  </outline>
</glyph>
<glyph name="z" format="2">
  <advance width="474"/>
  <unicode hex="007A"/>
  <outline>
    <contour>
      <point x="456" y="33" type="line"/>
      <point x="456" y="0" type="line"/>
      <point x="18" y="0" type="line"/>
      <point x="18" y="33" type="line"/>
      <point x="364" y="528" type="line"/>
      <point x="37" y="528" type="line"/>
      <point x="37" y="561" type="line"/>
      <point x="456" y="561" type="line"/>
      <point x="456" y="528" type="line"/>
      <point x="110" y="33" type="line"/>
      <point x="456" y="33" type="line"/>
    </contour>
  </outline>
</glyph>
<glyph name="braceleft" format="2">
  <advance width="344"/>
  <unicode hex="007B"/>
  <outline>
    <contour>
      <point x="296" y="0" type="line"/>
      <point x="255" y="0" type="line"/>
      <point x="172" y="68" type="line" smooth="yes"/>
      <point x="148" y="87"/>
      <point x="134" y="117"/>
      <point x="134" y="148" type="curve" smooth="yes"/>
      <point x="134" y="253" type="line" smooth="yes"/>
      <point x="134" y="274"/>
      <point x="128" y="294"/>
      <point x="116" y="312" type="curve"/>
      <point x="113" y="317" type="line"/>
      <point x="98" y="338"/>
      <point x="74" y="351"/>
      <point x="48" y="351" type="curve"/>
      <point x="48" y="384" type="line"/>
      <point x="74" y="384"/>
      <point x="98" y="397"/>
      <point x="113" y="419" type="curve"/>
      <point x="116" y="424" type="line"/>
      <point x="128" y="441"/>
      <point x="134" y="461"/>
      <point x="134" y="482" type="curve" smooth="yes"/>
      <point x="134" y="587" type="line" smooth="yes"/>
      <point x="134" y="618"/>
      <point x="148" y="648"/>
      <point x="172" y="668" type="curve" smooth="yes"/>
      <point x="255" y="735" type="line"/>
      <point x="296" y="735" type="line"/>
      <point x="296" y="703" type="line"/>
      <point x="255" y="703" type="line"/>
      <point x="228" y="663" type="line" smooth="yes"/>
      <point x="216" y="646"/>
      <point x="210" y="625"/>
      <point x="210" y="605" type="curve" smooth="yes"/>
      <point x="210" y="481" type="line" smooth="yes"/>
      <point x="210" y="461"/>
      <point x="204" y="441"/>
      <point x="193" y="424" type="curve" smooth="yes"/>
      <point x="157" y="368" type="line"/>
      <point x="193" y="311" type="line" smooth="yes"/>
      <point x="204" y="294"/>
      <point x="210" y="275"/>
      <point x="210" y="254" type="curve" smooth="yes"/>
      <point x="210" y="131" type="line" smooth="yes"/>
      <point x="210" y="110"/>
      <point x="216" y="90"/>
      <point x="228" y="72" type="curve" smooth="yes"/>
      <point x="255" y="33" type="line"/>
      <point x="296" y="33" type="line"/>
      <point x="296" y="0" type="line"/>
    </contour>
  </outline>
</glyph>
<glyph name="bar" format="2">
  <advance width="170"/>
  <unicode hex="007C"/>
  <outline>
    <contour>
      <point x="123" y="736" type="line"/>
      <point x="123" y="0" type="line"/>
      <point x="47" y="0" type="line"/>
      <point x="47" y="736" type="line"/>
      <point x="123" y="736" type="line"/>
    </contour>
  </outline>
</glyph>
<glyph name="braceright" format="2">
  <advance width="344"/>
  <unicode hex="007D"/>
  <outline>
    <contour>
      <point x="90" y="0" type="line"/>
      <point x="48" y="0" type="line"/>
      <point x="48" y="33" type="line"/>
      <point x="90" y="33" type="line"/>
      <point x="116" y="72" type="line" smooth="yes"/>
      <point x="128" y="90"/>
      <point x="134" y="110"/>
      <point x="134" y="131" type="curve" smooth="yes"/>
      <point x="134" y="254" type="line" smooth="yes"/>
      <point x="134" y="275"/>
      <point x="140" y="294"/>
      <point x="151" y="311" type="curve" smooth="yes"/>
      <point x="187" y="368" type="line"/>
      <point x="151" y="424" type="line" smooth="yes"/>
      <point x="140" y="441"/>
      <point x="134" y="461"/>
      <point x="134" y="481" type="curve" smooth="yes"/>
      <point x="134" y="605" type="line" smooth="yes"/>
      <point x="134" y="625"/>
      <point x="128" y="646"/>
      <point x="116" y="663" type="curve"/>
      <point x="90" y="703" type="line"/>
      <point x="48" y="703" type="line"/>
      <point x="48" y="735" type="line"/>
      <point x="90" y="735" type="line"/>
      <point x="172" y="668" type="line" smooth="yes"/>
      <point x="196" y="648"/>
      <point x="210" y="618"/>
      <point x="210" y="587" type="curve" smooth="yes"/>
      <point x="210" y="482" type="line" smooth="yes"/>
      <point x="210" y="461"/>
      <point x="216" y="441"/>
      <point x="228" y="424" type="curve"/>
      <point x="231" y="419" type="line"/>
      <point x="246" y="397"/>
      <point x="270" y="384"/>
      <point x="296" y="384" type="curve"/>
      <point x="296" y="351" type="line"/>
      <point x="270" y="351"/>
      <point x="246" y="338"/>
      <point x="231" y="317" type="curve"/>
      <point x="228" y="312" type="line"/>
      <point x="216" y="294"/>
      <point x="210" y="274"/>
      <point x="210" y="253" type="curve" smooth="yes"/>
      <point x="210" y="148" type="line" smooth="yes"/>
      <point x="210" y="117"/>
      <point x="196" y="87"/>
      <point x="172" y="68" type="curve" smooth="yes"/>
    </contour>
  </outline>
</glyph>
<glyph name="asciitilde" format="2">
  <advance width="497"/>
  <unicode hex="007E"/>
  <outline>
    <contour>
      <point x="96" y="346" type="line"/>
      <point x="66" y="317" type="line"/>
      <point x="48" y="335" type="line"/>
      <point x="78" y="365" type="line" smooth="yes"/>
      <point x="108" y="395"/>
      <point x="148" y="411"/>
      <point x="188" y="411" type="curve" smooth="yes"/>
      <point x="204" y="411"/>
      <point x="219" y="409"/>
      <point x="234" y="404" type="curve" smooth="yes"/>
      <point x="335" y="373" type="line" smooth="yes"/>
      <point x="341" y="371"/>
      <point x="348" y="370"/>
      <point x="354" y="370" type="curve" smooth="yes"/>
      <point x="372" y="370"/>
      <point x="389" y="377"/>
      <point x="401" y="389" type="curve" smooth="yes"/>
      <point x="430" y="419" type="line"/>
      <point x="449" y="400" type="line"/>
      <point x="419" y="370" type="line" smooth="yes"/>
      <point x="389" y="341"/>
      <point x="348" y="325"/>
      <point x="307" y="325" type="curve" smooth="yes"/>
      <point x="292" y="325"/>
      <point x="278" y="327"/>
      <point x="263" y="331" type="curve"/>
      <point x="162" y="362" type="line" smooth="yes"/>
      <point x="155" y="364"/>
      <point x="148" y="365"/>
      <point x="142" y="365" type="curve" smooth="yes"/>
      <point x="125" y="365"/>
      <point x="108" y="358"/>
      <point x="96" y="346" type="curve"/>
    </contour>
  </outline>
</glyph>
<glyph name="exclamdown" format="2">
  <advance width="174"/>
  <unicode hex="00A1"/>
  <outline>
    <contour>
      <point x="47" y="-135" type="line"/>
      <point x="62" y="433" type="line"/>
      <point x="111" y="433" type="line"/>
      <point x="126" y="-135" type="line"/>
      <point x="47" y="-135" type="line"/>
    </contour>
    <contour>
      <point x="47" y="561" type="line"/>
      <point x="47" y="582"/>
      <point x="65" y="600"/>
      <point x="87" y="600" type="curve" smooth="yes"/>
      <point x="109" y="600"/>
      <point x="126" y="582"/>
      <point x="126" y="561" type="curve" smooth="yes"/>
      <point x="126" y="539"/>
      <point x="109" y="521"/>
      <point x="87" y="521" type="curve" smooth="yes"/>
      <point x="65" y="521"/>
      <point x="47" y="539"/>
      <point x="47" y="561" type="curve"/>
    </contour>
  </outline>
</glyph>
<glyph name="cent" format="2">
  <advance width="560"/>
  <unicode hex="00A2"/>
  <outline>
    <contour>
      <point x="259" y="0" type="line"/>
      <point x="259" y="90" type="line"/>
      <point x="139" y="109"/>
      <point x="48" y="212"/>
      <point x="48" y="336" type="curve" smooth="yes"/>
      <point x="48" y="399" type="line" smooth="yes"/>
      <point x="48" y="524"/>
      <point x="139" y="627"/>
      <point x="259" y="645" type="curve"/>
      <point x="259" y="736" type="line"/>
      <point x="334" y="736" type="line"/>
      <point x="334" y="645" type="line"/>
      <point x="411" y="633"/>
      <point x="476" y="587"/>
      <point x="513" y="522" type="curve"/>
      <point x="460" y="497" type="line"/>
      <point x="437" y="566"/>
      <point x="373" y="615"/>
      <point x="297" y="615" type="curve" smooth="yes"/>
      <point x="201" y="615"/>
      <point x="124" y="538"/>
      <point x="124" y="442" type="curve" smooth="yes"/>
      <point x="124" y="293" type="line" smooth="yes"/>
      <point x="124" y="198"/>
      <point x="201" y="120"/>
      <point x="297" y="120" type="curve" smooth="yes"/>
      <point x="373" y="120"/>
      <point x="437" y="170"/>
      <point x="460" y="238" type="curve"/>
      <point x="513" y="214" type="line"/>
      <point x="476" y="149"/>
      <point x="411" y="102"/>
      <point x="334" y="90" type="curve"/>
      <point x="334" y="0" type="line"/>
      <point x="259" y="0" type="line"/>
    </contour>
  </outline>
</glyph>
<glyph name="sterling" format="2">
  <advance width="696"/>
  <unicode hex="00A3"/>
  <outline>
    <contour>
      <point x="233" y="33" type="line"/>
      <point x="648" y="33" type="line"/>
      <point x="648" y="0" type="line"/>
      <point x="48" y="0" type="line"/>
      <point x="48" y="33" type="line"/>
      <point x="109" y="33" type="line" smooth="yes"/>
      <point x="189" y="33"/>
      <point x="258" y="106"/>
      <point x="258" y="202" type="curve" smooth="yes"/>
      <point x="258" y="218"/>
      <point x="256" y="232"/>
      <point x="253" y="244" type="curve" smooth="yes"/>
      <point x="226" y="351" type="line"/>
      <point x="48" y="351" type="line"/>
      <point x="48" y="384" type="line"/>
      <point x="218" y="384" type="line"/>
      <point x="193" y="484" type="line"/>
      <point x="189" y="502"/>
      <point x="186" y="518"/>
      <point x="186" y="533" type="curve" smooth="yes"/>
      <point x="186" y="642"/>
      <point x="284" y="735"/>
      <point x="411" y="735" type="curve" smooth="yes"/>
      <point x="535" y="735"/>
      <point x="635" y="645"/>
      <point x="635" y="533" type="curve" smooth="yes"/>
      <point x="635" y="469" type="line"/>
      <point x="559" y="469" type="line"/>
      <point x="559" y="533" type="line" smooth="yes"/>
      <point x="559" y="626"/>
      <point x="493" y="703"/>
      <point x="411" y="703" type="curve" smooth="yes"/>
      <point x="331" y="703"/>
      <point x="262" y="629"/>
      <point x="262" y="533" type="curve" smooth="yes"/>
      <point x="262" y="518"/>
      <point x="264" y="504"/>
      <point x="267" y="491" type="curve" smooth="yes"/>
      <point x="294" y="384" type="line"/>
      <point x="450" y="384" type="line"/>
      <point x="450" y="351" type="line"/>
      <point x="302" y="351" type="line"/>
      <point x="310" y="318"/>
      <point x="319" y="285"/>
      <point x="327" y="252" type="curve" smooth="yes"/>
      <point x="331" y="234"/>
      <point x="334" y="217"/>
      <point x="334" y="202" type="curve"/>
      <point x="333" y="141"/>
      <point x="294" y="76"/>
      <point x="233" y="33" type="curve"/>
    </contour>
  </outline>
</glyph>
<glyph name="currency" format="2">
  <advance width="474"/>
  <unicode hex="00A4"/>
  <outline>
    <contour>
      <point x="372" y="274" type="line"/>
      <point x="427" y="219" type="line"/>
      <point x="388" y="181" type="line"/>
      <point x="328" y="241" type="line"/>
      <point x="301" y="227"/>
      <point x="270" y="219"/>
      <point x="237" y="219" type="curve" smooth="yes"/>
      <point x="204" y="219"/>
      <point x="173" y="227"/>
      <point x="146" y="241" type="curve"/>
      <point x="85" y="181" type="line"/>
      <point x="47" y="219" type="line"/>
      <point x="102" y="274" type="line"/>
      <point x="77" y="300"/>
      <point x="62" y="334"/>
      <point x="62" y="371" type="curve" smooth="yes"/>
      <point x="62" y="407"/>
      <point x="77" y="441"/>
      <point x="102" y="467" type="curve"/>
      <point x="47" y="522" type="line"/>
      <point x="86" y="561" type="line"/>
      <point x="146" y="500" type="line"/>
      <point x="173" y="514"/>
      <point x="204" y="522"/>
      <point x="237" y="522" type="curve" smooth="yes"/>
      <point x="270" y="522"/>
      <point x="301" y="514"/>
      <point x="328" y="500" type="curve"/>
      <point x="389" y="561" type="line"/>
      <point x="427" y="522" type="line"/>
      <point x="372" y="467" type="line"/>
      <point x="397" y="441"/>
      <point x="412" y="407"/>
      <point x="412" y="371" type="curve" smooth="yes"/>
      <point x="412" y="334"/>
      <point x="397" y="300"/>
      <point x="372" y="274" type="curve"/>
    </contour>
    <contour>
      <point x="237" y="489" type="line"/>
      <point x="180" y="489"/>
      <point x="134" y="436"/>
      <point x="134" y="371" type="curve" smooth="yes"/>
      <point x="134" y="305"/>
      <point x="180" y="252"/>
      <point x="237" y="252" type="curve" smooth="yes"/>
      <point x="294" y="252"/>
      <point x="339" y="305"/>
      <point x="339" y="371" type="curve" smooth="yes"/>
      <point x="339" y="436"/>
      <point x="294" y="489"/>
      <point x="237" y="489" type="curve"/>
    </contour>
  </outline>
</glyph>
<glyph name="yen" format="2">
  <advance width="637"/>
  <unicode hex="00A5"/>
  <outline>
    <contour>
      <point x="131" y="224" type="line"/>
      <point x="131" y="257" type="line"/>
      <point x="281" y="257" type="line"/>
      <point x="281" y="294" type="line"/>
      <point x="48" y="735" type="line"/>
      <point x="133" y="735" type="line"/>
      <point x="343" y="338" type="line"/>
      <point x="552" y="735" type="line"/>
      <point x="589" y="735" type="line"/>
      <point x="357" y="294" type="line"/>
      <point x="357" y="257" type="line"/>
      <point x="506" y="257" type="line"/>
      <point x="506" y="224" type="line"/>
      <point x="357" y="224" type="line"/>
      <point x="357" y="82" type="line"/>
      <point x="506" y="82" type="line"/>
      <point x="506" y="49" type="line"/>
      <point x="357" y="49" type="line"/>
      <point x="357" y="0" type="line"/>
      <point x="281" y="0" type="line"/>
      <point x="281" y="49" type="line"/>
      <point x="131" y="49" type="line"/>
      <point x="131" y="82" type="line"/>
      <point x="281" y="82" type="line"/>
      <point x="281" y="224" type="line"/>
      <point x="131" y="224" type="line"/>
    </contour>
  </outline>
</glyph>
<glyph name="brokenbar" format="2">
  <advance width="170"/>
  <unicode hex="00A6"/>
  <outline>
    <contour>
      <point x="47" y="277" type="line"/>
      <point x="123" y="277" type="line"/>
      <point x="123" y="0" type="line"/>
      <point x="47" y="0" type="line"/>
      <point x="47" y="277" type="line"/>
    </contour>
    <contour>
      <point x="123" y="736" type="line"/>
      <point x="123" y="459" type="line"/>
      <point x="47" y="459" type="line"/>
      <point x="47" y="736" type="line"/>
      <point x="123" y="736" type="line"/>
    </contour>
  </outline>
</glyph>
<glyph name="section" format="2">
  <advance width="500"/>
  <unicode hex="00A7"/>
  <outline>
    <contour>
      <point x="236" y="561" type="line"/>
      <point x="377" y="455" type="line" smooth="yes"/>
      <point x="409.986" y="429.976"/>
      <point x="427.124" y="394.277"/>
      <point x="427.124" y="358.391" type="curve" smooth="yes"/>
      <point x="427.124" y="331.178"/>
      <point x="417.27" y="303.857"/>
      <point x="397" y="281" type="curve" smooth="yes"/>
      <point x="369.56" y="250.019"/>
      <point x="328.8" y="233.142"/>
      <point x="287.898" y="233.142" type="curve" smooth="yes"/>
      <point x="282.592" y="233.142"/>
      <point x="277.283" y="233.426"/>
      <point x="272" y="234" type="curve"/>
      <point x="287" y="222" type="line" smooth="yes"/>
      <point x="320.165" y="196.84"/>
      <point x="337.309" y="160.89"/>
      <point x="337.309" y="124.807" type="curve" smooth="yes"/>
      <point x="337.309" y="97.7875"/>
      <point x="327.696" y="70.6937"/>
      <point x="308" y="48" type="curve" smooth="yes"/>
      <point x="280" y="16"/>
      <point x="239" y="0"/>
      <point x="197" y="0" type="curve" smooth="yes"/>
      <point x="166" y="0"/>
      <point x="133" y="9"/>
      <point x="107" y="29" type="curve" smooth="yes"/>
      <point x="74" y="55" type="line"/>
      <point x="89" y="71" type="line"/>
      <point x="135" y="37" type="line" smooth="yes"/>
      <point x="154" y="23"/>
      <point x="177" y="16"/>
      <point x="199" y="16" type="curve" smooth="yes"/>
      <point x="229" y="16"/>
      <point x="259" y="28"/>
      <point x="279" y="51" type="curve" smooth="yes"/>
      <point x="293.062" y="67.1925"/>
      <point x="299.861" y="86.4718"/>
      <point x="299.861" y="105.666" type="curve" smooth="yes"/>
      <point x="299.861" y="131.515"/>
      <point x="287.529" y="157.21"/>
      <point x="264" y="175" type="curve" smooth="yes"/>
      <point x="123" y="281" type="line" smooth="yes"/>
      <point x="90.0135" y="305.455"/>
      <point x="72.8764" y="340.908"/>
      <point x="72.8764" y="376.873" type="curve" smooth="yes"/>
      <point x="72.8764" y="404.145"/>
      <point x="82.7304" y="431.712"/>
      <point x="103" y="455" type="curve" smooth="yes"/>
      <point x="130.892" y="486.491"/>
      <point x="172.547" y="502.601"/>
      <point x="214.124" y="502.601" type="curve" smooth="yes"/>
      <point x="218.757" y="502.601"/>
      <point x="223.388" y="502.401"/>
      <point x="228" y="502" type="curve"/>
      <point x="213" y="513" type="line" smooth="yes"/>
      <point x="179.835" y="538.16"/>
      <point x="162.691" y="574.11"/>
      <point x="162.691" y="610.193" type="curve" smooth="yes"/>
      <point x="162.691" y="637.212"/>
      <point x="172.304" y="664.306"/>
      <point x="192" y="687" type="curve" smooth="yes"/>
      <point x="220" y="719"/>
      <point x="261" y="735"/>
      <point x="303" y="735" type="curve" smooth="yes"/>
      <point x="335" y="735"/>
      <point x="367" y="726"/>
      <point x="393" y="706" type="curve"/>
      <point x="400" y="701" type="line"/>
      <point x="384" y="684" type="line"/>
      <point x="365" y="699" type="line" smooth="yes"/>
      <point x="347" y="713"/>
      <point x="324" y="720"/>
      <point x="302" y="720" type="curve" smooth="yes"/>
      <point x="271" y="720"/>
      <point x="241" y="708"/>
      <point x="221" y="684" type="curve" smooth="yes"/>
      <point x="206.938" y="667.808"/>
      <point x="200.139" y="648.71"/>
      <point x="200.139" y="629.724" type="curve" smooth="yes"/>
      <point x="200.139" y="604.156"/>
      <point x="212.471" y="578.79"/>
      <point x="236" y="561" type="curve"/>
    </contour>
    <contour>
      <point x="368" y="284" type="line"/>
      <point x="382.062" y="300.192"/>
      <point x="388.861" y="319.472"/>
      <point x="388.861" y="338.666" type="curve" smooth="yes"/>
      <point x="388.861" y="364.515"/>
      <point x="376.529" y="390.21"/>
      <point x="353" y="408" type="curve" smooth="yes"/>
      <point x="276" y="466" type="line" smooth="yes"/>
      <point x="257" y="480"/>
      <point x="234" y="487"/>
      <point x="212" y="487" type="curve" smooth="yes"/>
      <point x="181" y="487"/>
      <point x="151" y="475"/>
      <point x="132" y="452" type="curve" smooth="yes"/>
      <point x="117.938" y="435.381"/>
      <point x="111.139" y="416.039"/>
      <point x="111.139" y="396.913" type="curve" smooth="yes"/>
      <point x="111.139" y="371.155"/>
      <point x="123.471" y="345.79"/>
      <point x="147" y="328" type="curve" smooth="yes"/>
      <point x="224" y="270" type="line" smooth="yes"/>
      <point x="243" y="256"/>
      <point x="266" y="249"/>
      <point x="289" y="249" type="curve" smooth="yes"/>
      <point x="319" y="249"/>
      <point x="349" y="261"/>
      <point x="368" y="284" type="curve"/>
    </contour>
  </outline>
</glyph>
<glyph name="dieresis" format="2">
  <advance width="159"/>
  <unicode hex="00A8"/>
  <outline>
    <contour>
      <point x="33" y="796" type="line"/>
      <point x="52" y="796"/>
      <point x="66" y="781"/>
      <point x="66" y="763" type="curve" smooth="yes"/>
      <point x="66" y="745"/>
      <point x="52" y="730"/>
      <point x="33" y="730" type="curve" smooth="yes"/>
      <point x="15" y="730"/>
      <point x="0" y="745"/>
      <point x="0" y="763" type="curve" smooth="yes"/>
      <point x="0" y="781"/>
      <point x="15" y="796"/>
      <point x="33" y="796" type="curve"/>
    </contour>
    <contour>
      <point x="126" y="796" type="line"/>
      <point x="144" y="796"/>
      <point x="159" y="781"/>
      <point x="159" y="763" type="curve" smooth="yes"/>
      <point x="159" y="745"/>
      <point x="144" y="730"/>
      <point x="126" y="730" type="curve" smooth="yes"/>
      <point x="107" y="730"/>
      <point x="93" y="745"/>
      <point x="93" y="763" type="curve" smooth="yes"/>
      <point x="93" y="781"/>
      <point x="107" y="796"/>
      <point x="126" y="796" type="curve"/>
    </contour>
  </outline>
</glyph>
<glyph name="copyright" format="2">
  <advance width="838"/>
  <unicode hex="00A9"/>
  <outline>
    <contour>
      <point x="415" y="531" type="line"/>
      <point x="352" y="531"/>
      <point x="301" y="480"/>
      <point x="301" y="418" type="curve" smooth="yes"/>
      <point x="301" y="319" type="line" smooth="yes"/>
      <point x="301" y="257"/>
      <point x="352" y="206"/>
      <point x="415" y="206" type="curve" smooth="yes"/>
      <point x="465" y="206"/>
      <point x="508" y="238"/>
      <point x="523" y="283" type="curve"/>
      <point x="558" y="267" type="line"/>
      <point x="529" y="218"/>
      <point x="476" y="184"/>
      <point x="415" y="184" type="curve" smooth="yes"/>
      <point x="325" y="184"/>
      <point x="252" y="257"/>
      <point x="252" y="348" type="curve" smooth="yes"/>
      <point x="252" y="389" type="line" smooth="yes"/>
      <point x="252" y="480"/>
      <point x="325" y="553"/>
      <point x="415" y="553" type="curve" smooth="yes"/>
      <point x="476" y="553"/>
      <point x="529" y="519"/>
      <point x="558" y="470" type="curve"/>
      <point x="523" y="454" type="line"/>
      <point x="508" y="499"/>
      <point x="465" y="531"/>
      <point x="415" y="531" type="curve"/>
    </contour>
    <contour>
      <point x="47" y="370" type="line"/>
      <point x="47" y="569"/>
      <point x="209" y="739"/>
      <point x="419" y="739" type="curve" smooth="yes"/>
      <point x="628" y="739"/>
      <point x="790" y="569"/>
      <point x="790" y="370" type="curve" smooth="yes"/>
      <point x="790" y="170"/>
      <point x="629" y="0"/>
      <point x="419" y="0" type="curve" smooth="yes"/>
      <point x="209" y="0"/>
      <point x="47" y="171"/>
      <point x="47" y="370" type="curve"/>
    </contour>
    <contour>
      <point x="419" y="30" type="line"/>
      <point x="612" y="30"/>
      <point x="760" y="186"/>
      <point x="760" y="370" type="curve" smooth="yes"/>
      <point x="760" y="553"/>
      <point x="611" y="710"/>
      <point x="419" y="710" type="curve" smooth="yes"/>
      <point x="226" y="710"/>
      <point x="77" y="553"/>
      <point x="77" y="370" type="curve" smooth="yes"/>
      <point x="77" y="186"/>
      <point x="226" y="30"/>
      <point x="419" y="30" type="curve"/>
    </contour>
  </outline>
</glyph>
<glyph name="ordfeminine" format="2">
  <advance width="350"/>
  <unicode hex="00AA"/>
  <outline>
    <contour>
      <point x="76" y="719" type="line"/>
      <point x="184" y="735" type="line" smooth="yes"/>
      <point x="189.041" y="735.72"/>
      <point x="194.037" y="736.069"/>
      <point x="198.963" y="736.069" type="curve" smooth="yes"/>
      <point x="255.603" y="736.069"/>
      <point x="303" y="689.959"/>
      <point x="303" y="632" type="curve" smooth="yes"/>
      <point x="303" y="408" type="line"/>
      <point x="285" y="397" type="line"/>
      <point x="274" y="436" type="line"/>
      <point x="252" y="412"/>
      <point x="222" y="397"/>
      <point x="187" y="397" type="curve" smooth="yes"/>
      <point x="163" y="397" type="line" smooth="yes"/>
      <point x="99" y="397"/>
      <point x="48" y="449"/>
      <point x="48" y="513" type="curve" smooth="yes"/>
      <point x="48" y="577"/>
      <point x="99" y="628"/>
      <point x="163" y="628" type="curve" smooth="yes"/>
      <point x="187" y="628" type="line" smooth="yes"/>
      <point x="214" y="628"/>
      <point x="238" y="619"/>
      <point x="257" y="605" type="curve"/>
      <point x="257" y="651" type="line" smooth="yes"/>
      <point x="257" y="687.56"/>
      <point x="228.597" y="715.766"/>
      <point x="193.933" y="715.766" type="curve" smooth="yes"/>
      <point x="190.671" y="715.766"/>
      <point x="187.354" y="715.516"/>
      <point x="184" y="715" type="curve" smooth="yes"/>
      <point x="120" y="706" type="line"/>
      <point x="120" y="655" type="line"/>
      <point x="76" y="655" type="line"/>
      <point x="76" y="719" type="line"/>
    </contour>
    <contour>
      <point x="175" y="417" type="line"/>
      <point x="221" y="417"/>
      <point x="257" y="454"/>
      <point x="257" y="499" type="curve" smooth="yes"/>
      <point x="257" y="526" type="line" smooth="yes"/>
      <point x="257" y="572"/>
      <point x="221" y="609"/>
      <point x="175" y="609" type="curve" smooth="yes"/>
      <point x="130" y="609"/>
      <point x="93" y="572"/>
      <point x="93" y="526" type="curve" smooth="yes"/>
      <point x="93" y="499" type="line" smooth="yes"/>
      <point x="93" y="454"/>
      <point x="130" y="417"/>
      <point x="175" y="417" type="curve"/>
    </contour>
  </outline>
</glyph>
<glyph name="guillemotleft" format="2">
  <advance width="472"/>
  <unicode hex="00AB"/>
  <outline>
    <contour>
      <point x="48" y="385" type="line"/>
      <point x="184" y="578" type="line"/>
      <point x="198" y="569" type="line"/>
      <point x="102" y="361" type="line"/>
      <point x="198" y="153" type="line"/>
      <point x="184" y="145" type="line"/>
      <point x="48" y="337" type="line"/>
      <point x="48" y="385" type="line"/>
    </contour>
    <contour>
      <point x="410" y="578" type="line"/>
      <point x="424" y="569" type="line"/>
      <point x="328" y="361" type="line"/>
      <point x="424" y="153" type="line"/>
      <point x="410" y="145" type="line"/>
      <point x="274" y="337" type="line"/>
      <point x="274" y="385" type="line"/>
    </contour>
  </outline>
</glyph>
<glyph name="logicalnot" format="2">
  <advance width="424"/>
  <unicode hex="00AC"/>
  <outline>
    <contour>
      <point x="377" y="378" type="line"/>
      <point x="377" y="223" type="line"/>
      <point x="301" y="223" type="line"/>
      <point x="301" y="345" type="line"/>
      <point x="47" y="345" type="line"/>
      <point x="47" y="378" type="line"/>
      <point x="377" y="378" type="line"/>
    </contour>
  </outline>
</glyph>
<glyph name="uni00AD" format="2">
  <advance width="505"/>
  <unicode hex="00AD"/>
  <outline>
    <contour>
      <point x="0" y="345" type="line"/>
      <point x="0" y="378" type="line"/>
      <point x="505" y="378" type="line"/>
      <point x="505" y="345" type="line"/>
      <point x="0" y="345" type="line"/>
    </contour>
  </outline>
</glyph>
<glyph name="registered" format="2">
  <advance width="415"/>
  <unicode hex="00AE"/>
  <outline>
    <contour>
      <point x="48" y="579" type="line"/>
      <point x="48" y="665"/>
      <point x="117" y="738"/>
      <point x="208" y="738" type="curve" smooth="yes"/>
      <point x="298" y="738"/>
      <point x="367" y="665"/>
      <point x="367" y="579" type="curve" smooth="yes"/>
      <point x="367" y="494"/>
      <point x="298" y="421"/>
      <point x="208" y="421" type="curve" smooth="yes"/>
      <point x="117" y="421"/>
      <point x="48" y="494"/>
      <point x="48" y="579" type="curve"/>
    </contour>
    <contour>
      <point x="270" y="495" type="line"/>
      <point x="288" y="495" type="line"/>
      <point x="288" y="487" type="line"/>
      <point x="264" y="487" type="line" smooth="yes"/>
      <point x="250" y="487"/>
      <point x="237" y="494"/>
      <point x="231" y="507" type="curve"/>
      <point x="200" y="565" type="line"/>
      <point x="197" y="571"/>
      <point x="190" y="575"/>
      <point x="183" y="575" type="curve" smooth="yes"/>
      <point x="175" y="575" type="line"/>
      <point x="175" y="487" type="line"/>
      <point x="156" y="487" type="line"/>
      <point x="156" y="662" type="line"/>
      <point x="141" y="662" type="line"/>
      <point x="141" y="671" type="line"/>
      <point x="216" y="671" type="line" smooth="yes"/>
      <point x="248" y="671"/>
      <point x="275" y="644"/>
      <point x="275" y="612" type="curve" smooth="yes"/>
      <point x="275" y="583"/>
      <point x="254" y="559"/>
      <point x="227" y="554" type="curve"/>
      <point x="253" y="505" type="line" smooth="yes"/>
      <point x="256" y="499"/>
      <point x="263" y="495"/>
      <point x="270" y="495" type="curve"/>
    </contour>
    <contour>
      <point x="208" y="439" type="line"/>
      <point x="287" y="439"/>
      <point x="349" y="503"/>
      <point x="349" y="579" type="curve" smooth="yes"/>
      <point x="349" y="655"/>
      <point x="287" y="720"/>
      <point x="208" y="720" type="curve" smooth="yes"/>
      <point x="128" y="720"/>
      <point x="66" y="655"/>
      <point x="66" y="579" type="curve" smooth="yes"/>
      <point x="66" y="504"/>
      <point x="128" y="439"/>
      <point x="208" y="439" type="curve"/>
    </contour>
    <contour>
      <point x="175" y="583" type="line"/>
      <point x="189" y="583" type="line" smooth="yes"/>
      <point x="203" y="583"/>
      <point x="215" y="575"/>
      <point x="222" y="564" type="curve"/>
      <point x="242" y="571"/>
      <point x="256" y="589"/>
      <point x="256" y="612" type="curve" smooth="yes"/>
      <point x="256" y="640"/>
      <point x="233" y="662"/>
      <point x="205" y="662" type="curve" smooth="yes"/>
      <point x="175" y="662" type="line"/>
      <point x="175" y="583" type="line"/>
    </contour>
  </outline>
</glyph>
<glyph name="degree" format="2">
  <advance width="276"/>
  <unicode hex="00B0"/>
  <outline>
    <contour>
      <point x="138" y="554" type="line"/>
      <point x="88" y="554"/>
      <point x="48" y="595"/>
      <point x="48" y="645" type="curve" smooth="yes"/>
      <point x="48" y="695"/>
      <point x="88" y="736"/>
      <point x="138" y="736" type="curve" smooth="yes"/>
      <point x="188" y="736"/>
      <point x="229" y="695"/>
      <point x="229" y="645" type="curve" smooth="yes"/>
      <point x="229" y="595"/>
      <point x="188" y="555"/>
      <point x="138" y="554" type="curve"/>
    </contour>
    <contour>
      <point x="138" y="704" type="line"/>
      <point x="105" y="704"/>
      <point x="79" y="678"/>
      <point x="79" y="645" type="curve" smooth="yes"/>
      <point x="79" y="612"/>
      <point x="105" y="586"/>
      <point x="138" y="586" type="curve" smooth="yes"/>
      <point x="171" y="586"/>
      <point x="198" y="612"/>
      <point x="198" y="645" type="curve" smooth="yes"/>
      <point x="198" y="678"/>
      <point x="171" y="704"/>
      <point x="138" y="704" type="curve"/>
    </contour>
  </outline>
</glyph>
<glyph name="plusminus" format="2">
  <advance width="599"/>
  <unicode hex="00B1"/>
  <outline>
    <contour>
      <point x="47" y="0" type="line"/>
      <point x="47" y="33" type="line"/>
      <point x="552" y="33" type="line"/>
      <point x="552" y="0" type="line"/>
      <point x="47" y="0" type="line"/>
    </contour>
    <contour>
      <point x="552" y="378" type="line"/>
      <point x="552" y="345" type="line"/>
      <point x="337" y="345" type="line"/>
      <point x="337" y="131" type="line"/>
      <point x="261" y="131" type="line"/>
      <point x="261" y="345" type="line"/>
      <point x="47" y="345" type="line"/>
      <point x="47" y="378" type="line"/>
      <point x="261" y="378" type="line"/>
      <point x="261" y="592" type="line"/>
      <point x="337" y="592" type="line"/>
      <point x="337" y="378" type="line"/>
      <point x="552" y="378" type="line"/>
    </contour>
  </outline>
</glyph>
<glyph name="twosuperior" format="2">
  <advance width="410"/>
  <unicode hex="00B2"/>
  <outline>
    <contour>
      <point x="47" y="716" type="line"/>
      <point x="47" y="735" type="line"/>
      <point x="272" y="735" type="line" smooth="yes"/>
      <point x="322" y="735"/>
      <point x="362" y="695"/>
      <point x="362" y="645" type="curve" smooth="yes"/>
      <point x="362" y="546" type="line"/>
      <point x="118" y="459" type="line" smooth="yes"/>
      <point x="103" y="454"/>
      <point x="93" y="439"/>
      <point x="93" y="424" type="curve" smooth="yes"/>
      <point x="93" y="314" type="line"/>
      <point x="362" y="314" type="line"/>
      <point x="362" y="294" type="line"/>
      <point x="47" y="294" type="line"/>
      <point x="47" y="422" type="line" smooth="yes"/>
      <point x="47" y="459"/>
      <point x="71" y="492"/>
      <point x="105" y="504" type="curve" smooth="yes"/>
      <point x="316" y="580" type="line"/>
      <point x="316" y="656" type="line" smooth="yes"/>
      <point x="316" y="689"/>
      <point x="290" y="716"/>
      <point x="256" y="716" type="curve" smooth="yes"/>
      <point x="47" y="716" type="line"/>
    </contour>
  </outline>
</glyph>
<glyph name="threesuperior" format="2">
  <advance width="410"/>
  <unicode hex="00B3"/>
  <outline>
    <contour>
      <point x="243" y="294" type="line"/>
      <point x="48" y="294" type="line"/>
      <point x="48" y="314" type="line"/>
      <point x="243" y="314" type="line" smooth="yes"/>
      <point x="284" y="314"/>
      <point x="317" y="353"/>
      <point x="317" y="400" type="curve" smooth="yes"/>
      <point x="317" y="419" type="line" smooth="yes"/>
      <point x="317" y="466"/>
      <point x="284" y="505"/>
      <point x="243" y="505" type="curve" smooth="yes"/>
      <point x="159" y="505" type="line"/>
      <point x="159" y="525" type="line"/>
      <point x="243" y="525" type="line" smooth="yes"/>
      <point x="284" y="525"/>
      <point x="317" y="563"/>
      <point x="317" y="611" type="curve" smooth="yes"/>
      <point x="317" y="630" type="line" smooth="yes"/>
      <point x="317" y="677"/>
      <point x="284" y="716"/>
      <point x="243" y="716" type="curve" smooth="yes"/>
      <point x="48" y="716" type="line"/>
      <point x="48" y="736" type="line"/>
      <point x="243" y="736" type="line" smooth="yes"/>
      <point x="309" y="736"/>
      <point x="362" y="688"/>
      <point x="362" y="630" type="curve" smooth="yes"/>
      <point x="362" y="611" type="line" smooth="yes"/>
      <point x="362" y="571"/>
      <point x="333" y="534"/>
      <point x="294" y="515" type="curve"/>
      <point x="333" y="495"/>
      <point x="362" y="458"/>
      <point x="362" y="419" type="curve" smooth="yes"/>
      <point x="362" y="400" type="line" smooth="yes"/>
      <point x="362" y="342"/>
      <point x="309" y="294"/>
      <point x="243" y="294" type="curve"/>
    </contour>
  </outline>
</glyph>
<glyph name="acute" format="2">
  <advance width="120"/>
  <unicode hex="00B4"/>
  <outline>
    <contour>
      <point x="53" y="841" type="line"/>
      <point x="119" y="841" type="line"/>
      <point x="32" y="736" type="line"/>
      <point x="0" y="758" type="line"/>
    </contour>
  </outline>
</glyph>
<glyph name="paragraph" format="2">
  <advance width="247"/>
  <unicode hex="00B6"/>
  <outline>
    <contour>
      <point x="199" y="0" type="line"/>
      <point x="180" y="0" type="line"/>
      <point x="180" y="122" type="line"/>
      <point x="124" y="122" type="line" smooth="yes"/>
      <point x="82" y="122"/>
      <point x="48" y="156"/>
      <point x="48" y="198" type="curve" smooth="yes"/>
      <point x="48" y="239"/>
      <point x="82" y="273"/>
      <point x="124" y="273" type="curve" smooth="yes"/>
      <point x="199" y="273" type="line"/>
      <point x="199" y="0" type="line"/>
    </contour>
  </outline>
</glyph>
<glyph name="periodcentered" format="2">
  <advance width="174"/>
  <unicode hex="00B7"/>
  <outline>
    <contour>
      <point x="87" y="401" type="line"/>
      <point x="109" y="401"/>
      <point x="127" y="383"/>
      <point x="127" y="361" type="curve" smooth="yes"/>
      <point x="127" y="339"/>
      <point x="109" y="322"/>
      <point x="87" y="322" type="curve" smooth="yes"/>
      <point x="65" y="322"/>
      <point x="47" y="339"/>
      <point x="47" y="361" type="curve" smooth="yes"/>
      <point x="47" y="383"/>
      <point x="65" y="401"/>
      <point x="87" y="401" type="curve"/>
    </contour>
  </outline>
</glyph>
<glyph name="cedilla" format="2">
  <advance width="120"/>
  <unicode hex="00B8"/>
  <outline>
    <contour>
      <point x="44" y="10" type="line"/>
      <point x="96" y="10" type="line"/>
      <point x="51" y="-58" type="line"/>
      <point x="120" y="-71" type="line"/>
      <point x="120" y="-124"/>
      <point x="77" y="-166"/>
      <point x="25" y="-166" type="curve" smooth="yes"/>
      <point x="2" y="-166" type="line"/>
      <point x="2" y="-144" type="line"/>
      <point x="9" y="-144" type="line"/>
      <point x="41" y="-143"/>
      <point x="67" y="-117"/>
      <point x="67" y="-85" type="curve"/>
      <point x="1" y="-72" type="line"/>
      <point x="1" y="-54" type="line"/>
    </contour>
  </outline>
</glyph>
<glyph name="onesuperior" format="2">
  <advance width="244"/>
  <unicode hex="00B9"/>
  <outline>
    <contour>
      <point x="144" y="314" type="line"/>
      <point x="196" y="314" type="line"/>
      <point x="196" y="294" type="line"/>
      <point x="47" y="294" type="line"/>
      <point x="47" y="314" type="line"/>
      <point x="99" y="314" type="line"/>
      <point x="99" y="716" type="line"/>
      <point x="47" y="716" type="line"/>
      <point x="53" y="735" type="line"/>
      <point x="144" y="735" type="line"/>
      <point x="144" y="314" type="line"/>
    </contour>
  </outline>
</glyph>
<glyph name="ordmasculine" format="2">
  <advance width="394"/>
  <unicode hex="00BA"/>
  <outline>
    <contour>
      <point x="48" y="549" type="line"/>
      <point x="48" y="587" type="line" smooth="yes"/>
      <point x="48" y="669"/>
      <point x="115" y="736"/>
      <point x="197" y="736" type="curve" smooth="yes"/>
      <point x="280" y="736"/>
      <point x="346" y="669"/>
      <point x="346" y="587" type="curve" smooth="yes"/>
      <point x="346" y="549" type="line" smooth="yes"/>
      <point x="346" y="466"/>
      <point x="280" y="400"/>
      <point x="197" y="400" type="curve" smooth="yes"/>
      <point x="115" y="400"/>
      <point x="48" y="466"/>
      <point x="48" y="549" type="curve"/>
    </contour>
    <contour>
      <point x="93" y="613" type="line"/>
      <point x="93" y="523" type="line" smooth="yes"/>
      <point x="93" y="466"/>
      <point x="140" y="419"/>
      <point x="197" y="419" type="curve" smooth="yes"/>
      <point x="254" y="419"/>
      <point x="301" y="466"/>
      <point x="301" y="523" type="curve" smooth="yes"/>
      <point x="301" y="613" type="line" smooth="yes"/>
      <point x="301" y="670"/>
      <point x="254" y="716"/>
      <point x="197" y="716" type="curve" smooth="yes"/>
      <point x="140" y="716"/>
      <point x="93" y="670"/>
      <point x="93" y="613" type="curve"/>
    </contour>
  </outline>
</glyph>
<glyph name="guillemotright" format="2">
  <advance width="472"/>
  <unicode hex="00BB"/>
  <outline>
    <contour>
      <point x="48" y="569" type="line"/>
      <point x="62" y="578" type="line"/>
      <point x="198" y="385" type="line"/>
      <point x="198" y="337" type="line"/>
      <point x="62" y="145" type="line"/>
      <point x="48" y="153" type="line"/>
      <point x="144" y="361" type="line"/>
    </contour>
    <contour>
      <point x="288" y="578" type="line"/>
      <point x="424" y="385" type="line"/>
      <point x="424" y="337" type="line"/>
      <point x="288" y="145" type="line"/>
      <point x="274" y="153" type="line"/>
      <point x="370" y="361" type="line"/>
      <point x="274" y="569" type="line"/>
    </contour>
  </outline>
</glyph>
<glyph name="onequarter" format="2">
  <advance width="640"/>
  <unicode hex="00BC"/>
  <outline>
    <contour>
      <point x="548" y="294" type="line"/>
      <point x="592" y="294" type="line"/>
      <point x="592" y="0" type="line"/>
      <point x="562" y="0" type="line"/>
      <point x="562" y="70" type="line"/>
      <point x="383" y="70" type="line"/>
      <point x="383" y="96" type="line"/>
    </contour>
    <contour>
      <point x="100" y="0" type="line"/>
      <point x="58" y="0" type="line"/>
      <point x="540" y="735" type="line"/>
      <point x="582" y="735" type="line"/>
    </contour>
    <contour>
      <point x="113" y="454" type="line"/>
      <point x="147" y="454" type="line"/>
      <point x="147" y="441" type="line"/>
      <point x="48" y="441" type="line"/>
      <point x="48" y="454" type="line"/>
      <point x="82" y="454" type="line"/>
      <point x="82" y="722" type="line"/>
      <point x="48" y="722" type="line"/>
      <point x="52" y="735" type="line"/>
      <point x="113" y="735" type="line"/>
      <point x="113" y="454" type="line"/>
    </contour>
    <contour>
      <point x="562" y="274" type="line"/>
      <point x="413" y="96" type="line"/>
      <point x="413" y="83" type="line"/>
      <point x="562" y="83" type="line"/>
      <point x="562" y="274" type="line"/>
    </contour>
  </outline>
</glyph>
<glyph name="onehalf" format="2">
  <advance width="630"/>
  <unicode hex="00BD"/>
  <outline>
    <contour>
      <point x="373" y="281" type="line"/>
      <point x="373" y="294" type="line"/>
      <point x="522" y="294" type="line" smooth="yes"/>
      <point x="555" y="294"/>
      <point x="582" y="267"/>
      <point x="582" y="234" type="curve" smooth="yes"/>
      <point x="582" y="168" type="line"/>
      <point x="420" y="110" type="line"/>
      <point x="410" y="106"/>
      <point x="403" y="97"/>
      <point x="403" y="86" type="curve" smooth="yes"/>
      <point x="403" y="13" type="line"/>
      <point x="582" y="13" type="line"/>
      <point x="582" y="0" type="line"/>
      <point x="373" y="0" type="line"/>
      <point x="373" y="85" type="line" smooth="yes"/>
      <point x="373" y="110"/>
      <point x="388" y="132"/>
      <point x="411" y="140" type="curve" smooth="yes"/>
      <point x="552" y="190" type="line"/>
      <point x="552" y="241" type="line" smooth="yes"/>
      <point x="552" y="263"/>
      <point x="534" y="281"/>
      <point x="512" y="281" type="curve" smooth="yes"/>
      <point x="373" y="281" type="line"/>
    </contour>
    <contour>
      <point x="100" y="0" type="line"/>
      <point x="58" y="0" type="line"/>
      <point x="540" y="735" type="line"/>
      <point x="582" y="735" type="line"/>
    </contour>
    <contour>
      <point x="113" y="454" type="line"/>
      <point x="147" y="454" type="line"/>
      <point x="147" y="441" type="line"/>
      <point x="48" y="441" type="line"/>
      <point x="48" y="454" type="line"/>
      <point x="82" y="454" type="line"/>
      <point x="82" y="722" type="line"/>
      <point x="48" y="722" type="line"/>
      <point x="52" y="735" type="line"/>
      <point x="113" y="735" type="line"/>
      <point x="113" y="454" type="line"/>
    </contour>
  </outline>
</glyph>
<glyph name="threequarters" format="2">
  <advance width="640"/>
  <unicode hex="00BE"/>
  <outline>
    <contour>
      <point x="548" y="294" type="line"/>
      <point x="592" y="294" type="line"/>
      <point x="592" y="0" type="line"/>
      <point x="562" y="0" type="line"/>
      <point x="562" y="70" type="line"/>
      <point x="383" y="70" type="line"/>
      <point x="383" y="96" type="line"/>
    </contour>
    <contour>
      <point x="100" y="0" type="line"/>
      <point x="58" y="0" type="line"/>
      <point x="540" y="735" type="line"/>
      <point x="582" y="735" type="line"/>
    </contour>
    <contour>
      <point x="178" y="441" type="line"/>
      <point x="48" y="441" type="line"/>
      <point x="48" y="454" type="line"/>
      <point x="178" y="454" type="line" smooth="yes"/>
      <point x="205" y="454"/>
      <point x="227" y="480"/>
      <point x="227" y="512" type="curve" smooth="yes"/>
      <point x="227" y="524" type="line" smooth="yes"/>
      <point x="227" y="556"/>
      <point x="205" y="582"/>
      <point x="178" y="582" type="curve" smooth="yes"/>
      <point x="122" y="582" type="line"/>
      <point x="122" y="595" type="line"/>
      <point x="178" y="595" type="line" smooth="yes"/>
      <point x="205" y="595"/>
      <point x="227" y="621"/>
      <point x="227" y="652" type="curve" smooth="yes"/>
      <point x="227" y="665" type="line" smooth="yes"/>
      <point x="227" y="697"/>
      <point x="205" y="722"/>
      <point x="178" y="722" type="curve" smooth="yes"/>
      <point x="48" y="722" type="line"/>
      <point x="48" y="735" type="line"/>
      <point x="178" y="735" type="line" smooth="yes"/>
      <point x="222" y="735"/>
      <point x="257" y="704"/>
      <point x="257" y="665" type="curve" smooth="yes"/>
      <point x="257" y="652" type="line" smooth="yes"/>
      <point x="257" y="626"/>
      <point x="238" y="601"/>
      <point x="212" y="588" type="curve"/>
      <point x="238" y="575"/>
      <point x="257" y="551"/>
      <point x="257" y="524" type="curve" smooth="yes"/>
      <point x="257" y="512" type="line" smooth="yes"/>
      <point x="257" y="473"/>
      <point x="222" y="441"/>
      <point x="178" y="441" type="curve"/>
    </contour>
    <contour>
      <point x="562" y="274" type="line"/>
      <point x="413" y="96" type="line"/>
      <point x="413" y="83" type="line"/>
      <point x="562" y="83" type="line"/>
      <point x="562" y="274" type="line"/>
    </contour>
  </outline>
</glyph>
<glyph name="questiondown" format="2">
  <advance width="541"/>
  <unicode hex="00BF"/>
  <outline>
    <contour>
      <point x="260" y="382" type="line"/>
      <point x="260" y="433" type="line"/>
      <point x="336" y="433" type="line"/>
      <point x="336" y="382" type="line" smooth="yes"/>
      <point x="336" y="333"/>
      <point x="309" y="282"/>
      <point x="264" y="243" type="curve" smooth="yes"/>
      <point x="169" y="162" type="line" smooth="yes"/>
      <point x="140" y="138"/>
      <point x="124" y="96"/>
      <point x="124" y="48" type="curve" smooth="yes"/>
      <point x="124" y="-35"/>
      <point x="182" y="-103"/>
      <point x="253" y="-103" type="curve" smooth="yes"/>
      <point x="288" y="-103" type="line" smooth="yes"/>
      <point x="359" y="-103"/>
      <point x="417" y="-35"/>
      <point x="417" y="48" type="curve" smooth="yes"/>
      <point x="417" y="95" type="line"/>
      <point x="493" y="95" type="line"/>
      <point x="493" y="48" type="line" smooth="yes"/>
      <point x="493" y="-53"/>
      <point x="401" y="-135"/>
      <point x="288" y="-135" type="curve" smooth="yes"/>
      <point x="253" y="-135" type="line" smooth="yes"/>
      <point x="140" y="-135"/>
      <point x="48" y="-53"/>
      <point x="48" y="48" type="curve" smooth="yes"/>
      <point x="48" y="97"/>
      <point x="74" y="148"/>
      <point x="120" y="187" type="curve" smooth="yes"/>
      <point x="214" y="268" type="line" smooth="yes"/>
      <point x="243" y="292"/>
      <point x="260" y="334"/>
      <point x="260" y="382" type="curve"/>
    </contour>
    <contour>
      <point x="337" y="561" type="line"/>
      <point x="337" y="539"/>
      <point x="319" y="521"/>
      <point x="297" y="521" type="curve" smooth="yes"/>
      <point x="276" y="521"/>
      <point x="258" y="539"/>
      <point x="258" y="561" type="curve" smooth="yes"/>
      <point x="258" y="582"/>
      <point x="276" y="600"/>
      <point x="297" y="600" type="curve" smooth="yes"/>
      <point x="319" y="600"/>
      <point x="337" y="582"/>
      <point x="337" y="561" type="curve"/>
    </contour>
  </outline>
</glyph>
<glyph name="Aacute" format="2">
  <advance width="603"/>
  <unicode hex="00C1"/>
  <outline>
    <contour>
      <point x="271" y="836" type="line"/>
      <point x="320" y="913" type="line"/>
      <point x="381" y="913" type="line"/>
      <point x="300" y="815" type="line"/>
    </contour>
    <contour>
      <point x="310" y="736" type="line"/>
      <point x="596" y="0" type="line"/>
      <point x="520" y="0" type="line"/>
      <point x="381" y="360" type="line"/>
      <point x="226" y="288"/>
      <point x="105" y="160"/>
      <point x="43" y="0" type="curve"/>
      <point x="8" y="0" type="line"/>
      <point x="289.936" y="728.225" type="line"/>
      <point x="310" y="736" type="line"/>
    </contour>
    <contour>
      <point x="282" y="615" type="line"/>
      <point x="121" y="200" type="line"/>
      <point x="187" y="282"/>
      <point x="272" y="347"/>
      <point x="369" y="391" type="curve"/>
    </contour>
  </outline>
</glyph>
<glyph name="Acircumflex" format="2">
  <advance width="603"/>
  <unicode hex="00C2"/>
  <outline>
    <contour>
      <point x="222" y="836" type="line"/>
      <point x="271" y="913" type="line"/>
      <point x="333" y="913" type="line"/>
      <point x="382" y="836" type="line"/>
      <point x="353" y="815" type="line"/>
      <point x="302" y="876" type="line"/>
      <point x="251" y="815" type="line"/>
    </contour>
    <contour>
      <point x="310" y="736" type="line"/>
      <point x="596" y="0" type="line"/>
      <point x="520" y="0" type="line"/>
      <point x="381" y="360" type="line"/>
      <point x="226" y="288"/>
      <point x="105" y="160"/>
      <point x="43" y="0" type="curve"/>
      <point x="8" y="0" type="line"/>
      <point x="289.936" y="728.225" type="line"/>
      <point x="310" y="736" type="line"/>
    </contour>
    <contour>
      <point x="282" y="615" type="line"/>
      <point x="121" y="200" type="line"/>
      <point x="187" y="282"/>
      <point x="272" y="347"/>
      <point x="369" y="391" type="curve"/>
    </contour>
  </outline>
</glyph>
<glyph name="Atilde" format="2">
  <advance width="603"/>
  <unicode hex="00C3"/>
  <outline>
    <contour>
      <point x="206" y="811" type="line"/>
      <point x="188" y="793" type="line"/>
      <point x="176" y="804" type="line"/>
      <point x="195" y="823" type="line"/>
      <point x="213" y="842"/>
      <point x="238" y="852"/>
      <point x="263" y="852" type="curve" smooth="yes"/>
      <point x="273" y="852"/>
      <point x="282" y="850"/>
      <point x="292" y="847" type="curve" smooth="yes"/>
      <point x="356" y="828" type="line" smooth="yes"/>
      <point x="360" y="827"/>
      <point x="364" y="826"/>
      <point x="367" y="826" type="curve" smooth="yes"/>
      <point x="378" y="826"/>
      <point x="389" y="831"/>
      <point x="397" y="838" type="curve"/>
      <point x="415" y="857" type="line"/>
      <point x="427" y="845" type="line"/>
      <point x="408" y="826" type="line" smooth="yes"/>
      <point x="390" y="808"/>
      <point x="364" y="798"/>
      <point x="339" y="798" type="curve" smooth="yes"/>
      <point x="330" y="798"/>
      <point x="320" y="799"/>
      <point x="311" y="802" type="curve" smooth="yes"/>
      <point x="247" y="822" type="line" smooth="yes"/>
      <point x="244" y="823"/>
      <point x="240" y="824"/>
      <point x="236" y="824" type="curve" smooth="yes"/>
      <point x="225" y="824"/>
      <point x="214" y="819"/>
      <point x="206" y="811" type="curve"/>
    </contour>
    <contour>
      <point x="310" y="736" type="line"/>
      <point x="596" y="0" type="line"/>
      <point x="520" y="0" type="line"/>
      <point x="381" y="360" type="line"/>
      <point x="226" y="288"/>
      <point x="105" y="160"/>
      <point x="43" y="0" type="curve"/>
      <point x="8" y="0" type="line"/>
      <point x="289.936" y="728.225" type="line"/>
      <point x="310" y="736" type="line"/>
    </contour>
    <contour>
      <point x="282" y="615" type="line"/>
      <point x="121" y="200" type="line"/>
      <point x="187" y="282"/>
      <point x="272" y="347"/>
      <point x="369" y="391" type="curve"/>
    </contour>
  </outline>
</glyph>
<glyph name="Adieresis" format="2">
  <advance width="603"/>
  <unicode hex="00C4"/>
  <outline>
    <contour>
      <point x="256" y="881" type="line"/>
      <point x="274" y="881"/>
      <point x="289" y="866"/>
      <point x="289" y="848" type="curve" smooth="yes"/>
      <point x="289" y="830"/>
      <point x="274" y="815"/>
      <point x="256" y="815" type="curve" smooth="yes"/>
      <point x="237" y="815"/>
      <point x="222" y="830"/>
      <point x="222" y="848" type="curve" smooth="yes"/>
      <point x="222" y="866"/>
      <point x="237" y="881"/>
      <point x="256" y="881" type="curve"/>
    </contour>
    <contour>
      <point x="348" y="881" type="line"/>
      <point x="366" y="881"/>
      <point x="381" y="866"/>
      <point x="381" y="848" type="curve" smooth="yes"/>
      <point x="381" y="830"/>
      <point x="366" y="815"/>
      <point x="348" y="815" type="curve" smooth="yes"/>
      <point x="330" y="815"/>
      <point x="315" y="830"/>
      <point x="315" y="848" type="curve" smooth="yes"/>
      <point x="315" y="866"/>
      <point x="330" y="881"/>
      <point x="348" y="881" type="curve"/>
    </contour>
    <contour>
      <point x="310" y="736" type="line"/>
      <point x="596" y="0" type="line"/>
      <point x="520" y="0" type="line"/>
      <point x="381" y="360" type="line"/>
      <point x="226" y="288"/>
      <point x="105" y="160"/>
      <point x="43" y="0" type="curve"/>
      <point x="8" y="0" type="line"/>
      <point x="289.936" y="728.225" type="line"/>
      <point x="310" y="736" type="line"/>
    </contour>
    <contour>
      <point x="282" y="615" type="line"/>
      <point x="121" y="200" type="line"/>
      <point x="187" y="282"/>
      <point x="272" y="347"/>
      <point x="369" y="391" type="curve"/>
    </contour>
  </outline>
</glyph>
<glyph name="Aring" format="2">
  <advance width="603"/>
  <unicode hex="00C5"/>
  <outline>
    <contour>
      <point x="302" y="796" type="line"/>
      <point x="272" y="796"/>
      <point x="248" y="820"/>
      <point x="248" y="850" type="curve" smooth="yes"/>
      <point x="248" y="880"/>
      <point x="272" y="905"/>
      <point x="302" y="905" type="curve" smooth="yes"/>
      <point x="332" y="905"/>
      <point x="356" y="880"/>
      <point x="356" y="850" type="curve" smooth="yes"/>
      <point x="356" y="820"/>
      <point x="332" y="796"/>
      <point x="302" y="796" type="curve"/>
    </contour>
    <contour>
      <point x="302" y="886" type="line"/>
      <point x="282" y="886"/>
      <point x="266" y="870"/>
      <point x="266" y="850" type="curve" smooth="yes"/>
      <point x="266" y="831"/>
      <point x="282" y="815"/>
      <point x="302" y="815" type="curve" smooth="yes"/>
      <point x="322" y="815"/>
      <point x="338" y="831"/>
      <point x="338" y="850" type="curve" smooth="yes"/>
      <point x="338" y="870"/>
      <point x="322" y="886"/>
      <point x="302" y="886" type="curve"/>
    </contour>
    <contour>
      <point x="310" y="736" type="line"/>
      <point x="596" y="0" type="line"/>
      <point x="520" y="0" type="line"/>
      <point x="381" y="360" type="line"/>
      <point x="226" y="288"/>
      <point x="105" y="160"/>
      <point x="43" y="0" type="curve"/>
      <point x="8" y="0" type="line"/>
      <point x="289.936" y="728.225" type="line"/>
      <point x="310" y="736" type="line"/>
    </contour>
    <contour>
      <point x="282" y="615" type="line"/>
      <point x="121" y="200" type="line"/>
      <point x="187" y="282"/>
      <point x="272" y="347"/>
      <point x="369" y="391" type="curve"/>
    </contour>
  </outline>
</glyph>
<glyph name="AE" format="2">
  <advance width="901"/>
  <unicode hex="00C6"/>
  <outline>
    <contour>
      <point x="854" y="736" type="line"/>
      <point x="854" y="703" type="line"/>
      <point x="455" y="703" type="line"/>
      <point x="455" y="384" type="line"/>
      <point x="747" y="384" type="line"/>
      <point x="747" y="351" type="line"/>
      <point x="455" y="351" type="line"/>
      <point x="455" y="83" type="line" smooth="yes"/>
      <point x="455" y="55"/>
      <point x="477" y="33"/>
      <point x="505" y="33" type="curve" smooth="yes"/>
      <point x="854" y="33" type="line"/>
      <point x="854" y="0" type="line"/>
      <point x="461" y="0" type="line" smooth="yes"/>
      <point x="416" y="0"/>
      <point x="379" y="37"/>
      <point x="379" y="82" type="curve" smooth="yes"/>
      <point x="379" y="703" type="line"/>
      <point x="315" y="703" type="line"/>
      <point x="43" y="0" type="line"/>
      <point x="7" y="0" type="line"/>
      <point x="293" y="736" type="line"/>
      <point x="854" y="736" type="line"/>
    </contour>
  </outline>
</glyph>
<glyph name="Ccedilla" format="2">
  <advance width="690"/>
  <unicode hex="00C7"/>
  <outline>
    <contour>
      <point x="374" y="33" type="line"/>
      <point x="375" y="33" type="line"/>
      <point x="480" y="33"/>
      <point x="570" y="98"/>
      <point x="607" y="189" type="curve"/>
      <point x="662" y="164" type="line"/>
      <point x="608" y="66"/>
      <point x="505" y="0"/>
      <point x="386" y="0" type="curve" smooth="yes"/>
      <point x="374" y="0" type="line"/>
      <point x="336" y="-58" type="line"/>
      <point x="405" y="-71" type="line"/>
      <point x="405" y="-124"/>
      <point x="362" y="-166"/>
      <point x="309" y="-166" type="curve" smooth="yes"/>
      <point x="286" y="-166" type="line"/>
      <point x="286" y="-144" type="line"/>
      <point x="293" y="-144" type="line"/>
      <point x="326" y="-143"/>
      <point x="352" y="-117"/>
      <point x="352" y="-85" type="curve"/>
      <point x="285" y="-72" type="line"/>
      <point x="285" y="-54" type="line"/>
      <point x="323" y="3" type="line"/>
      <point x="168" y="22"/>
      <point x="48" y="155"/>
      <point x="48" y="315" type="curve" smooth="yes"/>
      <point x="48" y="421" type="line" smooth="yes"/>
      <point x="48" y="594"/>
      <point x="189" y="736"/>
      <point x="363" y="736" type="curve" smooth="yes"/>
      <point x="386" y="736" type="line" smooth="yes"/>
      <point x="505" y="736"/>
      <point x="608" y="669"/>
      <point x="662" y="572" type="curve"/>
      <point x="607" y="546" type="line"/>
      <point x="570" y="638"/>
      <point x="480" y="703"/>
      <point x="375" y="703" type="curve"/>
      <point x="374" y="703" type="line"/>
      <point x="236" y="703"/>
      <point x="124" y="591"/>
      <point x="124" y="453" type="curve" smooth="yes"/>
      <point x="124" y="283" type="line" smooth="yes"/>
      <point x="124" y="145"/>
      <point x="236" y="33"/>
      <point x="374" y="33" type="curve"/>
    </contour>
  </outline>
</glyph>
<glyph name="Eacute" format="2">
  <advance width="533"/>
  <unicode hex="00C9"/>
  <outline>
    <contour>
      <point x="533" y="735" type="line"/>
      <point x="533" y="703" type="line"/>
      <point x="134" y="703" type="line"/>
      <point x="134" y="384" type="line"/>
      <point x="427" y="384" type="line"/>
      <point x="427" y="351" type="line"/>
      <point x="134" y="351" type="line"/>
      <point x="134" y="83" type="line" smooth="yes"/>
      <point x="134" y="55"/>
      <point x="157" y="33"/>
      <point x="184" y="33" type="curve" smooth="yes"/>
      <point x="533" y="33" type="line"/>
      <point x="533" y="0" type="line"/>
      <point x="140" y="0" type="line" smooth="yes"/>
      <point x="95" y="0"/>
      <point x="58" y="37"/>
      <point x="58" y="82" type="curve" smooth="yes"/>
      <point x="58" y="703" type="line"/>
      <point x="-1" y="703" type="line"/>
      <point x="-1" y="736" type="line"/>
    </contour>
    <contour>
      <point x="272" y="920" type="line"/>
      <point x="338" y="920" type="line"/>
      <point x="250" y="815" type="line"/>
      <point x="219" y="837" type="line"/>
    </contour>
  </outline>
</glyph>
<glyph name="Edieresis" format="2">
  <advance width="533"/>
  <unicode hex="00CB"/>
  <outline>
    <contour>
      <point x="533" y="735" type="line"/>
      <point x="533" y="703" type="line"/>
      <point x="134" y="703" type="line"/>
      <point x="134" y="384" type="line"/>
      <point x="427" y="384" type="line"/>
      <point x="427" y="351" type="line"/>
      <point x="134" y="351" type="line"/>
      <point x="134" y="83" type="line" smooth="yes"/>
      <point x="134" y="55"/>
      <point x="157" y="33"/>
      <point x="184" y="33" type="curve" smooth="yes"/>
      <point x="533" y="33" type="line"/>
      <point x="533" y="0" type="line"/>
      <point x="140" y="0" type="line" smooth="yes"/>
      <point x="95" y="0"/>
      <point x="58" y="37"/>
      <point x="58" y="82" type="curve" smooth="yes"/>
      <point x="58" y="703" type="line"/>
      <point x="-1" y="703" type="line"/>
      <point x="-1" y="736" type="line"/>
    </contour>
    <contour>
      <point x="245" y="882" type="line"/>
      <point x="264" y="882"/>
      <point x="279" y="867"/>
      <point x="279" y="849" type="curve" smooth="yes"/>
      <point x="279" y="831"/>
      <point x="264" y="816"/>
      <point x="245" y="816" type="curve" smooth="yes"/>
      <point x="227" y="816"/>
      <point x="212" y="831"/>
      <point x="212" y="849" type="curve" smooth="yes"/>
      <point x="212" y="867"/>
      <point x="227" y="882"/>
      <point x="245" y="882" type="curve"/>
    </contour>
    <contour>
      <point x="338" y="882" type="line"/>
      <point x="356" y="882"/>
      <point x="371" y="867"/>
      <point x="371" y="849" type="curve" smooth="yes"/>
      <point x="371" y="831"/>
      <point x="356" y="816"/>
      <point x="338" y="816" type="curve" smooth="yes"/>
      <point x="320" y="816"/>
      <point x="305" y="831"/>
      <point x="305" y="849" type="curve" smooth="yes"/>
      <point x="305" y="867"/>
      <point x="320" y="882"/>
      <point x="338" y="882" type="curve"/>
    </contour>
  </outline>
</glyph>
<glyph name="Igrave" format="2">
  <advance width="343"/>
  <unicode hex="00CC"/>
  <outline>
    <contour>
      <point x="209" y="703" type="line"/>
      <point x="209" y="99" type="line"/>
      <point x="180" y="33" type="line"/>
      <point x="296" y="33" type="line"/>
      <point x="296" y="0" type="line"/>
      <point x="47" y="0" type="line"/>
      <point x="47" y="33" type="line"/>
      <point x="134" y="33" type="line"/>
      <point x="134" y="703" type="line"/>
      <point x="47" y="703" type="line"/>
      <point x="47" y="736" type="line"/>
      <point x="296" y="736" type="line"/>
      <point x="296" y="703" type="line"/>
      <point x="209" y="703" type="line"/>
    </contour>
    <contour>
      <point x="110" y="920" type="line"/>
      <point x="176" y="920" type="line"/>
      <point x="228" y="837" type="line"/>
      <point x="197" y="815" type="line"/>
    </contour>
  </outline>
</glyph>
<glyph name="Iacute" format="2">
  <advance width="343"/>
  <unicode hex="00CD"/>
  <outline>
    <contour>
      <point x="209" y="703" type="line"/>
      <point x="209" y="99" type="line"/>
      <point x="180" y="33" type="line"/>
      <point x="296" y="33" type="line"/>
      <point x="296" y="0" type="line"/>
      <point x="47" y="0" type="line"/>
      <point x="47" y="33" type="line"/>
      <point x="134" y="33" type="line"/>
      <point x="134" y="703" type="line"/>
      <point x="47" y="703" type="line"/>
      <point x="47" y="736" type="line"/>
      <point x="296" y="736" type="line"/>
      <point x="296" y="703" type="line"/>
      <point x="209" y="703" type="line"/>
    </contour>
    <contour>
      <point x="180" y="920" type="line"/>
      <point x="246" y="920" type="line"/>
      <point x="159" y="815" type="line"/>
      <point x="128" y="837" type="line"/>
    </contour>
  </outline>
</glyph>
<glyph name="Icircumflex" format="2">
  <advance width="343"/>
  <unicode hex="00CE"/>
  <outline>
    <contour>
      <point x="209" y="703" type="line"/>
      <point x="209" y="99" type="line"/>
      <point x="180" y="33" type="line"/>
      <point x="296" y="33" type="line"/>
      <point x="296" y="0" type="line"/>
      <point x="47" y="0" type="line"/>
      <point x="47" y="33" type="line"/>
      <point x="134" y="33" type="line"/>
      <point x="134" y="703" type="line"/>
      <point x="47" y="703" type="line"/>
      <point x="47" y="736" type="line"/>
      <point x="296" y="736" type="line"/>
      <point x="296" y="703" type="line"/>
      <point x="209" y="703" type="line"/>
    </contour>
    <contour>
      <point x="139" y="913" type="line"/>
      <point x="201" y="913" type="line"/>
      <point x="250" y="836" type="line"/>
      <point x="221" y="815" type="line"/>
      <point x="170" y="876" type="line"/>
      <point x="119" y="815" type="line"/>
      <point x="90" y="836" type="line"/>
    </contour>
  </outline>
</glyph>
<glyph name="Idieresis" format="2">
  <advance width="343"/>
  <unicode hex="00CF"/>
  <outline>
    <contour>
      <point x="209" y="703" type="line"/>
      <point x="209" y="99" type="line"/>
      <point x="180" y="33" type="line"/>
      <point x="296" y="33" type="line"/>
      <point x="296" y="0" type="line"/>
      <point x="47" y="0" type="line"/>
      <point x="47" y="33" type="line"/>
      <point x="134" y="33" type="line"/>
      <point x="134" y="703" type="line"/>
      <point x="47" y="703" type="line"/>
      <point x="47" y="736" type="line"/>
      <point x="296" y="736" type="line"/>
      <point x="296" y="703" type="line"/>
      <point x="209" y="703" type="line"/>
    </contour>
    <contour>
      <point x="125" y="881" type="line"/>
      <point x="144" y="881"/>
      <point x="158" y="866"/>
      <point x="158" y="848" type="curve" smooth="yes"/>
      <point x="158" y="830"/>
      <point x="144" y="815"/>
      <point x="125" y="815" type="curve" smooth="yes"/>
      <point x="107" y="815"/>
      <point x="92" y="830"/>
      <point x="92" y="848" type="curve" smooth="yes"/>
      <point x="92" y="866"/>
      <point x="107" y="881"/>
      <point x="125" y="881" type="curve"/>
    </contour>
    <contour>
      <point x="218" y="881" type="line"/>
      <point x="236" y="881"/>
      <point x="251" y="866"/>
      <point x="251" y="848" type="curve" smooth="yes"/>
      <point x="251" y="830"/>
      <point x="236" y="815"/>
      <point x="218" y="815" type="curve" smooth="yes"/>
      <point x="199" y="815"/>
      <point x="185" y="830"/>
      <point x="185" y="848" type="curve" smooth="yes"/>
      <point x="185" y="866"/>
      <point x="199" y="881"/>
      <point x="218" y="881" type="curve"/>
    </contour>
  </outline>
</glyph>
<glyph name="Eth" format="2">
  <advance width="630"/>
  <unicode hex="00D0"/>
  <outline>
    <contour>
      <point x="-1" y="703" type="line"/>
      <point x="-1" y="736" type="line"/>
      <point x="267" y="736" type="line"/>
      <point x="441" y="735"/>
      <point x="582" y="594"/>
      <point x="582" y="421" type="curve" smooth="yes"/>
      <point x="582" y="315" type="line" smooth="yes"/>
      <point x="582" y="141"/>
      <point x="441" y="0"/>
      <point x="267" y="0" type="curve" smooth="yes"/>
      <point x="58" y="0" type="line"/>
      <point x="58" y="351" type="line"/>
      <point x="-1" y="351" type="line"/>
      <point x="-1" y="384" type="line"/>
      <point x="58" y="384" type="line"/>
      <point x="58" y="703" type="line"/>
      <point x="-1" y="703" type="line"/>
    </contour>
    <contour>
      <point x="134" y="703" type="line"/>
      <point x="134" y="384" type="line"/>
      <point x="297" y="384" type="line"/>
      <point x="297" y="351" type="line"/>
      <point x="134" y="351" type="line"/>
      <point x="134" y="34" type="line"/>
      <point x="256" y="34" type="line" smooth="yes"/>
      <point x="394" y="34"/>
      <point x="506" y="146"/>
      <point x="506" y="284" type="curve" smooth="yes"/>
      <point x="506" y="453" type="line" smooth="yes"/>
      <point x="506" y="591"/>
      <point x="394" y="703"/>
      <point x="256" y="703" type="curve" smooth="yes"/>
      <point x="134" y="703" type="line"/>
    </contour>
  </outline>
</glyph>
<glyph name="Ntilde" format="2">
  <advance width="628"/>
  <unicode hex="00D1"/>
  <outline>
    <contour>
      <point x="580" y="736" type="line"/>
      <point x="580" y="0" type="line"/>
      <point x="530" y="0" type="line"/>
      <point x="91" y="627" type="line"/>
      <point x="91" y="0" type="line"/>
      <point x="58" y="0" type="line"/>
      <point x="58" y="703" type="line"/>
      <point x="-1" y="703" type="line"/>
      <point x="-1" y="736" type="line"/>
      <point x="108" y="736" type="line"/>
      <point x="547" y="108" type="line"/>
      <point x="547" y="736" type="line"/>
      <point x="580" y="736" type="line"/>
    </contour>
    <contour>
      <point x="219" y="811" type="line"/>
      <point x="200" y="793" type="line"/>
      <point x="189" y="804" type="line"/>
      <point x="207" y="823" type="line"/>
      <point x="226" y="842"/>
      <point x="250" y="852"/>
      <point x="275" y="852" type="curve" smooth="yes"/>
      <point x="285" y="852"/>
      <point x="295" y="850"/>
      <point x="305" y="847" type="curve" smooth="yes"/>
      <point x="368" y="828" type="line"/>
      <point x="371.875" y="826.967"/>
      <point x="375.75" y="826.467"/>
      <point x="379.556" y="826.467" type="curve" smooth="yes"/>
      <point x="390.483" y="826.467"/>
      <point x="400.842" y="830.583"/>
      <point x="409" y="838" type="curve"/>
      <point x="428" y="857" type="line"/>
      <point x="439" y="845" type="line"/>
      <point x="421" y="826" type="line"/>
      <point x="402" y="808"/>
      <point x="377" y="798"/>
      <point x="351" y="798" type="curve" smooth="yes"/>
      <point x="342" y="798"/>
      <point x="332" y="799"/>
      <point x="323" y="802" type="curve" smooth="yes"/>
      <point x="260" y="822" type="line"/>
      <point x="256.19" y="823.016"/>
      <point x="252.314" y="823.516"/>
      <point x="248.49" y="823.516" type="curve" smooth="yes"/>
      <point x="237.258" y="823.516"/>
      <point x="226.46" y="819.206"/>
      <point x="219" y="811" type="curve"/>
    </contour>
  </outline>
</glyph>
<glyph name="Otilde" format="2">
  <advance width="748"/>
  <unicode hex="00D5"/>
  <outline>
    <contour>
      <point x="48" y="315" type="line"/>
      <point x="48" y="421" type="line" smooth="yes"/>
      <point x="48" y="594"/>
      <point x="189" y="736"/>
      <point x="363" y="736" type="curve" smooth="yes"/>
      <point x="385" y="736" type="line" smooth="yes"/>
      <point x="559" y="736"/>
      <point x="700" y="594"/>
      <point x="700" y="421" type="curve" smooth="yes"/>
      <point x="700" y="315" type="line" smooth="yes"/>
      <point x="700" y="141"/>
      <point x="559" y="0"/>
      <point x="385" y="0" type="curve" smooth="yes"/>
      <point x="363" y="0" type="line" smooth="yes"/>
      <point x="189" y="0"/>
      <point x="48" y="141"/>
      <point x="48" y="315" type="curve"/>
    </contour>
    <contour>
      <point x="279" y="811" type="line"/>
      <point x="260" y="793" type="line"/>
      <point x="249" y="804" type="line"/>
      <point x="267" y="823" type="line"/>
      <point x="286" y="842"/>
      <point x="310" y="852"/>
      <point x="335" y="852" type="curve" smooth="yes"/>
      <point x="345" y="852"/>
      <point x="355" y="850"/>
      <point x="365" y="847" type="curve" smooth="yes"/>
      <point x="428" y="828" type="line"/>
      <point x="431.875" y="826.967"/>
      <point x="435.75" y="826.467"/>
      <point x="439.556" y="826.467" type="curve" smooth="yes"/>
      <point x="450.483" y="826.467"/>
      <point x="460.842" y="830.583"/>
      <point x="469" y="838" type="curve"/>
      <point x="488" y="857" type="line"/>
      <point x="499" y="845" type="line"/>
      <point x="481" y="826" type="line"/>
      <point x="462" y="808"/>
      <point x="437" y="798"/>
      <point x="411" y="798" type="curve" smooth="yes"/>
      <point x="402" y="798"/>
      <point x="392" y="799"/>
      <point x="383" y="802" type="curve" smooth="yes"/>
      <point x="320" y="822" type="line"/>
      <point x="316.19" y="823.016"/>
      <point x="312.314" y="823.516"/>
      <point x="308.49" y="823.516" type="curve" smooth="yes"/>
      <point x="297.258" y="823.516"/>
      <point x="286.46" y="819.206"/>
      <point x="279" y="811" type="curve"/>
    </contour>
    <contour>
      <point x="124" y="453" type="line"/>
      <point x="124" y="283" type="line" smooth="yes"/>
      <point x="124" y="145"/>
      <point x="235" y="33"/>
      <point x="374" y="33" type="curve" smooth="yes"/>
      <point x="513" y="33"/>
      <point x="624" y="145"/>
      <point x="624" y="283" type="curve" smooth="yes"/>
      <point x="624" y="453" type="line" smooth="yes"/>
      <point x="624" y="591"/>
      <point x="513" y="703"/>
      <point x="374" y="703" type="curve" smooth="yes"/>
      <point x="235" y="703"/>
      <point x="124" y="591"/>
      <point x="124" y="453" type="curve"/>
    </contour>
  </outline>
</glyph>
<glyph name="Odieresis" format="2">
  <advance width="748"/>
  <unicode hex="00D6"/>
  <outline>
    <contour>
      <point x="48" y="315" type="line"/>
      <point x="48" y="421" type="line" smooth="yes"/>
      <point x="48" y="594"/>
      <point x="189" y="736"/>
      <point x="363" y="736" type="curve" smooth="yes"/>
      <point x="385" y="736" type="line" smooth="yes"/>
      <point x="559" y="736"/>
      <point x="700" y="594"/>
      <point x="700" y="421" type="curve" smooth="yes"/>
      <point x="700" y="315" type="line" smooth="yes"/>
      <point x="700" y="141"/>
      <point x="559" y="0"/>
      <point x="385" y="0" type="curve" smooth="yes"/>
      <point x="363" y="0" type="line" smooth="yes"/>
      <point x="189" y="0"/>
      <point x="48" y="141"/>
      <point x="48" y="315" type="curve"/>
    </contour>
    <contour>
      <point x="328" y="863" type="line"/>
      <point x="346" y="863"/>
      <point x="361" y="848"/>
      <point x="361" y="829" type="curve" smooth="yes"/>
      <point x="361" y="811"/>
      <point x="346" y="796"/>
      <point x="328" y="796" type="curve" smooth="yes"/>
      <point x="309" y="796"/>
      <point x="295" y="811"/>
      <point x="295" y="829" type="curve" smooth="yes"/>
      <point x="295" y="848"/>
      <point x="309" y="863"/>
      <point x="328" y="863" type="curve"/>
    </contour>
    <contour>
      <point x="420" y="863" type="line"/>
      <point x="439" y="863"/>
      <point x="453" y="848"/>
      <point x="453" y="829" type="curve" smooth="yes"/>
      <point x="453" y="811"/>
      <point x="439" y="796"/>
      <point x="420" y="796" type="curve" smooth="yes"/>
      <point x="402" y="796"/>
      <point x="387" y="811"/>
      <point x="387" y="829" type="curve" smooth="yes"/>
      <point x="387" y="848"/>
      <point x="402" y="863"/>
      <point x="420" y="863" type="curve"/>
    </contour>
    <contour>
      <point x="124" y="453" type="line"/>
      <point x="124" y="283" type="line" smooth="yes"/>
      <point x="124" y="145"/>
      <point x="235" y="33"/>
      <point x="374" y="33" type="curve" smooth="yes"/>
      <point x="513" y="33"/>
      <point x="624" y="145"/>
      <point x="624" y="283" type="curve" smooth="yes"/>
      <point x="624" y="453" type="line" smooth="yes"/>
      <point x="624" y="591"/>
      <point x="513" y="703"/>
      <point x="374" y="703" type="curve" smooth="yes"/>
      <point x="235" y="703"/>
      <point x="124" y="591"/>
      <point x="124" y="453" type="curve"/>
    </contour>
  </outline>
</glyph>
<glyph name="multiply" format="2">
  <advance width="475"/>
  <unicode hex="00D7"/>
  <outline>
    <contour>
      <point x="427" y="513" type="line"/>
      <point x="276" y="361" type="line"/>
      <point x="427" y="210" type="line"/>
      <point x="389" y="171" type="line"/>
      <point x="237" y="323" type="line"/>
      <point x="86" y="171" type="line"/>
      <point x="47" y="210" type="line"/>
      <point x="199" y="361" type="line"/>
      <point x="47" y="513" type="line"/>
      <point x="86" y="551" type="line"/>
      <point x="237" y="400" type="line"/>
      <point x="389" y="551" type="line"/>
    </contour>
  </outline>
</glyph>
<glyph name="Oslash" format="2">
  <advance width="748"/>
  <unicode hex="00D8"/>
  <outline>
    <contour>
      <point x="164" y="0" type="line"/>
      <point x="102" y="0" type="line"/>
      <point x="154" y="79" type="line"/>
      <point x="89" y="137"/>
      <point x="48" y="221"/>
      <point x="48" y="315" type="curve" smooth="yes"/>
      <point x="48" y="421" type="line" smooth="yes"/>
      <point x="48" y="594"/>
      <point x="189" y="736"/>
      <point x="363" y="736" type="curve" smooth="yes"/>
      <point x="385" y="736" type="line" smooth="yes"/>
      <point x="447" y="736"/>
      <point x="504" y="718"/>
      <point x="553" y="687" type="curve"/>
      <point x="584" y="735" type="line"/>
      <point x="646" y="735" type="line"/>
      <point x="594" y="656" type="line"/>
      <point x="659" y="598"/>
      <point x="700" y="514"/>
      <point x="700" y="421" type="curve" smooth="yes"/>
      <point x="700" y="315" type="line" smooth="yes"/>
      <point x="700" y="141"/>
      <point x="559" y="0"/>
      <point x="385" y="0" type="curve" smooth="yes"/>
      <point x="363" y="0" type="line" smooth="yes"/>
      <point x="301" y="0"/>
      <point x="244" y="18"/>
      <point x="195" y="48" type="curve"/>
    </contour>
    <contour>
      <point x="124" y="453" type="line"/>
      <point x="124" y="283" type="line" smooth="yes"/>
      <point x="124" y="222"/>
      <point x="145" y="166"/>
      <point x="182" y="122" type="curve"/>
      <point x="528" y="650" type="line"/>
      <point x="486" y="683"/>
      <point x="432" y="703"/>
      <point x="374" y="703" type="curve" smooth="yes"/>
      <point x="235" y="703"/>
      <point x="124" y="591"/>
      <point x="124" y="453" type="curve"/>
    </contour>
    <contour>
      <point x="624" y="453" type="line"/>
      <point x="624" y="514"/>
      <point x="603" y="570"/>
      <point x="566" y="613" type="curve"/>
      <point x="220" y="86" type="line"/>
      <point x="262" y="53"/>
      <point x="316" y="33"/>
      <point x="374" y="33" type="curve" smooth="yes"/>
      <point x="513" y="33"/>
      <point x="624" y="145"/>
      <point x="624" y="283" type="curve" smooth="yes"/>
      <point x="624" y="453" type="line"/>
    </contour>
  </outline>
</glyph>
<glyph name="Ugrave" format="2">
  <advance width="607"/>
  <unicode hex="00D9"/>
  <outline>
    <contour>
      <point x="483" y="207" type="line"/>
      <point x="483" y="736" type="line"/>
      <point x="559" y="736" type="line"/>
      <point x="559" y="250" type="line" smooth="yes"/>
      <point x="559" y="112"/>
      <point x="447" y="0"/>
      <point x="309" y="0" type="curve" smooth="yes"/>
      <point x="171" y="0"/>
      <point x="59" y="112"/>
      <point x="59" y="250" type="curve" smooth="yes"/>
      <point x="59" y="703" type="line"/>
      <point x="0" y="703" type="line"/>
      <point x="0" y="736" type="line"/>
      <point x="135" y="736" type="line"/>
      <point x="135" y="207" type="line" smooth="yes"/>
      <point x="135" y="111"/>
      <point x="213" y="33"/>
      <point x="309" y="33" type="curve" smooth="yes"/>
      <point x="405" y="33"/>
      <point x="483" y="111"/>
      <point x="483" y="207" type="curve"/>
    </contour>
    <contour>
      <point x="222" y="920" type="line"/>
      <point x="288" y="920" type="line"/>
      <point x="340" y="837" type="line"/>
      <point x="309" y="815" type="line"/>
    </contour>
  </outline>
</glyph>
<glyph name="Udieresis" format="2">
  <advance width="607"/>
  <unicode hex="00DC"/>
  <outline>
    <contour>
      <point x="483" y="207" type="line"/>
      <point x="483" y="736" type="line"/>
      <point x="559" y="736" type="line"/>
      <point x="559" y="250" type="line" smooth="yes"/>
      <point x="559" y="112"/>
      <point x="447" y="0"/>
      <point x="309" y="0" type="curve" smooth="yes"/>
      <point x="171" y="0"/>
      <point x="59" y="112"/>
      <point x="59" y="250" type="curve" smooth="yes"/>
      <point x="59" y="703" type="line"/>
      <point x="0" y="703" type="line"/>
      <point x="0" y="736" type="line"/>
      <point x="135" y="736" type="line"/>
      <point x="135" y="207" type="line" smooth="yes"/>
      <point x="135" y="111"/>
      <point x="213" y="33"/>
      <point x="309" y="33" type="curve" smooth="yes"/>
      <point x="405" y="33"/>
      <point x="483" y="111"/>
      <point x="483" y="207" type="curve"/>
    </contour>
    <contour>
      <point x="262" y="881" type="line"/>
      <point x="280" y="881"/>
      <point x="295" y="866"/>
      <point x="295" y="848" type="curve" smooth="yes"/>
      <point x="295" y="830"/>
      <point x="280" y="815"/>
      <point x="262" y="815" type="curve" smooth="yes"/>
      <point x="243" y="815"/>
      <point x="229" y="830"/>
      <point x="229" y="848" type="curve" smooth="yes"/>
      <point x="229" y="866"/>
      <point x="243" y="881"/>
      <point x="262" y="881" type="curve"/>
    </contour>
    <contour>
      <point x="354" y="881" type="line"/>
      <point x="373" y="881"/>
      <point x="387" y="866"/>
      <point x="387" y="848" type="curve" smooth="yes"/>
      <point x="387" y="830"/>
      <point x="373" y="815"/>
      <point x="354" y="815" type="curve" smooth="yes"/>
      <point x="336" y="815"/>
      <point x="321" y="830"/>
      <point x="321" y="848" type="curve" smooth="yes"/>
      <point x="321" y="866"/>
      <point x="336" y="881"/>
      <point x="354" y="881" type="curve"/>
    </contour>
  </outline>
</glyph>
<glyph name="Yacute" format="2">
  <advance width="611"/>
  <unicode hex="00DD"/>
  <outline>
    <contour>
      <point x="351" y="0" type="line"/>
      <point x="275" y="0" type="line"/>
      <point x="275" y="294" type="line"/>
      <point x="59" y="703" type="line"/>
      <point x="0" y="703" type="line"/>
      <point x="0" y="736" type="line"/>
      <point x="127" y="736" type="line"/>
      <point x="337" y="338" type="line"/>
      <point x="546" y="736" type="line"/>
      <point x="583" y="736" type="line"/>
      <point x="351" y="294" type="line"/>
      <point x="351" y="0" type="line"/>
    </contour>
    <contour>
      <point x="358" y="920" type="line"/>
      <point x="424" y="920" type="line"/>
      <point x="337" y="815" type="line"/>
      <point x="306" y="837" type="line"/>
    </contour>
  </outline>
</glyph>
<glyph name="Thorn" format="2">
  <advance width="593"/>
  <unicode hex="00DE"/>
  <outline>
    <contour>
      <point x="296" y="0" type="line"/>
      <point x="229" y="0"/>
      <point x="168" y="27"/>
      <point x="124" y="70" type="curve"/>
      <point x="124" y="-229" type="line"/>
      <point x="48" y="-229" type="line"/>
      <point x="48" y="648" type="line"/>
      <point x="124" y="648" type="line"/>
      <point x="124" y="491" type="line"/>
      <point x="168" y="534"/>
      <point x="229" y="561"/>
      <point x="296" y="561" type="curve" smooth="yes"/>
      <point x="434" y="561"/>
      <point x="545" y="450"/>
      <point x="545" y="312" type="curve" smooth="yes"/>
      <point x="545" y="249" type="line" smooth="yes"/>
      <point x="545" y="112"/>
      <point x="434" y="0"/>
      <point x="296" y="0" type="curve"/>
    </contour>
    <contour>
      <point x="469" y="206" type="line"/>
      <point x="469" y="355" type="line" smooth="yes"/>
      <point x="469" y="451"/>
      <point x="392" y="528"/>
      <point x="296" y="528" type="curve" smooth="yes"/>
      <point x="201" y="528"/>
      <point x="124" y="451"/>
      <point x="124" y="355" type="curve" smooth="yes"/>
      <point x="124" y="206" type="line" smooth="yes"/>
      <point x="124" y="111"/>
      <point x="201" y="33"/>
      <point x="296" y="33" type="curve" smooth="yes"/>
      <point x="392" y="33"/>
      <point x="469" y="111"/>
      <point x="469" y="206" type="curve"/>
    </contour>
  </outline>
</glyph>
<glyph name="germandbls" format="2">
  <advance width="539"/>
  <unicode hex="00DF"/>
  <outline>
    <contour>
      <point x="288" y="385" type="line"/>
      <point x="309" y="385" type="line" smooth="yes"/>
      <point x="426" y="385"/>
      <point x="521" y="298"/>
      <point x="521" y="192" type="curve" smooth="yes"/>
      <point x="521" y="86"/>
      <point x="426" y="0"/>
      <point x="309" y="0" type="curve" smooth="yes"/>
      <point x="230" y="0" type="line"/>
      <point x="230" y="33" type="line"/>
      <point x="309" y="33" type="line" smooth="yes"/>
      <point x="385" y="33"/>
      <point x="448" y="105"/>
      <point x="448" y="192" type="curve" smooth="yes"/>
      <point x="448" y="280"/>
      <point x="385" y="351"/>
      <point x="309" y="351" type="curve" smooth="yes"/>
      <point x="220" y="351" type="line"/>
      <point x="220" y="393" type="line"/>
      <point x="364" y="515" type="line" smooth="yes"/>
      <point x="387" y="534"/>
      <point x="399" y="562"/>
      <point x="399" y="592" type="curve" smooth="yes"/>
      <point x="399" y="703" type="line"/>
      <point x="206" y="703" type="line" smooth="yes"/>
      <point x="159" y="703"/>
      <point x="121" y="664"/>
      <point x="121" y="617" type="curve" smooth="yes"/>
      <point x="121" y="0" type="line"/>
      <point x="48" y="0" type="line"/>
      <point x="48" y="585" type="line" smooth="yes"/>
      <point x="48" y="668"/>
      <point x="115" y="736"/>
      <point x="197" y="736" type="curve" smooth="yes"/>
      <point x="473" y="736" type="line"/>
      <point x="473" y="591" type="line" smooth="yes"/>
      <point x="473" y="560"/>
      <point x="460" y="531"/>
      <point x="436" y="511" type="curve" smooth="yes"/>
    </contour>
  </outline>
</glyph>
<glyph name="atilde" format="2">
  <advance width="503"/>
  <unicode hex="00E3"/>
  <outline>
    <contour>
      <point x="93" y="561" type="line"/>
      <point x="281" y="561" type="line" smooth="yes"/>
      <point x="378" y="561"/>
      <point x="456" y="482"/>
      <point x="456" y="386" type="curve" smooth="yes"/>
      <point x="456" y="18" type="line"/>
      <point x="425" y="0" type="line"/>
      <point x="409" y="56" type="line"/>
      <point x="377" y="22"/>
      <point x="332" y="0"/>
      <point x="281" y="0" type="curve" smooth="yes"/>
      <point x="172" y="0" type="line" smooth="yes"/>
      <point x="111" y="0"/>
      <point x="58" y="42"/>
      <point x="44" y="101" type="curve" smooth="yes"/>
      <point x="32" y="150" type="line" smooth="yes"/>
      <point x="28.7276" y="163.685"/>
      <point x="27.1588" y="177.392"/>
      <point x="27.1588" y="190.894" type="curve" smooth="yes"/>
      <point x="27.1588" y="268.162"/>
      <point x="78.5361" y="338.719"/>
      <point x="156" y="360" type="curve" smooth="yes"/>
      <point x="254" y="387" type="line" smooth="yes"/>
      <point x="268" y="391"/>
      <point x="282" y="393"/>
      <point x="296" y="393" type="curve" smooth="yes"/>
      <point x="326" y="393"/>
      <point x="355" y="384"/>
      <point x="380" y="368" type="curve"/>
      <point x="380" y="428" type="line" smooth="yes"/>
      <point x="380" y="483"/>
      <point x="335" y="528"/>
      <point x="280" y="528" type="curve" smooth="yes"/>
      <point x="93" y="528" type="line"/>
      <point x="93" y="561" type="line"/>
    </contour>
    <contour>
      <point x="156" y="657" type="line"/>
      <point x="138" y="639" type="line"/>
      <point x="126" y="650" type="line"/>
      <point x="145" y="669" type="line" smooth="yes"/>
      <point x="163" y="687"/>
      <point x="188" y="697"/>
      <point x="214" y="697" type="curve" smooth="yes"/>
      <point x="223" y="697"/>
      <point x="233" y="696"/>
      <point x="242" y="693" type="curve"/>
      <point x="306" y="674" type="line" smooth="yes"/>
      <point x="309.922" y="672.88"/>
      <point x="314" y="672.308"/>
      <point x="318.082" y="672.308" type="curve" smooth="yes"/>
      <point x="328.571" y="672.308"/>
      <point x="339.081" y="676.081"/>
      <point x="347" y="684" type="curve"/>
      <point x="365" y="703" type="line"/>
      <point x="377" y="691" type="line"/>
      <point x="358" y="672" type="line" smooth="yes"/>
      <point x="340" y="654"/>
      <point x="315" y="644"/>
      <point x="289" y="644" type="curve" smooth="yes"/>
      <point x="280" y="644"/>
      <point x="270" y="645"/>
      <point x="261" y="648" type="curve"/>
      <point x="197" y="667" type="line"/>
      <point x="193" y="668"/>
      <point x="189" y="669"/>
      <point x="185" y="669" type="curve" smooth="yes"/>
      <point x="174" y="669"/>
      <point x="164" y="665"/>
      <point x="156" y="657" type="curve"/>
    </contour>
    <contour>
      <point x="172" y="33" type="line"/>
      <point x="280" y="33" type="line" smooth="yes"/>
      <point x="335" y="33"/>
      <point x="380" y="78"/>
      <point x="380" y="133" type="curve" smooth="yes"/>
      <point x="380" y="254" type="line" smooth="yes"/>
      <point x="380" y="311"/>
      <point x="334" y="354"/>
      <point x="280" y="354" type="curve" smooth="yes"/>
      <point x="271" y="354"/>
      <point x="262" y="353"/>
      <point x="253" y="350" type="curve"/>
      <point x="185" y="331" type="line" smooth="yes"/>
      <point x="129.848" y="315.727"/>
      <point x="93.4143" y="265.897"/>
      <point x="93.4143" y="210.831" type="curve" smooth="yes"/>
      <point x="93.4143" y="200.999"/>
      <point x="94.5759" y="191"/>
      <point x="97" y="181" type="curve" smooth="yes"/>
      <point x="123" y="71" type="line" smooth="yes"/>
      <point x="128" y="49"/>
      <point x="149" y="33"/>
      <point x="172" y="33" type="curve"/>
    </contour>
  </outline>
</glyph>
<glyph name="aring" format="2">
  <advance width="503"/>
  <unicode hex="00E5"/>
  <outline>
    <contour>
      <point x="93" y="561" type="line"/>
      <point x="281" y="561" type="line" smooth="yes"/>
      <point x="378" y="561"/>
      <point x="456" y="482"/>
      <point x="456" y="386" type="curve" smooth="yes"/>
      <point x="456" y="18" type="line"/>
      <point x="425" y="0" type="line"/>
      <point x="409" y="56" type="line"/>
      <point x="377" y="22"/>
      <point x="332" y="0"/>
      <point x="281" y="0" type="curve" smooth="yes"/>
      <point x="172" y="0" type="line" smooth="yes"/>
      <point x="111" y="0"/>
      <point x="58" y="42"/>
      <point x="44" y="101" type="curve" smooth="yes"/>
      <point x="32" y="150" type="line" smooth="yes"/>
      <point x="28.7276" y="163.685"/>
      <point x="27.1588" y="177.392"/>
      <point x="27.1588" y="190.894" type="curve" smooth="yes"/>
      <point x="27.1588" y="268.162"/>
      <point x="78.5361" y="338.719"/>
      <point x="156" y="360" type="curve" smooth="yes"/>
      <point x="254" y="387" type="line" smooth="yes"/>
      <point x="268" y="391"/>
      <point x="282" y="393"/>
      <point x="296" y="393" type="curve" smooth="yes"/>
      <point x="326" y="393"/>
      <point x="355" y="384"/>
      <point x="380" y="368" type="curve"/>
      <point x="380" y="428" type="line" smooth="yes"/>
      <point x="380" y="483"/>
      <point x="335" y="528"/>
      <point x="280" y="528" type="curve" smooth="yes"/>
      <point x="93" y="528" type="line"/>
      <point x="93" y="561" type="line"/>
    </contour>
    <contour>
      <point x="252" y="627" type="line"/>
      <point x="222" y="627"/>
      <point x="197" y="651"/>
      <point x="197" y="681" type="curve" smooth="yes"/>
      <point x="197" y="711"/>
      <point x="222" y="735"/>
      <point x="252" y="735" type="curve" smooth="yes"/>
      <point x="281" y="735"/>
      <point x="306" y="711"/>
      <point x="306" y="681" type="curve" smooth="yes"/>
      <point x="306" y="651"/>
      <point x="281" y="627"/>
      <point x="252" y="627" type="curve"/>
    </contour>
    <contour>
      <point x="172" y="33" type="line"/>
      <point x="280" y="33" type="line" smooth="yes"/>
      <point x="335" y="33"/>
      <point x="380" y="78"/>
      <point x="380" y="133" type="curve" smooth="yes"/>
      <point x="380" y="254" type="line" smooth="yes"/>
      <point x="380" y="311"/>
      <point x="334" y="354"/>
      <point x="280" y="354" type="curve" smooth="yes"/>
      <point x="271" y="354"/>
      <point x="262" y="353"/>
      <point x="253" y="350" type="curve"/>
      <point x="185" y="331" type="line" smooth="yes"/>
      <point x="129.848" y="315.727"/>
      <point x="93.4143" y="265.897"/>
      <point x="93.4143" y="210.831" type="curve" smooth="yes"/>
      <point x="93.4143" y="200.999"/>
      <point x="94.5759" y="191"/>
      <point x="97" y="181" type="curve" smooth="yes"/>
      <point x="123" y="71" type="line" smooth="yes"/>
      <point x="128" y="49"/>
      <point x="149" y="33"/>
      <point x="172" y="33" type="curve"/>
    </contour>
    <contour>
      <point x="252" y="717" type="line"/>
      <point x="232" y="717"/>
      <point x="216" y="701"/>
      <point x="216" y="681" type="curve" smooth="yes"/>
      <point x="216" y="662"/>
      <point x="232" y="645"/>
      <point x="252" y="645" type="curve" smooth="yes"/>
      <point x="271" y="645"/>
      <point x="287" y="662"/>
      <point x="287" y="681" type="curve" smooth="yes"/>
      <point x="287" y="701"/>
      <point x="271" y="717"/>
      <point x="252" y="717" type="curve"/>
    </contour>
  </outline>
</glyph>
<glyph name="ae" format="2">
  <advance width="864"/>
  <unicode hex="00E6"/>
  <outline>
    <contour>
      <point x="391" y="421" type="line"/>
      <point x="391" y="428" type="line" smooth="yes"/>
      <point x="391" y="483"/>
      <point x="346" y="528"/>
      <point x="291" y="528" type="curve" smooth="yes"/>
      <point x="79" y="528" type="line"/>
      <point x="79" y="561" type="line"/>
      <point x="291" y="561" type="line" smooth="yes"/>
      <point x="353" y="561"/>
      <point x="407" y="529"/>
      <point x="438" y="481" type="curve"/>
      <point x="477" y="530"/>
      <point x="537" y="561"/>
      <point x="603" y="561" type="curve" smooth="yes"/>
      <point x="816" y="561" type="line"/>
      <point x="816" y="382" type="line" smooth="yes"/>
      <point x="816" y="323"/>
      <point x="776" y="272"/>
      <point x="719" y="257" type="curve" smooth="yes"/>
      <point x="542" y="210" type="line"/>
      <point x="542" y="246" type="line"/>
      <point x="666" y="279" type="line" smooth="yes"/>
      <point x="710" y="290"/>
      <point x="740" y="330"/>
      <point x="740" y="376" type="curve" smooth="yes"/>
      <point x="740" y="528" type="line"/>
      <point x="603" y="528" type="line" smooth="yes"/>
      <point x="528" y="528"/>
      <point x="466" y="466"/>
      <point x="466" y="391" type="curve" smooth="yes"/>
      <point x="466" y="170" type="line" smooth="yes"/>
      <point x="466" y="94"/>
      <point x="528" y="33"/>
      <point x="603" y="33" type="curve" smooth="yes"/>
      <point x="779" y="33" type="line"/>
      <point x="779" y="0" type="line"/>
      <point x="603" y="0" type="line" smooth="yes"/>
      <point x="537" y="0"/>
      <point x="477" y="31"/>
      <point x="438" y="79" type="curve"/>
      <point x="407" y="31"/>
      <point x="353" y="0"/>
      <point x="291" y="0" type="curve" smooth="yes"/>
      <point x="142" y="0" type="line" smooth="yes"/>
      <point x="105" y="0"/>
      <point x="73" y="25"/>
      <point x="64" y="61" type="curve" smooth="yes"/>
      <point x="43" y="150" type="line" smooth="yes"/>
      <point x="39.4625" y="164.15"/>
      <point x="37.7701" y="178.324"/>
      <point x="37.7701" y="192.27" type="curve" smooth="yes"/>
      <point x="37.7701" y="268.999"/>
      <point x="88.9962" y="338.845"/>
      <point x="166" y="360" type="curve" smooth="yes"/>
    </contour>
    <contour>
      <point x="182" y="33" type="line"/>
      <point x="291" y="33" type="line" smooth="yes"/>
      <point x="346" y="33"/>
      <point x="391" y="78"/>
      <point x="391" y="133" type="curve" smooth="yes"/>
      <point x="391" y="385" type="line"/>
      <point x="195" y="331" type="line" smooth="yes"/>
      <point x="139.848" y="315.727"/>
      <point x="103.414" y="265.897"/>
      <point x="103.414" y="210.831" type="curve" smooth="yes"/>
      <point x="103.414" y="200.999"/>
      <point x="104.576" y="191"/>
      <point x="107" y="181" type="curve" smooth="yes"/>
      <point x="134" y="71" type="line" smooth="yes"/>
      <point x="139" y="49"/>
      <point x="159" y="33"/>
      <point x="182" y="33" type="curve"/>
    </contour>
  </outline>
</glyph>
<glyph name="ccedilla" format="2">
  <advance width="541"/>
  <unicode hex="00E7"/>
  <outline>
    <contour>
      <point x="461" y="151" type="line"/>
      <point x="513" y="126" type="line"/>
      <point x="471" y="52"/>
      <point x="391" y="1"/>
      <point x="300" y="0" type="curve"/>
      <point x="261" y="-58" type="line"/>
      <point x="330" y="-71" type="line"/>
      <point x="330" y="-124"/>
      <point x="288" y="-166"/>
      <point x="235" y="-166" type="curve" smooth="yes"/>
      <point x="212" y="-166" type="line"/>
      <point x="212" y="-144" type="line"/>
      <point x="219" y="-144" type="line"/>
      <point x="251" y="-143"/>
      <point x="277" y="-117"/>
      <point x="277" y="-85" type="curve"/>
      <point x="211" y="-72" type="line"/>
      <point x="211" y="-54" type="line"/>
      <point x="250" y="4" type="line"/>
      <point x="135" y="26"/>
      <point x="48" y="127"/>
      <point x="48" y="249" type="curve" smooth="yes"/>
      <point x="48" y="312" type="line" smooth="yes"/>
      <point x="48" y="449"/>
      <point x="159" y="561"/>
      <point x="297" y="561" type="curve" smooth="yes"/>
      <point x="389" y="561"/>
      <point x="470" y="510"/>
      <point x="513" y="435" type="curve"/>
      <point x="461" y="410" type="line"/>
      <point x="438" y="478"/>
      <point x="373" y="528"/>
      <point x="297" y="528" type="curve" smooth="yes"/>
      <point x="201" y="528"/>
      <point x="124" y="450"/>
      <point x="124" y="355" type="curve" smooth="yes"/>
      <point x="124" y="206" type="line" smooth="yes"/>
      <point x="124" y="110"/>
      <point x="201" y="33"/>
      <point x="297" y="33" type="curve" smooth="yes"/>
      <point x="373" y="33"/>
      <point x="438" y="82"/>
      <point x="461" y="151" type="curve"/>
    </contour>
  </outline>
</glyph>
<glyph name="eacute" format="2">
  <advance width="520"/>
  <unicode hex="00E9"/>
  <outline>
    <contour>
      <point x="473" y="561" type="line"/>
      <point x="473" y="382" type="line" smooth="yes"/>
      <point x="473" y="323"/>
      <point x="433" y="272"/>
      <point x="376" y="257" type="curve" smooth="yes"/>
      <point x="199" y="210" type="line"/>
      <point x="199" y="246" type="line"/>
      <point x="322" y="279" type="line" smooth="yes"/>
      <point x="366" y="290"/>
      <point x="397" y="330"/>
      <point x="397" y="376" type="curve" smooth="yes"/>
      <point x="397" y="528" type="line"/>
      <point x="260" y="528" type="line" smooth="yes"/>
      <point x="184" y="528"/>
      <point x="123" y="466"/>
      <point x="123" y="391" type="curve" smooth="yes"/>
      <point x="123" y="170" type="line" smooth="yes"/>
      <point x="123" y="94"/>
      <point x="184" y="33"/>
      <point x="260" y="33" type="curve" smooth="yes"/>
      <point x="436" y="33" type="line"/>
      <point x="436" y="0" type="line"/>
      <point x="260" y="0" type="line" smooth="yes"/>
      <point x="142" y="0"/>
      <point x="47" y="95"/>
      <point x="47" y="213" type="curve" smooth="yes"/>
      <point x="47" y="348" type="line" smooth="yes"/>
      <point x="47" y="465"/>
      <point x="142" y="561"/>
      <point x="260" y="561" type="curve" smooth="yes"/>
      <point x="473" y="561" type="line"/>
    </contour>
    <contour>
      <point x="253" y="735" type="line"/>
      <point x="319" y="735" type="line"/>
      <point x="232" y="630" type="line"/>
      <point x="201" y="653" type="line"/>
    </contour>
  </outline>
</glyph>
<glyph name="ecircumflex" format="2">
  <advance width="520"/>
  <unicode hex="00EA"/>
  <outline>
    <contour>
      <point x="473" y="561" type="line"/>
      <point x="473" y="382" type="line" smooth="yes"/>
      <point x="473" y="323"/>
      <point x="433" y="272"/>
      <point x="376" y="257" type="curve" smooth="yes"/>
      <point x="199" y="210" type="line"/>
      <point x="199" y="246" type="line"/>
      <point x="322" y="279" type="line" smooth="yes"/>
      <point x="366" y="290"/>
      <point x="397" y="330"/>
      <point x="397" y="376" type="curve" smooth="yes"/>
      <point x="397" y="528" type="line"/>
      <point x="260" y="528" type="line" smooth="yes"/>
      <point x="184" y="528"/>
      <point x="123" y="466"/>
      <point x="123" y="391" type="curve" smooth="yes"/>
      <point x="123" y="170" type="line" smooth="yes"/>
      <point x="123" y="94"/>
      <point x="184" y="33"/>
      <point x="260" y="33" type="curve" smooth="yes"/>
      <point x="436" y="33" type="line"/>
      <point x="436" y="0" type="line"/>
      <point x="260" y="0" type="line" smooth="yes"/>
      <point x="142" y="0"/>
      <point x="47" y="95"/>
      <point x="47" y="213" type="curve" smooth="yes"/>
      <point x="47" y="348" type="line" smooth="yes"/>
      <point x="47" y="465"/>
      <point x="142" y="561"/>
      <point x="260" y="561" type="curve" smooth="yes"/>
      <point x="473" y="561" type="line"/>
    </contour>
    <contour>
      <point x="229" y="736" type="line"/>
      <point x="291" y="736" type="line"/>
      <point x="340" y="658" type="line"/>
      <point x="311" y="637" type="line"/>
      <point x="260" y="698" type="line"/>
      <point x="209" y="637" type="line"/>
      <point x="180" y="658" type="line"/>
    </contour>
  </outline>
</glyph>
<glyph name="edieresis" format="2">
  <advance width="520"/>
  <unicode hex="00EB"/>
  <outline>
    <contour>
      <point x="473" y="561" type="line"/>
      <point x="473" y="382" type="line" smooth="yes"/>
      <point x="473" y="323"/>
      <point x="433" y="272"/>
      <point x="376" y="257" type="curve" smooth="yes"/>
      <point x="199" y="210" type="line"/>
      <point x="199" y="246" type="line"/>
      <point x="322" y="279" type="line" smooth="yes"/>
      <point x="366" y="290"/>
      <point x="397" y="330"/>
      <point x="397" y="376" type="curve" smooth="yes"/>
      <point x="397" y="528" type="line"/>
      <point x="260" y="528" type="line" smooth="yes"/>
      <point x="184" y="528"/>
      <point x="123" y="466"/>
      <point x="123" y="391" type="curve" smooth="yes"/>
      <point x="123" y="170" type="line" smooth="yes"/>
      <point x="123" y="94"/>
      <point x="184" y="33"/>
      <point x="260" y="33" type="curve" smooth="yes"/>
      <point x="436" y="33" type="line"/>
      <point x="436" y="0" type="line"/>
      <point x="260" y="0" type="line" smooth="yes"/>
      <point x="142" y="0"/>
      <point x="47" y="95"/>
      <point x="47" y="213" type="curve" smooth="yes"/>
      <point x="47" y="348" type="line" smooth="yes"/>
      <point x="47" y="465"/>
      <point x="142" y="561"/>
      <point x="260" y="561" type="curve" smooth="yes"/>
      <point x="473" y="561" type="line"/>
    </contour>
    <contour>
      <point x="260" y="703" type="line"/>
      <point x="278" y="703"/>
      <point x="293" y="688"/>
      <point x="293" y="669" type="curve" smooth="yes"/>
      <point x="293" y="651"/>
      <point x="278" y="636"/>
      <point x="260" y="636" type="curve" smooth="yes"/>
      <point x="242" y="636"/>
      <point x="227" y="651"/>
      <point x="227" y="669" type="curve" smooth="yes"/>
      <point x="227" y="688"/>
      <point x="242" y="703"/>
      <point x="260" y="703" type="curve"/>
    </contour>
    <contour>
      <point x="353" y="703" type="line"/>
      <point x="371" y="703"/>
      <point x="386" y="688"/>
      <point x="386" y="669" type="curve" smooth="yes"/>
      <point x="386" y="651"/>
      <point x="371" y="636"/>
      <point x="353" y="636" type="curve" smooth="yes"/>
      <point x="334" y="636"/>
      <point x="319" y="651"/>
      <point x="319" y="669" type="curve" smooth="yes"/>
      <point x="319" y="688"/>
      <point x="334" y="703"/>
      <point x="353" y="703" type="curve"/>
    </contour>
  </outline>
</glyph>
<glyph name="igrave" format="2">
  <advance width="214"/>
  <unicode hex="00EC"/>
  <outline>
    <contour>
      <point x="79" y="0" type="line"/>
      <point x="79" y="561" type="line"/>
      <point x="155" y="561" type="line"/>
      <point x="155" y="0" type="line"/>
      <point x="79" y="0" type="line"/>
    </contour>
    <contour>
      <point x="48" y="735" type="line"/>
      <point x="114" y="735" type="line"/>
      <point x="166" y="653" type="line"/>
      <point x="135" y="630" type="line"/>
    </contour>
  </outline>
</glyph>
<glyph name="iacute" format="2">
  <advance width="214"/>
  <unicode hex="00ED"/>
  <outline>
    <contour>
      <point x="73" y="0" type="line"/>
      <point x="73" y="561" type="line"/>
      <point x="149" y="561" type="line"/>
      <point x="149" y="0" type="line"/>
      <point x="73" y="0" type="line"/>
    </contour>
    <contour>
      <point x="100" y="735" type="line"/>
      <point x="166" y="735" type="line"/>
      <point x="79" y="630" type="line"/>
      <point x="48" y="653" type="line"/>
    </contour>
  </outline>
</glyph>
<glyph name="icircumflex" format="2">
  <advance width="281"/>
  <unicode hex="00EE"/>
  <outline>
    <contour>
      <point x="89" y="0" type="line"/>
      <point x="89" y="561" type="line"/>
      <point x="165" y="561" type="line"/>
      <point x="165" y="0" type="line"/>
      <point x="89" y="0" type="line"/>
    </contour>
    <contour>
      <point x="96" y="735" type="line"/>
      <point x="158" y="735" type="line"/>
      <point x="207" y="658" type="line"/>
      <point x="178" y="637" type="line"/>
      <point x="127" y="698" type="line"/>
      <point x="76" y="637" type="line"/>
      <point x="47" y="658" type="line"/>
    </contour>
  </outline>
</glyph>
<glyph name="idieresis" format="2">
  <advance width="254"/>
  <unicode hex="00EF"/>
  <outline>
    <contour>
      <point x="89" y="0" type="line"/>
      <point x="89" y="561" type="line"/>
      <point x="165" y="561" type="line"/>
      <point x="165" y="0" type="line"/>
      <point x="89" y="0" type="line"/>
    </contour>
    <contour>
      <point x="81" y="703" type="line"/>
      <point x="99" y="703"/>
      <point x="114" y="688"/>
      <point x="114" y="669" type="curve" smooth="yes"/>
      <point x="114" y="651"/>
      <point x="99" y="636"/>
      <point x="81" y="636" type="curve" smooth="yes"/>
      <point x="62" y="636"/>
      <point x="48" y="651"/>
      <point x="48" y="669" type="curve" smooth="yes"/>
      <point x="48" y="688"/>
      <point x="62" y="703"/>
      <point x="81" y="703" type="curve"/>
    </contour>
    <contour>
      <point x="173" y="703" type="line"/>
      <point x="192" y="703"/>
      <point x="206" y="688"/>
      <point x="206" y="669" type="curve" smooth="yes"/>
      <point x="206" y="651"/>
      <point x="192" y="636"/>
      <point x="173" y="636" type="curve" smooth="yes"/>
      <point x="155" y="636"/>
      <point x="140" y="651"/>
      <point x="140" y="669" type="curve" smooth="yes"/>
      <point x="140" y="688"/>
      <point x="155" y="703"/>
      <point x="173" y="703" type="curve"/>
    </contour>
  </outline>
</glyph>
<glyph name="ntilde" format="2">
  <advance width="552"/>
  <unicode hex="00F1"/>
  <outline>
    <contour>
      <point x="504" y="489" type="line"/>
      <point x="504" y="0" type="line"/>
      <point x="428" y="0" type="line"/>
      <point x="428" y="501" type="line"/>
      <point x="402" y="518"/>
      <point x="371" y="528"/>
      <point x="337" y="528" type="curve" smooth="yes"/>
      <point x="320" y="528" type="line" smooth="yes"/>
      <point x="227" y="528"/>
      <point x="153" y="453"/>
      <point x="153" y="361" type="curve" smooth="yes"/>
      <point x="153" y="0" type="line"/>
      <point x="77" y="0" type="line"/>
      <point x="77" y="528" type="line"/>
      <point x="17" y="542" type="line"/>
      <point x="17" y="561" type="line"/>
      <point x="153" y="528" type="line"/>
      <point x="153" y="489" type="line"/>
      <point x="200" y="535"/>
      <point x="264" y="561"/>
      <point x="330" y="561" type="curve"/>
      <point x="395" y="560"/>
      <point x="457" y="534"/>
      <point x="504" y="489" type="curve"/>
    </contour>
    <contour>
      <point x="216" y="657" type="line"/>
      <point x="197" y="639" type="line"/>
      <point x="186" y="650" type="line"/>
      <point x="205" y="669" type="line" smooth="yes"/>
      <point x="223" y="687"/>
      <point x="248" y="697"/>
      <point x="274" y="697" type="curve" smooth="yes"/>
      <point x="283" y="697"/>
      <point x="293" y="696"/>
      <point x="302" y="693" type="curve"/>
      <point x="365" y="674" type="line"/>
      <point x="369.202" y="672.88"/>
      <point x="373.482" y="672.308"/>
      <point x="377.687" y="672.308" type="curve" smooth="yes"/>
      <point x="388.493" y="672.308"/>
      <point x="398.801" y="676.081"/>
      <point x="406" y="684" type="curve"/>
      <point x="425" y="703" type="line"/>
      <point x="437" y="691" type="line"/>
      <point x="418" y="672" type="line"/>
      <point x="399" y="654"/>
      <point x="374" y="644"/>
      <point x="349" y="644" type="curve" smooth="yes"/>
      <point x="339" y="644"/>
      <point x="330" y="645"/>
      <point x="320" y="648" type="curve" smooth="yes"/>
      <point x="257" y="667" type="line"/>
      <point x="253" y="668"/>
      <point x="248" y="669"/>
      <point x="244" y="669" type="curve" smooth="yes"/>
      <point x="234" y="669"/>
      <point x="224" y="665"/>
      <point x="216" y="657" type="curve"/>
    </contour>
  </outline>
</glyph>
<glyph name="oacute" format="2">
  <advance width="592"/>
  <unicode hex="00F3"/>
  <outline>
    <contour>
      <point x="47" y="249" type="line"/>
      <point x="47" y="312" type="line" smooth="yes"/>
      <point x="47" y="449"/>
      <point x="159" y="561"/>
      <point x="296" y="561" type="curve" smooth="yes"/>
      <point x="433" y="561"/>
      <point x="545" y="449"/>
      <point x="545" y="312" type="curve" smooth="yes"/>
      <point x="545" y="249" type="line" smooth="yes"/>
      <point x="545" y="111"/>
      <point x="433" y="0"/>
      <point x="296" y="0" type="curve" smooth="yes"/>
      <point x="159" y="0"/>
      <point x="47" y="111"/>
      <point x="47" y="249" type="curve"/>
    </contour>
    <contour>
      <point x="289" y="735" type="line"/>
      <point x="355" y="735" type="line"/>
      <point x="268" y="630" type="line"/>
      <point x="237" y="653" type="line"/>
    </contour>
    <contour>
      <point x="123" y="355" type="line"/>
      <point x="123" y="206" type="line" smooth="yes"/>
      <point x="123" y="110"/>
      <point x="201" y="33"/>
      <point x="296" y="33" type="curve" smooth="yes"/>
      <point x="391" y="33"/>
      <point x="469" y="110"/>
      <point x="469" y="206" type="curve" smooth="yes"/>
      <point x="469" y="355" type="line" smooth="yes"/>
      <point x="469" y="450"/>
      <point x="391" y="528"/>
      <point x="296" y="528" type="curve" smooth="yes"/>
      <point x="201" y="528"/>
      <point x="123" y="450"/>
      <point x="123" y="355" type="curve"/>
    </contour>
  </outline>
</glyph>
<glyph name="ocircumflex" format="2">
  <advance width="592"/>
  <unicode hex="00F4"/>
  <outline>
    <contour>
      <point x="47" y="249" type="line"/>
      <point x="47" y="312" type="line" smooth="yes"/>
      <point x="47" y="449"/>
      <point x="159" y="561"/>
      <point x="296" y="561" type="curve" smooth="yes"/>
      <point x="433" y="561"/>
      <point x="545" y="449"/>
      <point x="545" y="312" type="curve" smooth="yes"/>
      <point x="545" y="249" type="line" smooth="yes"/>
      <point x="545" y="111"/>
      <point x="433" y="0"/>
      <point x="296" y="0" type="curve" smooth="yes"/>
      <point x="159" y="0"/>
      <point x="47" y="111"/>
      <point x="47" y="249" type="curve"/>
    </contour>
    <contour>
      <point x="265" y="735" type="line"/>
      <point x="327" y="735" type="line"/>
      <point x="376" y="658" type="line"/>
      <point x="347" y="637" type="line"/>
      <point x="296" y="698" type="line"/>
      <point x="245" y="637" type="line"/>
      <point x="216" y="658" type="line"/>
    </contour>
    <contour>
      <point x="123" y="355" type="line"/>
      <point x="123" y="206" type="line" smooth="yes"/>
      <point x="123" y="110"/>
      <point x="201" y="33"/>
      <point x="296" y="33" type="curve" smooth="yes"/>
      <point x="391" y="33"/>
      <point x="469" y="110"/>
      <point x="469" y="206" type="curve" smooth="yes"/>
      <point x="469" y="355" type="line" smooth="yes"/>
      <point x="469" y="450"/>
      <point x="391" y="528"/>
      <point x="296" y="528" type="curve" smooth="yes"/>
      <point x="201" y="528"/>
      <point x="123" y="450"/>
      <point x="123" y="355" type="curve"/>
    </contour>
  </outline>
</glyph>
<glyph name="otilde" format="2">
  <advance width="592"/>
  <unicode hex="00F5"/>
  <outline>
    <contour>
      <point x="47" y="249" type="line"/>
      <point x="47" y="312" type="line" smooth="yes"/>
      <point x="47" y="449"/>
      <point x="159" y="561"/>
      <point x="296" y="561" type="curve" smooth="yes"/>
      <point x="433" y="561"/>
      <point x="545" y="449"/>
      <point x="545" y="312" type="curve" smooth="yes"/>
      <point x="545" y="249" type="line" smooth="yes"/>
      <point x="545" y="111"/>
      <point x="433" y="0"/>
      <point x="296" y="0" type="curve" smooth="yes"/>
      <point x="159" y="0"/>
      <point x="47" y="111"/>
      <point x="47" y="249" type="curve"/>
    </contour>
    <contour>
      <point x="201" y="657" type="line"/>
      <point x="182" y="639" type="line"/>
      <point x="171" y="650" type="line"/>
      <point x="189" y="669" type="line"/>
      <point x="208" y="687"/>
      <point x="233" y="697"/>
      <point x="258" y="697" type="curve" smooth="yes"/>
      <point x="268" y="697"/>
      <point x="277" y="696"/>
      <point x="287" y="693" type="curve" smooth="yes"/>
      <point x="350" y="674" type="line"/>
      <point x="354.202" y="672.88"/>
      <point x="358.403" y="672.308"/>
      <point x="362.517" y="672.308" type="curve" smooth="yes"/>
      <point x="373.089" y="672.308"/>
      <point x="383.081" y="676.081"/>
      <point x="391" y="684" type="curve" smooth="yes"/>
      <point x="410" y="703" type="line"/>
      <point x="421" y="691" type="line"/>
      <point x="403" y="672" type="line"/>
      <point x="384" y="654"/>
      <point x="359" y="644"/>
      <point x="334" y="644" type="curve" smooth="yes"/>
      <point x="324" y="644"/>
      <point x="315" y="645"/>
      <point x="305" y="648" type="curve" smooth="yes"/>
      <point x="242" y="667" type="line"/>
      <point x="238" y="668"/>
      <point x="233" y="669"/>
      <point x="229" y="669" type="curve" smooth="yes"/>
      <point x="218" y="669"/>
      <point x="208" y="665"/>
      <point x="201" y="657" type="curve"/>
    </contour>
    <contour>
      <point x="123" y="355" type="line"/>
      <point x="123" y="206" type="line" smooth="yes"/>
      <point x="123" y="110"/>
      <point x="201" y="33"/>
      <point x="296" y="33" type="curve" smooth="yes"/>
      <point x="391" y="33"/>
      <point x="469" y="110"/>
      <point x="469" y="206" type="curve" smooth="yes"/>
      <point x="469" y="355" type="line" smooth="yes"/>
      <point x="469" y="450"/>
      <point x="391" y="528"/>
      <point x="296" y="528" type="curve" smooth="yes"/>
      <point x="201" y="528"/>
      <point x="123" y="450"/>
      <point x="123" y="355" type="curve"/>
    </contour>
  </outline>
</glyph>
<glyph name="odieresis" format="2">
  <advance width="592"/>
  <unicode hex="00F6"/>
  <outline>
    <contour>
      <point x="47" y="249" type="line"/>
      <point x="47" y="312" type="line" smooth="yes"/>
      <point x="47" y="449"/>
      <point x="159" y="561"/>
      <point x="296" y="561" type="curve" smooth="yes"/>
      <point x="433" y="561"/>
      <point x="545" y="449"/>
      <point x="545" y="312" type="curve" smooth="yes"/>
      <point x="545" y="249" type="line" smooth="yes"/>
      <point x="545" y="111"/>
      <point x="433" y="0"/>
      <point x="296" y="0" type="curve" smooth="yes"/>
      <point x="159" y="0"/>
      <point x="47" y="111"/>
      <point x="47" y="249" type="curve"/>
    </contour>
    <contour>
      <point x="249" y="703" type="line"/>
      <point x="267" y="703"/>
      <point x="282" y="688"/>
      <point x="282" y="669" type="curve" smooth="yes"/>
      <point x="282" y="651"/>
      <point x="267" y="636"/>
      <point x="249" y="636" type="curve" smooth="yes"/>
      <point x="231" y="636"/>
      <point x="216" y="651"/>
      <point x="216" y="669" type="curve" smooth="yes"/>
      <point x="216" y="688"/>
      <point x="231" y="703"/>
      <point x="249" y="703" type="curve"/>
    </contour>
    <contour>
      <point x="342" y="703" type="line"/>
      <point x="360" y="703"/>
      <point x="375" y="688"/>
      <point x="375" y="669" type="curve" smooth="yes"/>
      <point x="375" y="651"/>
      <point x="360" y="636"/>
      <point x="342" y="636" type="curve" smooth="yes"/>
      <point x="323" y="636"/>
      <point x="308" y="651"/>
      <point x="308" y="669" type="curve" smooth="yes"/>
      <point x="308" y="688"/>
      <point x="323" y="703"/>
      <point x="342" y="703" type="curve"/>
    </contour>
    <contour>
      <point x="123" y="355" type="line"/>
      <point x="123" y="206" type="line" smooth="yes"/>
      <point x="123" y="110"/>
      <point x="201" y="33"/>
      <point x="296" y="33" type="curve" smooth="yes"/>
      <point x="391" y="33"/>
      <point x="469" y="110"/>
      <point x="469" y="206" type="curve" smooth="yes"/>
      <point x="469" y="355" type="line" smooth="yes"/>
      <point x="469" y="450"/>
      <point x="391" y="528"/>
      <point x="296" y="528" type="curve" smooth="yes"/>
      <point x="201" y="528"/>
      <point x="123" y="450"/>
      <point x="123" y="355" type="curve"/>
    </contour>
  </outline>
</glyph>
<glyph name="divide" format="2">
  <advance width="599"/>
  <unicode hex="00F7"/>
  <outline>
    <contour>
      <point x="47" y="378" type="line"/>
      <point x="552" y="378" type="line"/>
      <point x="552" y="345" type="line"/>
      <point x="47" y="345" type="line"/>
      <point x="47" y="378" type="line"/>
    </contour>
    <contour>
      <point x="300" y="228" type="line"/>
      <point x="326" y="228"/>
      <point x="348" y="206"/>
      <point x="348" y="179" type="curve" smooth="yes"/>
      <point x="348" y="153"/>
      <point x="326" y="131"/>
      <point x="300" y="131" type="curve" smooth="yes"/>
      <point x="273" y="131"/>
      <point x="252" y="153"/>
      <point x="252" y="179" type="curve" smooth="yes"/>
      <point x="252" y="206"/>
      <point x="273" y="228"/>
      <point x="300" y="228" type="curve"/>
    </contour>
    <contour>
      <point x="300" y="494" type="line"/>
      <point x="273" y="494"/>
      <point x="252" y="516"/>
      <point x="252" y="543" type="curve" smooth="yes"/>
      <point x="252" y="570"/>
      <point x="273" y="592"/>
      <point x="300" y="592" type="curve" smooth="yes"/>
      <point x="326" y="592"/>
      <point x="348" y="570"/>
      <point x="348" y="543" type="curve" smooth="yes"/>
      <point x="348" y="516"/>
      <point x="326" y="494"/>
      <point x="300" y="494" type="curve"/>
    </contour>
  </outline>
</glyph>
<glyph name="oslash" format="2">
  <advance width="592"/>
  <unicode hex="00F8"/>
  <outline>
    <contour>
      <point x="143" y="0" type="line"/>
      <point x="81" y="0" type="line"/>
      <point x="125" y="68" type="line"/>
      <point x="77" y="113"/>
      <point x="47" y="177"/>
      <point x="47" y="249" type="curve" smooth="yes"/>
      <point x="47" y="312" type="line" smooth="yes"/>
      <point x="47" y="449"/>
      <point x="159" y="561"/>
      <point x="296" y="561" type="curve" smooth="yes"/>
      <point x="343" y="561"/>
      <point x="387" y="547"/>
      <point x="425" y="524" type="curve"/>
      <point x="449" y="561" type="line"/>
      <point x="511" y="561" type="line"/>
      <point x="467" y="493" type="line"/>
      <point x="515" y="448"/>
      <point x="545" y="383"/>
      <point x="545" y="312" type="curve" smooth="yes"/>
      <point x="545" y="249" type="line" smooth="yes"/>
      <point x="545" y="111"/>
      <point x="433" y="0"/>
      <point x="296" y="0" type="curve" smooth="yes"/>
      <point x="249" y="0"/>
      <point x="205" y="13"/>
      <point x="167" y="36" type="curve"/>
    </contour>
    <contour>
      <point x="123" y="355" type="line"/>
      <point x="123" y="206" type="line" smooth="yes"/>
      <point x="123" y="170"/>
      <point x="134" y="137"/>
      <point x="153" y="109" type="curve"/>
      <point x="403" y="491" type="line"/>
      <point x="374" y="514"/>
      <point x="336" y="528"/>
      <point x="296" y="528" type="curve" smooth="yes"/>
      <point x="201" y="528"/>
      <point x="123" y="450"/>
      <point x="123" y="355" type="curve"/>
    </contour>
    <contour>
      <point x="469" y="355" type="line"/>
      <point x="469" y="391"/>
      <point x="458" y="424"/>
      <point x="439" y="451" type="curve"/>
      <point x="189" y="70" type="line"/>
      <point x="218" y="47"/>
      <point x="256" y="33"/>
      <point x="296" y="33" type="curve" smooth="yes"/>
      <point x="391" y="33"/>
      <point x="469" y="110"/>
      <point x="469" y="206" type="curve" smooth="yes"/>
      <point x="469" y="355" type="line"/>
    </contour>
  </outline>
</glyph>
<glyph name="ugrave" format="2">
  <advance width="522"/>
  <unicode hex="00F9"/>
  <outline>
    <contour>
      <point x="475" y="561" type="line"/>
      <point x="475" y="18" type="line"/>
      <point x="444" y="0" type="line"/>
      <point x="423" y="74" type="line"/>
      <point x="384" y="29"/>
      <point x="326" y="0"/>
      <point x="261" y="0" type="curve" smooth="yes"/>
      <point x="143" y="0"/>
      <point x="47" y="96"/>
      <point x="47" y="214" type="curve" smooth="yes"/>
      <point x="47" y="561" type="line"/>
      <point x="123" y="561" type="line"/>
      <point x="123" y="171" type="line" smooth="yes"/>
      <point x="123" y="94"/>
      <point x="185" y="33"/>
      <point x="261" y="33" type="curve" smooth="yes"/>
      <point x="337" y="33"/>
      <point x="399" y="94"/>
      <point x="399" y="171" type="curve" smooth="yes"/>
      <point x="399" y="561" type="line"/>
      <point x="475" y="561" type="line"/>
    </contour>
    <contour>
      <point x="202" y="735" type="line"/>
      <point x="268" y="735" type="line"/>
      <point x="320" y="653" type="line"/>
      <point x="289" y="630" type="line"/>
    </contour>
  </outline>
</glyph>
<glyph name="ucircumflex" format="2">
  <advance width="522"/>
  <unicode hex="00FB"/>
  <outline>
    <contour>
      <point x="475" y="561" type="line"/>
      <point x="475" y="18" type="line"/>
      <point x="444" y="0" type="line"/>
      <point x="423" y="74" type="line"/>
      <point x="384" y="29"/>
      <point x="326" y="0"/>
      <point x="261" y="0" type="curve" smooth="yes"/>
      <point x="143" y="0"/>
      <point x="47" y="96"/>
      <point x="47" y="214" type="curve" smooth="yes"/>
      <point x="47" y="561" type="line"/>
      <point x="123" y="561" type="line"/>
      <point x="123" y="171" type="line" smooth="yes"/>
      <point x="123" y="94"/>
      <point x="185" y="33"/>
      <point x="261" y="33" type="curve" smooth="yes"/>
      <point x="337" y="33"/>
      <point x="399" y="94"/>
      <point x="399" y="171" type="curve" smooth="yes"/>
      <point x="399" y="561" type="line"/>
      <point x="475" y="561" type="line"/>
    </contour>
    <contour>
      <point x="230" y="735" type="line"/>
      <point x="292" y="735" type="line"/>
      <point x="341" y="658" type="line"/>
      <point x="312" y="637" type="line"/>
      <point x="261" y="698" type="line"/>
      <point x="210" y="637" type="line"/>
      <point x="181" y="658" type="line"/>
    </contour>
  </outline>
</glyph>
